<?xml version="1.0" encoding="UTF-8"?>
<svg id="Capa_1" data-name="Capa 1" xmlns="http://www.w3.org/2000/svg" viewBox="0 0 150 150">
  <defs>
    <style>
      .cls-1 {
        fill: #96bd0b;
        stroke-width: 0px;
      }
    </style>
  </defs>
  <path class="cls-1" d="M80.08,30.17h-34.15c0-9.41,7.66-17.07,17.08-17.07s17.07,7.66,17.07,17.07ZM102.63,115.62c-5.86,0-10.63,4.78-10.63,10.64s4.77,10.64,10.63,10.64,10.64-4.77,10.64-10.64-4.77-10.64-10.64-10.64ZM47.32,115.62c-5.87,0-10.65,4.78-10.65,10.64s4.78,10.64,10.65,10.64,10.65-4.77,10.65-10.64-4.77-10.64-10.65-10.64ZM137.99,83.12c.61,1.86.96,3.85.96,5.92v18.03c0,8.43-5.48,15.49-13.01,18.07-.6-12.39-10.78-22.3-23.31-22.3s-23.4,10.5-23.41,23.41h-8.47c-.01-12.91-10.52-23.41-23.43-23.41s-22.71,9.91-23.32,22.28c-7.5-2.59-12.95-9.64-12.95-18.05v-44.94c0-10.55,8.63-19.18,19.18-19.18h37.13v20.99c0,10.61,8.63,19.18,19.18,19.18h51.45ZM57.07,71.13c0-3.53-2.86-6.39-6.39-6.39h-4.67v-4.66c0-3.53-2.86-6.39-6.39-6.39s-6.39,2.86-6.39,6.39v4.66h-4.66c-3.53,0-6.39,2.86-6.39,6.39s2.86,6.39,6.39,6.39h4.66v4.66c0,3.53,2.86,6.39,6.39,6.39s6.39-2.86,6.39-6.39v-4.66h4.67c3.53,0,6.39-2.86,6.39-6.39ZM106.61,46.22c-1.16-1.98-3.26-3.26-5.56-3.26h-20.9v20.99c0,3.52,2.88,6.39,6.39,6.39h37.26l-17.18-24.12Z"/>
</svg>