<?xml version="1.0" encoding="UTF-8"?>
<svg id="Capa_1" data-name="Capa 1" xmlns="http://www.w3.org/2000/svg" viewBox="0 0 150 150">
  <defs>
    <style>
      .cls-1 {
        fill: #fdfdfd;
      }

      .cls-1, .cls-2, .cls-3 {
        stroke-width: 0px;
      }

      .cls-2 {
        fill: #96bd0b;
      }

      .cls-3 {
        fill: #040303;
      }
    </style>
  </defs>
  <g id="D5fGDL.tif">
    <g>
      <path class="cls-3" d="M103.49,60.95c-.53-1.75-.32-2.31,1.28-3.23,3.05-1.76,6.26-3.09,9.82-3.37.54-.04.68-.32.85-.75,1.77-4.51,3.91-5.97,8.71-5.97,4.24,0,5.79-1.23,6.79-5.36.14-.58.22-1.18.44-1.73.36-.9,1.1-1.28,2.06-1.12.97.16,1.51.79,1.59,1.74.3,3.46-2.93,8.54-6.18,9.74-1.8.67-3.69.6-5.57.57-1.65-.02-2.85.64-3.68,2.09-.38.66-.2.87.48.99,6.18,1.06,10.94,4.53,15.12,8.96.96,1.02,2,2,2.61,3.3,1.19,2.51.41,5.45-1.85,7.05-2.27,1.61-5.35,1.35-7.36-.7-1.4-1.43-2.69-2.97-4.23-4.27-4.73-3.97-9.33-4.36-14.55-1.07-1.66,1.04-3.18,2.3-4.8,3.4-.56.38-.51.81-.42,1.32,1.4,8.12,8.35,14.36,16.61,14.89.38.02.77.03,1.15.07,1.41.12,2.21.87,2.16,2.02-.05,1.15-.91,1.85-2.32,1.82-3.46-.07-6.74-.9-9.83-2.47-2.54-1.29-4.77-3-6.57-5.2-.58-.71-.89-.6-1.42,0-2.84,3.24-3.02,7.86-.39,11.44.2.28.44.53.63.81.66.95.57,1.95-.23,2.64-.79.69-1.97.64-2.74-.24-2.31-2.64-3.52-5.71-3.37-9.25.15-3.49,1.56-6.43,4.1-8.8.55-.51.6-.86.26-1.49-.83-1.53-1.23-3.24-1.76-4.96-6.85,3.78-13.95,4.34-21.58,1.81,2.54,4.94,4.61,9.67,6.47,14.5,1.25,3.25,2.15,6.64,3.67,9.79,2.19,4.56,5.26,8.43,9.03,11.8,3.01,2.7,6.67,3.43,10.47,3.87,3.6.41,7.3,0,10.84.82,2.12.49,3.29-.42,4.44-1.81,2.72-3.28,2.92-6.96,1.72-10.85-.61-1.99-.37-3.03.88-3.45,1.22-.41,2.21.36,2.79,2.26,1.66,5.52,1.11,10.63-2.93,15.03-.48.53-.43.71.19,1.06,6.5,3.64,9.62,9.56,10.93,16.6.5,2.71-1.39,5.42-4.03,6.21-.19.06-.44-.02-.52.26h-2.31c-2.8-1.07-4.17-3.15-4.74-6.07-.46-2.39-1.62-4.56-3.58-6.19-.08.09-.15.15-.17.21-.09.28-.16.57-.25.86-1.08,3.28-3.19,5.69-6.23,7.29-1.23.65-2.57.12-2.88-1.1-.31-1.21.36-1.9,1.35-2.45,2.29-1.26,3.73-3.16,4.31-5.74.16-.69,0-.87-.68-.95-2.8-.36-5.62-.3-8.43-.47-5.33-.31-10.48-1.27-15.11-4.15-.21-.13-.41-.33-.69-.2,0,.38-.04.77,0,1.14.58,4.97.74,9.95.87,14.94.03,1.18-.2,2.15-1.17,2.87h-1.54c-.6-.56-1.1-1.18-1.26-2.01.2-4.06-.07-8.1-.41-12.13-.24-2.89-.62-5.77-.94-8.65-.09-.84.16-1.52.89-1.97.74-.45,1.46-.35,2.16.13.32.22.64.43.95.65,3.91,2.7,8.1,4.68,12.9,5.23,3.4.39,6.81.4,10.22.57,6.6.32,10.93,3.55,13.05,9.81.31.93.51,1.89.78,2.83.36,1.28,1.28,1.9,2.33,1.61,1.11-.31,1.55-1.18,1.22-2.54-.26-1.07-.52-2.16-.89-3.2-2.35-6.65-6.75-10.91-13.96-11.92-3.43-.48-6.9-.35-10.34-.67-5.52-.51-10.41-2.25-14.41-6.32-4.44-4.52-7.93-9.6-9.96-15.6-2.59-7.64-5.71-15.05-9.48-22.18-.5-.94-.94-1.91-1.38-2.88-.38-.83-.24-1.59.42-2.22.62-.59,1.35-.69,2.13-.33.5.23,1,.48,1.5.72,3.14,1.5,6.42,2.53,9.93,2.68,6.02.25,11.12-2.12,15.84-5.57,1.75-1.28,3.45-2.65,5.35-3.73,5.52-3.15,10.95-3.06,16.27.49,2.33,1.55,4.3,3.49,6.11,5.61.88,1.03,1.97,1.21,2.81.54.92-.73.94-1.79,0-2.91-1.48-1.77-3.1-3.42-4.9-4.86-7.21-5.75-14.31-6.33-22.29-1.77-1.16.66-2.14.71-3.15-.16Z"/>
      <path class="cls-3" d="M47.47,85.83c-.47-.98-.42-1.87.42-2.67,6.26-5.98,7.95-13.22,5.98-21.52-1.38-5.81-2.41-11.69-2.46-17.69,0-.21-.04-.42-.07-.7-.2.05-.37.05-.49.13-4.15,2.77-8.85,3.87-13.68,4.57-2.82.41-5.67.67-8.41,1.55-1.25.4-2.46.89-3.51,1.88,2.65,1.67,4.44,3.99,6.06,6.54,2.89,4.56,8.85,5.68,13.39,2.72.32-.21.62-.46.93-.67,1.07-.74,2.15-.62,2.82.29.62.85.47,1.97-.45,2.72-2.35,1.9-5.04,2.98-8.07,3.16-2.48.15-4.78-.58-7.07-1.64-.14,3.85-1.4,7.18-3.69,10.12-.63.8-1.39,1.27-2.44.83-1.28-.54-1.54-1.92-.59-3.19,1.36-1.8,2.31-3.75,2.68-6,.73-4.46-1.76-9.54-5.72-11.7-.72-.4-.88.01-1.14.45-1.82,3.05-2.69,6.42-3.23,9.89-.11.67-.17,1.36-.34,2.02-.61,2.37-2.71,4.05-5.2,4.22-2.42.16-4.5-1.12-5.53-3.37-.13-.29-.09-.69-.46-.86v-3.33c.63-1.34.65-2.83,1-4.25.71-2.85,1.61-5.62,2.92-8.24.74-1.47,1.34-1.74,2.96-1.36,1.11.93,1.07,1.99.46,3.2-1.94,3.81-2.86,7.92-3.44,12.11-.18,1.32.38,2.06,1.54,2.19,1.28.14,1.97-.52,2.19-2.22.38-2.93,1.04-5.79,2.13-8.53,2.05-5.17,5.38-9.06,10.88-10.73,2.95-.9,6.01-1.2,9.05-1.64,5.4-.78,10.53-2.18,14.58-6.14.72-.7,1.48-1.35,2.59-.87,1.15.5,1.27,1.51,1.23,2.58-.32,7.48.92,14.76,2.52,22.04,2.02,9.17-.15,17.24-6.92,23.91-1.33,1.31-1.99,1.32-3.42.21Z"/>
      <path class="cls-3" d="M76.89,141.71c-1.03-.68-1.26-1.66-1.25-2.84.02-7.03-.7-14-2-20.91-.27-1.41.25-2.28,1.41-2.93,1.46.15,2.2.87,2.47,2.4,1.31,7.44,2.03,14.92,2.03,22.48-.08.89-.68,1.37-1.36,1.8h-1.28Z"/>
      <path class="cls-1" d="M78.17,141.71c.68-.43,1.29-.91,1.36-1.8,3.74-.07,7.47-.14,11.21-.21.16.83.66,1.45,1.26,2.01h-13.84Z"/>
      <path class="cls-2" d="M90.75,139.7c-3.74.07-7.47.14-11.21.21,0-7.55-.71-15.04-2.03-22.48-.27-1.53-1.01-2.25-2.47-2.4-.34-1.6-.69-3.2-1.03-4.79,1.28-.55,1.62-1.54,1.28-2.83-2.63-10.16-6.63-19.76-11.55-29.01-.4-.74-1.01-1.18-1.85-1.15-.78.03-1.36.44-1.69,1.18-.16.35-.32.7-.48,1.04-3.81,8.06-9.85,13.2-18.85,14.62-3.91.62-7.87.92-11.75,1.76-6.13,1.33-9.14,4.87-9.44,11.13-.12,2.4.21,4.76.69,7.11.29,1.41-.21,2.33-1.37,2.56-1.12.22-1.89-.36-2.21-1.75-.39-1.71-.64-3.44-.76-5.18-.63-8.79,3.08-15.64,12.62-17.53,3.73-.74,7.51-1.04,11.25-1.66,1.63-.27,3.01-.61,3.15-2.59,1.45-.74,3.07-1.16,4.42-2.12,1.44,1.11,2.1,1.1,3.42-.21,6.77-6.68,8.94-14.75,6.92-23.91-1.61-7.27-2.84-14.56-2.52-22.04.04-1.06-.07-2.08-1.23-2.58-1.12-.48-1.87.16-2.59.87-4.06,3.96-9.18,5.36-14.58,6.14-3.03.44-6.1.75-9.05,1.64-5.51,1.67-8.83,5.56-10.88,10.73-1.09,2.75-1.75,5.6-2.13,8.53-.22,1.7-.91,2.36-2.19,2.22-1.16-.13-1.72-.87-1.54-2.19.58-4.2,1.51-8.3,3.44-12.11.62-1.21.66-2.27-.46-3.2.83-1.44,1.78-2.8,3.08-3.88,1.11.78,2.11.61,3.13-.25,1.51-1.28,3.26-2.15,5.1-2.86,3.58-1.38,7.34-1.8,11.1-2.23,3.35-.39,6.73-.83,9.54-2.91,4.82-3.58,8.32-8.14,9.93-14.01,1.01-3.68,1.12-7.48,1.56-11.24,3.67.08,7.34.16,11,.24-.14,1.44-.28,2.88-.42,4.32-.95,9.47-1.58,18.95-1.42,28.48.13,7.57,2.79,13.99,8.71,18.85,5.89,4.84,14.87,7.43,22.55,2.5,1.49-.96,1.69-1.27,1.38-3.03,1.31-1.04,2.64-2.06,4.17-2.76,1.01.87,1.99.82,3.15.16,7.97-4.56,15.08-3.98,22.29,1.77,1.81,1.44,3.43,3.08,4.9,4.86.94,1.12.92,2.18,0,2.91-.83.67-1.92.49-2.81-.54-1.81-2.12-3.78-4.06-6.11-5.61-5.32-3.54-10.75-3.63-16.27-.49-1.9,1.08-3.6,2.44-5.35,3.73-4.72,3.45-9.82,5.82-15.84,5.57-3.51-.15-6.78-1.17-9.93-2.68-.5-.24-.99-.49-1.5-.72-.78-.36-1.5-.26-2.13.33-.66.63-.8,1.39-.42,2.22.44.97.88,1.94,1.38,2.88,3.77,7.13,6.89,14.54,9.48,22.18,2.03,6,5.52,11.08,9.96,15.6,4,4.07,8.89,5.81,14.41,6.32,3.44.32,6.91.18,10.34.67,7.2,1.01,11.6,5.27,13.96,11.92.37,1.04.63,2.12.89,3.2.33,1.36-.11,2.23-1.22,2.54-1.05.29-1.97-.33-2.33-1.61-.27-.94-.47-1.91-.78-2.83-2.12-6.25-6.45-9.48-13.05-9.81-3.41-.17-6.82-.18-10.22-.57-4.79-.54-8.99-2.53-12.9-5.23-.32-.22-.64-.43-.95-.65-.69-.48-1.42-.58-2.16-.13-.74.45-.99,1.13-.89,1.97.32,2.88.69,5.76.94,8.65.34,4.04.61,8.08.41,12.13Z"/>
      <path class="cls-3" d="M57.52,12.35c-.44,3.76-.55,7.56-1.56,11.24-1.61,5.87-5.1,10.43-9.93,14.01-2.81,2.08-6.18,2.52-9.54,2.91-3.76.44-7.53.85-11.1,2.23-1.84.71-3.59,1.58-5.1,2.86-1.01.86-2.01,1.03-3.13.25-.78-1.56-.65-2.17.73-3.27,2.88-2.31,6.19-3.72,9.75-4.55.84-.2,1.01-.46.84-1.26-1.54-6.83-7.41-12.5-16.27-9.53-.2.07-.4.16-.6.23-1.3.44-2.33.05-2.74-1.04-.4-1.06.13-2.07,1.44-2.56,3.6-1.36,7.27-1.76,11.01-.6.2.06.41.08.7.14.16-3.37,1.04-6.48,2.89-9.27.28-.43.58-.84.9-1.24.92-1.16,2.03-1.4,2.96-.65.91.73.99,1.81.11,2.94-1.52,1.96-2.47,4.15-2.85,6.6-.16,1.06-.11,2.13-.1,3.19,0,.52.24.87.61,1.19,3.12,2.7,4.92,6.15,5.76,10.14.09.43.06.85.73.75,2.44-.38,4.92-.48,7.33-1.07,3.83-.93,6.25-3.71,8.52-6.59,2.63-3.34,3.81-7.28,4.18-11.48.16-1.78.37-3.56.57-5.34.12-1.08.62-1.91,1.79-2,1.21-.09,1.89.61,2.1,1.78Z"/>
      <path class="cls-3" d="M99.32,63.71c.31,1.75.11,2.07-1.38,3.03-7.68,4.93-16.66,2.35-22.55-2.5-5.92-4.86-8.58-11.28-8.71-18.85-.17-9.52.46-19.01,1.42-28.48.14-1.44.28-2.88.42-4.32.06-.16.11-.32.17-.48.38-1.15,1.29-1.76,2.29-1.53,1.02.24,1.63,1.19,1.47,2.36-1.21,8.88-1.87,17.8-2.01,26.76-.06,4.09-.19,8.19,1.04,12.17,2.34,7.61,9.14,13.06,17.08,13.67,2.75.21,5.17-.81,7.48-2.17,1.52-.9,1.94-.84,3.28.33Z"/>
      <path class="cls-3" d="M43.06,87.95c-.14,1.98-1.52,2.32-3.15,2.59-3.74.62-7.53.92-11.25,1.66-9.55,1.9-13.25,8.74-12.62,17.53.12,1.74.37,3.48.76,5.18.32,1.38,1.09,1.97,2.21,1.75,1.16-.23,1.66-1.15,1.37-2.56-.49-2.35-.81-4.71-.69-7.11.3-6.26,3.31-9.81,9.44-11.13,3.88-.84,7.84-1.14,11.75-1.76,8.99-1.42,15.04-6.56,18.85-14.62.16-.35.32-.69.48-1.04.33-.73.92-1.14,1.69-1.18.84-.04,1.45.4,1.85,1.15,4.92,9.25,8.92,18.85,11.55,29.01.33,1.29,0,2.27-1.28,2.83-1.43.1-2.16-.61-2.52-1.98-2.13-8.14-5.03-15.99-8.88-23.48-.19-.37-.26-.82-.72-1.07-2.18,3.67-4.83,6.91-8.32,9.4-.87.62-1.76,1.21-2.71,1.67-.77.37-.89.73-.64,1.55,1.7,5.65.87,10.87-2.84,15.54-.48.6-.92,1.23-1.41,1.82-2.4,2.94-2.46,6.03-.67,9.27,1.15,2.08,2.69,3.83,4.37,5.48.49.48,1.02.92,1.44,1.45.63.81.58,1.69-.13,2.44-.7.75-1.67.96-2.42.28-4.17-3.81-8.06-7.83-8.33-13.96-.03-.74-.29-.81-.89-.81-3.63.02-6.92,2.94-7.77,6.96-.3,1.43-.39,2.87-.14,4.32.27,1.56-.29,2.56-1.5,2.78-1.19.22-2.04-.59-2.28-2.15-.61-3.93.11-7.58,2.42-10.82,2.46-3.44,5.91-5.05,10.13-4.93.72.02,1.14-.13,1.5-.81.77-1.48,1.89-2.74,2.9-4.05,2.68-3.49,3.17-7.35,2.03-11.5-.13-.47-.17-1.02-.96-.78-4.39,1.35-8.97,1.6-13.47,2.3-1.35.21-2.67.5-3.98.92-2.92.94-4.32,3.01-4.62,5.95-.27,2.62.12,5.19.64,7.75.6,2.95-1.22,5.78-4.16,6.57-2.9.79-5.99-.78-6.78-3.73-1.38-5.13-1.81-10.33-.27-15.53,1.49-5.03,4.61-8.69,9.36-10.89.88-.41.99-.79.7-1.62-1.2-3.44-5.23-4.94-8.39-3.1-.22.13-.43.28-.64.42-1.16.75-2.28.63-2.93-.32-.65-.95-.38-1.99.76-2.85,4.25-3.23,10.52-2.22,13.59,2.19.59.85,1.07,1.75,1.33,2.75.17.66.37.9,1.11.74,4.17-.94,8.46-1.08,12.63-1.97,1.31-.28,1.92.56,2.51,1.47Z"/>
    </g>
  </g>
</svg>