<?xml version="1.0" encoding="UTF-8"?>
<svg id="Capa_1" data-name="Capa 1" xmlns="http://www.w3.org/2000/svg" viewBox="0 0 150 150">
  <defs>
    <style>
      .cls-1 {
        fill: #96bd0b;
        stroke-width: 0px;
      }
    </style>
  </defs>
  <path class="cls-1" d="M68.75,132.22c2.21-1.33,54.95-31.58,54.95-76.57,0-20.66-15.38-38.11-33.58-38.11-9.27,0-17.97,4.11-24.22,11.12-6.24-7.01-14.96-11.12-24.22-11.12-18.2,0-33.57,17.45-33.57,38.11,0,44.99,52.71,75.3,54.95,76.57,0,0,2.51,1.91,5.68,0ZM89.48,78.47c-2.43-2.07-2.72-5.71-.65-8.14,3.85-4.52,8.22-11.33,7.19-18.12-.47-3.05-2.86-5.34-4.8-5.55-3.17-.35-5.45-3.21-5.09-6.38.36-3.16,3.2-5.44,6.38-5.09,7.42.83,13.69,7.26,14.92,15.28,1.34,8.79-1.21,17.57-9.8,27.35-4.07,4.64-8.14.65-8.14.65Z"/>
</svg>