<svg width="512" height="512" xmlns="http://www.w3.org/2000/svg" version="1.1">

 <g>
  <title>Layer 1</title>
  <path id="svg_1" fill="#8bbe00" d="m228,88c3.14122,-1.44924 5.73886,-3.23704 8.5,-5.3125c12.29728,-8.60451 26.03723,-11.85271 40.875,-10.0625c15.24539,2.76247 27.3918,10.89042 36.625,23.375c6.04449,10.1563 9.12225,20.12667 9,32c-1.15936,3.5391 -2.25947,5.20658 -4.75,7.875c-3.25681,1.6284 -5.65586,1.50333 -9.25,1.125c-3.83636,-1.70505 -5.47206,-3.13754 -7,-7c-0.30009,-2.18119 -0.54426,-4.37039 -0.75,-6.5625c-1.25913,-9.38003 -4.74116,-17.36102 -12.38672,-23.22656c-8.75449,-5.68951 -16.42197,-7.07704 -26.86328,-6.21094c-8.10032,2.05865 -16.1299,6.54129 -20.95224,13.53616c-2.45104,5.76369 -1.77289,12.50182 -1.75479,18.67868c-0.01313,1.58186 -0.02844,3.16369 -0.04582,4.7455c-0.03975,4.1445 -0.05004,8.28855 -0.05403,12.43321c-0.00936,4.23679 -0.04678,8.47333 -0.08179,12.70997c-0.06447,8.29883 -0.0978,16.59741 -0.11133,24.89648c0.68843,0.19907 1.37686,0.39814 2.08615,0.60324c0.90211,0.26483 1.80423,0.52966 2.73367,0.80252c0.89468,0.26095 1.78936,0.52189 2.71116,0.79074c9.26079,3.01375 17.28007,11.18836 22.00418,19.50663c3.68175,7.68553 6.29239,15.69036 5.46484,24.29687c-1.78084,4.12405 -3.81203,6.32481 -8,8c-2.8556,0.19341 -5.34536,0.09774 -8,-1c-3.51955,-3.53867 -4.59386,-6.45429 -5.4375,-11.3125c-2.13825,-10.11951 -5.01643,-13.58316 -13.5625,-19.6875c0.33,35.31 0.66,70.62 1,107c1.65,-0.33 3.3,-0.66 5,-1c12.01123,-0.97287 22.2575,1.88327 32,9c3.02409,2.87658 3.85758,4.46831 4.9375,8.5c0.07121,3.9875 -0.46244,5.42752 -2.9375,8.5c-2.32335,2.40632 -3.76591,2.95223 -7.0625,3.625c-4.1797,-0.66344 -5.87302,-1.7198 -9.3125,-4.0625c-4.77519,-3.22048 -8.77383,-5.35555 -14.625,-4.5625c-1.39107,0.48284 -2.77317,0.99195 -4.14771,1.52002c-0.72117,0.27555 -1.44235,0.55109 -2.18537,0.83499c-0.55009,0.21285 -1.10017,0.42569 -1.66692,0.64499c-0.21072,15.08185 -0.36918,30.16358 -0.46631,45.2466c-0.04631,7.00424 -0.10938,14.00756 -0.21265,21.01121c-0.09966,6.7628 -0.15164,13.52464 -0.17494,20.28812c-0.01659,2.57644 -0.04899,5.15282 -0.09767,7.72885c-0.99884,15.60572 -0.99884,15.60572 5.17447,29.19446c7.91594,6.74874 16.47659,9.9413 26.77319,9.8042c8.84347,-0.805 16.9145,-4.82999 23.00391,-11.27344c3.34435,-4.87832 6,-9.00563 6,-15c-0.66645,-0.30551 -1.33289,-0.61102 -2.01953,-0.92578c-13.26254,-6.5849 -22.55698,-17.071 -28.07031,-30.78516c-2.29554,-7.21453 -2.92623,-14.78357 -1.91016,-22.28906c2.41325,-3.76183 3.80089,-4.62528 8,-5.9375c3.36836,-0.07017 5.08781,0.2515 8,1.9375c3.48936,3.67198 4.49226,6.18006 4.9375,11.1875c1.28903,9.83438 5.12603,17.67235 13.0625,23.8125c8.37901,5.14666 16.23712,5.76424 26,5c3.35408,-0.86958 6.06303,-2.17998 9,-4c0.70898,-0.4241 1.41797,-0.8482 2.14844,-1.28516c8.16642,-5.44934 11.19636,-13.58356 13.85156,-22.71484c-1.12535,-0.14695 -1.12535,-0.14695 -2.27344,-0.29687c-15.02851,-2.19561 -27.43474,-8.47641 -37.20312,-20.48438c-7.63903,-11.12556 -12.58585,-24.60685 -10.52344,-38.21875c1.68961,-3.04129 3.89631,-4.44815 7,-6c4.63554,-0.41205 7.30416,0.12546 11,3c2.06697,3.27455 2.39478,6.31499 2.8125,10.125c1.36313,9.48866 5.28263,18.1457 12.89453,24.24219c6.95093,4.78495 15.85537,7.65114 24.29297,6.63281c7.5092,-1.75687 13.43586,-3.58624 19,-9c0.66,0 1.32,0 2,0c0.37125,-0.80437 0.37125,-0.80437 0.75,-1.625c1.25,-2.375 1.25,-2.375 3.1875,-4.9375c4.16204,-6.11883 5.25903,-14.20625 6.0625,-21.4375c-1.01063,0.33 -2.02125,0.66 -3.0625,1c-8.57429,2.12069 -18.9735,2.38405 -27.25781,-0.96094c-2.97631,-1.84115 -3.7879,-3.72669 -4.67969,-7.03906c0.07033,-4.07915 0.34307,-6.19473 2.9375,-9.375c3.30084,-2.60067 5.19956,-2.68063 9.36841,-2.55884c12.67255,0.3498 22.55022,-1.98023 32.69409,-10.06616c8.22341,-8.37696 11.43818,-18.92296 11.34766,-30.40625c-0.83013,-8.58105 -4.24779,-16.49388 -10.34766,-22.59375c-3.29066,0.79392 -3.29066,0.79392 -5.4375,4.0625c-8.84576,10.61491 -22.23154,15.87202 -35.72266,17.14063c-4.51758,0.11131 -7.33015,-0.3128 -10.83984,-3.20313c-2.56571,-3.42094 -2.43708,-6.84773 -2,-11c2.17906,-3.67233 3.52226,-4.83817 7.60938,-6.22266c1.37685,-0.29597 2.75736,-0.57536 4.14062,-0.83984c10.02429,-2.20933 18.169,-5.40756 24.375,-14.0625c4.0476,-6.34125 5.55229,-12.91495 6.8125,-20.25c0.58678,-3.01433 1.03464,-4.58269 2.75,-7.1875c3.20334,-1.99127 5.54593,-2.37256 9.3125,-2.4375c3.17688,1.13888 5.28855,1.90639 7.15625,4.77734c2.2018,5.80011 1.12722,13.28661 -0.15625,19.22266c0.58137,0.26039 1.16273,0.52078 1.76172,0.78906c9.98148,5.40011 15.89422,16.90506 19.67578,27.14844c4.31223,15.53151 2.69587,33.21751 -5.125,47.3125c-4.07753,6.28272 -9.05091,12.5756 -15.3125,16.75c-0.35051,2.09617 -0.35051,2.09617 -0.15234,4.51563c0.03085,0.91483 0.06171,1.82966 0.0935,2.77221c0.04004,0.97751 0.08009,1.95503 0.12134,2.96216c0.2694,14.29689 -2.34129,25.07842 -11.0625,36.75c-0.52336,0.71801 -1.04672,1.43602 -1.58594,2.17578c-5.63197,7.07431 -13.81077,12.95646 -22.41406,15.82422c-0.99,0 -1.98,0 -3,0c-0.02578,0.65484 -0.05156,1.30969 -0.07812,1.98438c-0.88959,14.31421 -6.27963,27.50712 -16.92579,37.39453c-10.79508,8.76704 -22.12691,13.07506 -35.99609,13.62109c-0.10313,1.01449 -0.20625,2.02898 -0.3125,3.07422c-2.08652,11.91449 -9.8587,22.73669 -19.35547,29.95312c-14.20373,9.47583 -29.29644,12.22673 -46.08203,9.32422c-9.71325,-2.73185 -17.4997,-8.0406 -25.25,-14.35156c-3.13461,1.44292 -5.69559,3.22717 -8.4375,5.3125c-12.73888,9.06675 -26.40397,10.83266 -41.5625,9.6875c-13.31094,-2.40146 -25.7686,-9.78589 -33.97656,-20.60547c-4.48264,-6.7621 -9.02344,-14.1141 -9.02344,-22.39453c-1.4502,-0.14695 -1.4502,-0.14695 -2.92969,-0.29687c-16.12956,-1.85251 -28.59895,-7.4233 -39.28906,-20.23829c-6.87277,-9.51034 -10.78125,-20.68056 -10.78125,-32.46484c-0.66,-0.0825 -1.32,-0.165 -2,-0.25c-11.47977,-2.86994 -21.17858,-11.37201 -27.50391,-21.14062c-6.90587,-12.04472 -8.98221,-21.86412 -7.89062,-35.56446c0.24618,-5.45305 0.24618,-5.45305 -2.26587,-10.10644c-2.0474,-1.75553 -4.16664,-3.34298 -6.3396,-4.93848c-12.19204,-13.62759 -14.82659,-28.9096 -14.1792,-46.49854c1.04198,-14.54507 8.78463,-26.67386 19.1792,-36.50146c2.27344,-1.28125 2.27344,-1.28125 4,-2c-0.15984,-0.84305 -0.31969,-1.68609 -0.48438,-2.55469c-2.39182,-15.98171 0.72905,-29.88647 9.48438,-43.44531c6.15747,-8.31839 14.0097,-15.26113 24.0625,-18.3125c3.04703,-1.33238 3.04703,-1.33238 3.66406,-3.66406c0.32063,-1.71184 0.59885,-3.43195 0.84375,-5.15625c1.95742,-13.0613 9.07768,-25.19546 19.41016,-33.44922c10.0909,-7.08511 20.68429,-10.94078 33.01953,-11.41797c0.04125,-1.0725 0.0825,-2.145 0.125,-3.25c1.70743,-12.76078 10.87946,-23.1313 20.57422,-30.91797c22.49473,-15.4015 50.47706,-11.56904 70.30078,6.16797zm-63,15c-6.7401,8.17916 -9.68473,16.01205 -9.41406,26.61719c1.03619,8.46552 4.84893,16.80245 11.41406,22.38281c6.82284,4.86862 13.22316,7.72445 21.625,8.375c4.20115,0.43015 6.56282,1.28554 9.375,4.625c1.0084,3.69746 1.23832,6.10629 0.25,9.8125c-1.25,2.1875 -1.25,2.1875 -4.25,4.1875c-14.88227,1.7249 -27.27294,-2.96115 -39.14844,-11.55469c-9.39165,-7.52052 -15.15668,-18.84677 -17.85156,-30.44531c-8.46303,-0.73592 -15.3082,2.2787 -21.8125,7.625c-6.02397,5.69345 -9.74174,12.98205 -10.42578,21.25781c-0.22301,9.74215 1.68198,17.7205 7.70703,25.52735c5.1124,5.30802 11.4701,8.23612 18.36719,10.53515c2.63554,1.28447 3.6905,2.53795 5.16406,5.05469c0.36988,4.14268 0.54161,7.56883 -2,11c-4.46491,2.73069 -8.04853,2.05549 -13,1c-7.50995,-2.16588 -13.16709,-5.87576 -19,-11c-0.61746,-0.52336 -1.23492,-1.04672 -1.87109,-1.58594c-5.39884,-4.92989 -8.68113,-11.032 -12.12891,-17.41406c-8.35599,2.44855 -13.54071,7.5481 -17.99219,14.91016c-4.00889,8.31301 -4.38433,18.11447 -2.32031,27.07422c3.47229,9.31729 9.29845,16.63226 18.3125,21.01562c3.9519,1.27099 7.93555,2.16902 12,3c6.26383,1.35882 6.26383,1.35882 8.9375,3.6875c1.79171,3.8996 1.62447,7.57975 0.3125,11.625c-1.641,2.21535 -2.59886,2.8503 -5.25,3.6875c-13.83402,1.25764 -27.4992,-4.40859 -38.0625,-13.125c-2.60082,-2.40673 -4.83593,-5.01687 -6.9375,-7.875c-6.08907,2.40669 -8.40357,8.59942 -11.05078,14.23828c-3.49616,9.0635 -2.87408,18.27447 0.79687,27.16406c5.11667,10.59994 12.39399,17.8215 23.58203,21.88672c7.06954,1.88108 14.46543,1.89496 21.73438,1.55078c2.38213,0.19691 3.902,0.92929 5.9375,2.16016c2.30576,3.22806 2.39652,6.11412 2,10c-1.0625,2.75 -1.0625,2.75 -3,5c-5.03773,1.82216 -9.69267,2.28409 -15,2.1875c-0.67289,-0.00064 -1.34578,-0.00129 -2.03906,-0.00195c-4.41798,-0.03838 -8.61369,-0.47799 -12.96094,-1.18555c-1.70572,6.97118 -0.11385,13.30049 3.125,19.625c5.36774,8.8318 12.13836,13.98391 21.875,17.375c9.77298,2.25197 18.87331,0.51397 27.62891,-4.50781c10.49654,-7.63708 14.14535,-17.58042 16.37109,-29.92969c0.12375,-0.80309 0.2475,-1.60617 0.375,-2.43359c0.7316,-2.49202 1.63234,-3.49991 3.625,-5.12891c2.82001,-1.41001 4.87007,-1.24548 8,-1c4.63235,2.26471 4.63235,2.26471 6,5c1.37743,16.19046 -3.46854,29.29519 -13.6875,41.6875c-9.61334,10.32477 -21.9341,14.22518 -35.3125,17.3125c1.51183,9.37335 4.91447,16.81703 12.375,22.9375c8.56911,6.02538 16.1357,7.10198 26.625,6.0625c7.45271,-1.71986 12.70441,-5.6182 18,-11c1.11375,-1.11375 1.11375,-1.11375 2.25,-2.25c3.59866,-5.65503 5.76909,-11.93702 6.25,-18.625c0.33191,-4.11572 1.2788,-6.3391 4.5,-9.125c3.76653,-1.33921 6.18891,-1.13545 9.8125,0.3125c3.1875,1.6875 3.1875,1.6875 4.1875,3.6875c1.3396,15.74582 -3.3287,27.54898 -12.25,40.1875c-5.66704,5.79583 -12.66173,9.96018 -19.75,13.8125c0.37207,7.0694 4.15671,13.09046 9.01172,18.05859c7.58577,6.33283 16.29736,9.77896 26.23437,9.3125c10.94635,-1.47504 18.24546,-7.00242 25.36222,-15.23056c1.59973,-2.46051 1.76287,-3.70379 1.75245,-6.60775c0.00413,-0.88899 0.00825,-1.77797 0.0125,-2.6939c-0.01079,-0.96744 -0.02157,-1.93489 -0.03268,-2.93165c0.00043,-1.02471 0.00087,-2.04942 0.00132,-3.10518c-0.00209,-3.38734 -0.02543,-6.77418 -0.04893,-10.16142c-0.0056,-2.34841 -0.00987,-4.69682 -0.01286,-7.04523c-0.01146,-6.18146 -0.04093,-12.3627 -0.07412,-18.54407c-0.03068,-6.30745 -0.04439,-12.61492 -0.05951,-18.92242c-0.03217,-12.3764 -0.08338,-24.75264 -0.14648,-37.12891c-1.10827,0.16081 -2.21654,0.32162 -3.3584,0.4873c-12.58034,1.77117 -23.30157,-0.98646 -33.6416,-8.4873c-3.41094,-3.00488 -4.26628,-5.14088 -4.5625,-9.5625c0.17374,-3.36281 0.41687,-4.25092 2.5625,-7c3.83118,-1.83577 6.89456,-2.43829 11,-1.4375c3.21918,1.73301 6.07899,3.81227 9,6c2.67656,1.33828 4.82434,1.20579 7.8125,1.25c1.0377,0.02578 2.07539,0.05156 3.14453,0.07813c3.65049,-0.39364 5.24607,-0.92942 8.04297,-3.32813c0.4862,-3.02386 0.63381,-5.48614 0.56763,-8.5105c0.00073,-0.8685 0.00146,-1.73701 0.00221,-2.63183c-0.00349,-2.87377 -0.0424,-5.74591 -0.08156,-8.61939c-0.00932,-1.9911 -0.01644,-3.98222 -0.02144,-5.97334c-0.0191,-5.24297 -0.06822,-10.48525 -0.12352,-15.72795c-0.05113,-5.34883 -0.07398,-10.69776 -0.09918,-16.04676c-0.05364,-10.49704 -0.13899,-20.99358 -0.24414,-31.49023c-1.11528,0.62004 -2.23056,1.24008 -3.37964,1.87891c-0.62734,0.34877 -1.25469,0.69754 -1.90105,1.05688c-3.83264,2.37231 -5.8828,6.04648 -7.71931,10.06421c-0.68087,3.1013 -1.11463,6.16693 -1.50781,9.31641c-0.63051,3.43778 -1.9155,5.34846 -4.49219,7.68359c-3.13871,1.56936 -5.53856,1.35201 -9,1c-2.9375,-1.625 -2.9375,-1.625 -5,-5c-1.74982,-10.89727 0.99426,-20.5292 6.72656,-29.78906c5.76763,-7.85631 13.15316,-12.42444 21.96118,-16.30908c1.21231,-0.53563 1.21231,-0.53563 2.44912,-1.08207c0.61483,-0.27053 1.22967,-0.54106 1.86314,-0.81979c0.16242,-13.14353 0.28669,-26.28681 0.36269,-39.43114c0.03648,-6.10396 0.08594,-12.20724 0.16539,-18.3108c0.07623,-5.89394 0.11795,-11.78721 0.13606,-17.6816c0.0129,-2.24507 0.0381,-4.49011 0.07597,-6.73491c0.05106,-3.15296 0.0578,-6.30322 0.05457,-9.45654c0.02516,-0.92142 0.05033,-1.84284 0.07626,-2.79218c-0.08062,-7.29386 -2.84293,-11.4288 -7.87094,-16.59283c-2.51985,-2.13324 -2.51985,-2.13324 -5.0625,-3.4375c-0.79535,-0.45246 -1.5907,-0.90492 -2.41016,-1.37109c-14.04876,-6.62268 -28.55261,-3.87679 -39.52734,6.80859z"/>
  <path id="svg_2" fill="#8bbe00" d="m475.4375,24.625c1.29809,-0.04898 2.59617,-0.09797 3.93359,-0.14844c3.62891,0.52344 3.62891,0.52344 6.56641,2.76563c2.08561,2.78871 2.72682,3.85588 2.625,7.25781c0.00129,0.73219 0.00258,1.46438 0.00391,2.21875c-0.83436,3.36043 -2.02831,4.90945 -4.56641,7.28125c-2.81517,1.02228 -5.67518,1.46154 -8.625,1.9375c-14.81395,2.97545 -20.94522,9.18025 -29.39453,21.45703c-2.92189,4.39558 -5.50101,8.94846 -7.98047,13.60547c0.49653,0.36754 0.99306,0.73509 1.50464,1.11377c5.04871,3.82908 7.92914,7.71347 9.49536,13.88623c1.70007,12.79863 -3.4617,21.23803 -10.625,31.375c-1.15448,1.66088 -2.30807,3.32237 -3.46094,4.98438c-0.62487,0.89783 -1.24974,1.79566 -1.89355,2.7207c-3.38747,4.89538 -6.7217,9.82683 -10.05927,14.75628c-2.03225,3.00102 -4.06723,6.00018 -6.10187,8.99958c-0.60689,0.89484 -0.60689,0.89484 -1.22604,1.80777c-5.59689,8.25233 -11.19763,16.502 -16.81692,24.7391c-2.37126,3.47895 -4.71971,6.97064 -7.03907,10.48438c-8.85348,13.34395 -20.17091,23.99287 -35.77734,29.13281c-1.95473,-0.28038 -3.91105,-0.56535 -5.8457,-0.96118c-4.02175,-0.67546 -7.37471,-0.6908 -11.1543,0.96118c-5.56437,5.21143 -9.17783,12.237 -12.94354,18.7885c-3.62554,6.29627 -7.73512,12.23969 -11.86896,18.2115c-1.41677,2.07326 -2.83217,4.14745 -4.24609,6.22266c-1.00136,1.4659 -1.00136,1.4659 -2.02295,2.96142c-1.78453,2.61934 -3.55853,5.24541 -5.32862,7.87451c-0.98822,1.45968 -1.9765,2.91931 -2.96484,4.37891c-0.43417,0.65033 -0.86834,1.30066 -1.31567,1.9707c-1.94812,2.8637 -3.38643,4.6432 -6.30933,6.5918c-4.41034,0.71028 -7.99366,0.50317 -12,-1.5c-2.16589,-2.70736 -3.03417,-4.83121 -3.26709,-8.30933c0.86139,-7.0651 7.03111,-13.98011 11.01709,-19.69067c1.14636,-1.65849 2.29216,-3.31737 3.4375,-4.97656c0.61102,-0.88333 1.22203,-1.76666 1.85156,-2.67676c4.33712,-6.29617 8.61998,-12.62972 12.90283,-18.96289c3.00569,-4.43647 6.01081,-8.86333 9.1753,-13.18848c0.6521,-0.89936 0.6521,-0.89936 1.31738,-1.81689c1.085,-1.4842 2.18758,-2.95549 3.29199,-4.42529c1.51249,-2.38941 1.51249,-2.38941 1.07813,-5.1211c-0.93363,-2.70571 -2.30736,-4.89887 -3.80469,-7.33203c-3.76336,-11.8021 -0.27182,-26.8818 4.25,-38.10156c3.37603,-6.5027 7.82898,-12.36117 12.13672,-18.26953c2.48422,-3.42208 4.84702,-6.91227 7.17578,-10.44141c6.25001,-9.45259 12.64365,-18.80688 19.02513,-28.17101c2.30303,-3.38142 4.59834,-6.76794 6.88739,-10.15885c1.14467,-1.69554 2.29058,-3.39023 3.43685,-5.08469c1.43293,-2.11913 2.86358,-4.2398 4.2915,-6.36231c13.53527,-19.99019 13.53527,-19.99019 23.79663,-23.41064c7.44746,-0.57373 13.17633,0.0224 20,3c0.99,0 1.98,0 3,0c1.60725,-1.8329 1.60725,-1.8329 3.07422,-4.27734c0.58588,-0.90686 1.17176,-1.81371 1.77539,-2.74805c0.90976,-1.44149 0.90976,-1.44149 1.83789,-2.91211c9.93229,-15.66708 20.13527,-25.92467 38.13281,-31.64062c3.21114,-0.62151 6.34935,-0.71267 9.61719,-0.79688zm-74.85547,61.48828c-2.59137,2.89716 -4.75537,5.83123 -6.89453,9.07422c-0.69738,1.04543 -1.39477,2.09086 -2.11328,3.16797c-1.74472,2.41802 -1.74472,2.41802 -1.57422,4.64453c2.23034,1.79578 2.23034,1.79578 5.10937,3.66016c1.06477,0.71091 2.12954,1.42183 3.22657,2.15429c0.84063,0.55313 0.84063,0.55313 1.69824,1.11743c1.70081,1.12073 3.39225,2.25458 5.08301,3.39039c6.01542,4.28994 6.01542,4.28994 12.88281,6.67773c1.27348,-1.72722 2.54367,-3.45686 3.8125,-5.1875c0.7077,-0.96293 1.41539,-1.92586 2.14453,-2.91797c0.67418,-0.95519 1.34836,-1.91039 2.04297,-2.89453c0.60199,-0.84176 1.20398,-1.68352 1.82422,-2.55078c1.47672,-3.07609 1.22338,-4.24038 0.17578,-7.44922c-1.79802,-1.82244 -1.79802,-1.82244 -4.14844,-3.26172c-0.84047,-0.56139 -1.68093,-1.12277 -2.54687,-1.70117c-1.32645,-0.85368 -1.32645,-0.85368 -2.67969,-1.72461c-0.87656,-0.58072 -1.75312,-1.16145 -2.65625,-1.75977c-2.31467,-1.53072 -4.64017,-3.0433 -6.96875,-4.55273c-0.99,-0.66 -1.98,-1.32 -3,-2c-3.15874,-0.32904 -3.15874,-0.32904 -5.41797,2.11328zm-22.58203,32.88672c-9.1287,12.80297 -9.1287,12.80297 -17.91406,25.84229c-2.63028,4.01512 -5.34755,7.95351 -8.125,11.86865c-12.40553,17.36524 -12.40553,17.36524 -15.8125,37.97265c1.0306,4.01368 2.13819,5.039 5.53906,7.31641c0.84949,0.59813 1.69898,1.19625 2.57422,1.8125c3.50488,1.51995 5.09041,1.25607 8.73828,0.1875c13.86542,-5.96362 20.86564,-17.48022 28.69789,-29.83272c3.71959,-5.86524 7.62423,-11.59851 11.54802,-17.32838c1.10729,-1.61952 2.20883,-3.24297 3.31024,-4.86649c1.00475,-1.48101 1.00475,-1.48101 2.02979,-2.99194c0.88244,-1.30095 0.88244,-1.30095 1.78271,-2.62818c1.63135,-2.35229 1.63135,-2.35229 3.40723,-4.41357c1.3996,-1.83973 1.3996,-1.83973 1.24145,-3.94775c-1.49402,-2.92388 -3.55641,-4.06345 -6.29467,-5.84644c-1.07057,-0.70447 -2.14114,-1.40894 -3.24414,-2.13476c-1.13857,-0.73259 -2.27725,-1.46501 -3.41602,-2.19727c-1.13545,-0.7431 -2.27022,-1.48723 -3.4043,-2.23242c-5.20736,-3.49762 -5.20736,-3.49762 -10.6582,-6.58008z"/>
  <path id="svg_3" fill="#8bbe00" d="m150.6875,239.5625c10.36898,4.28186 17.75303,11.63454 22.41016,21.84375c3.79573,10.87522 2.78575,22.26179 -2.09766,32.59375c-5.20004,8.84145 -13.62692,15.74543 -23.57031,18.55859c-4.84534,0.88027 -9.55171,1.22245 -14.42969,0.44141c-2.97361,-2.21563 -4.3696,-3.7392 -6,-7c-0.41205,-4.63554 0.12546,-7.30416 3,-11c2.91107,-1.75168 5.5381,-2.36563 8.875,-2.875c5.54503,-1.05347 9.27682,-2.89444 12.9375,-7.3125c2.26883,-5.37355 2.74456,-9.95562 1.0625,-15.5625c-2.98366,-5.17168 -6.09138,-8.5412 -11.875,-10.25c-1.52074,-0.29214 -3.04158,-0.58376 -4.5625,-0.875c-3.90251,-0.81816 -5.97667,-1.8439 -8.4375,-5.125c-1.43304,-2.86608 -1.30644,-4.81301 -1,-8c5.28807,-9.34225 14.10312,-8.60522 23.6875,-5.4375z"/>
 </g>
</svg>