<svg width="512" height="512" xmlns="http://www.w3.org/2000/svg" version="1.1">

 <g>
  <title>Layer 1</title>
  <path id="svg_1" fill="#8bbe00" d="m260,34c8.00787,7.01575 8.00787,7.01575 10,11c2.92392,-1.03197 5.2016,-2.14203 7.75,-3.9375c10.14124,-6.43578 23.07745,-7.68037 34.70313,-5.37891c14.35504,4.09902 24.33049,11.99184 32.54687,24.31641c0.51047,-0.20496 1.02094,-0.40992 1.54688,-0.62109c12.22951,-4.53186 24.87199,-4.56223 36.8225,0.86035c13.41692,6.5364 22.6164,16.60294 27.63062,30.76074c0,0.99 0,1.98 0,3c1.09055,-0.05221 1.09055,-0.05221 2.20313,-0.10547c14.38373,-0.38725 26.95291,3.45287 37.67187,13.41797c10.00756,10.93283 13.72472,23.09683 13.26563,37.57422c-0.04641,1.02738 -0.09282,2.05476 -0.14063,3.11328c1.27875,0.20625 2.5575,0.4125 3.875,0.625c11.82889,2.68838 21.10934,11.28578 27.5,21.3125c6.30522,11.48952 7.96458,25.03304 4.65234,37.81641c-0.72024,1.98981 -1.49493,3.96169 -2.34765,5.89843c-0.90712,2.30803 -0.90712,2.30803 -0.00391,4.41016c1.44115,2.10859 2.99045,4.0471 4.63672,6c9.67187,12.19584 10.81994,24.92578 9.6875,39.9375c-0.80915,4.03652 -2.08812,7.36742 -4,11c-0.4125,0.84563 -0.825,1.69125 -1.25,2.5625c-5.81787,10.8424 -15.29508,18.17449 -26.75,22.4375c-3.0913,0.65586 -5.82691,0.89423 -9,1c-0.02578,0.76441 -0.05156,1.52883 -0.07812,2.31641c-1.40829,26.59745 -14.12869,50.99683 -33.1836,69.28125c-18.35814,16.10593 -41.94869,26.68268 -66.62109,26.44922c-0.6878,-0.00339 -1.37559,-0.00677 -2.08423,-0.01026c-1.67768,-0.00874 -3.35532,-0.02219 -5.03296,-0.03662c0.07739,0.86364 0.15478,1.72728 0.23451,2.6171c0.72897,8.15022 1.45065,16.30104 2.16421,24.45263c0.36708,4.1905 0.73694,8.38072 1.11324,12.57041c0.36324,4.04539 0.71906,8.09137 1.06983,12.13786c0.13492,1.54153 0.27248,3.08284 0.41276,4.62391c0.19646,2.16316 0.38339,4.32697 0.56819,6.49116c0.10881,1.23022 0.21762,2.46043 0.32973,3.72793c0.10597,3.32992 -0.09196,6.14725 -0.89247,9.379c-2.1875,2 -2.1875,2 -5,3c-2.00894,-0.63921 -4.00779,-1.31039 -6,-2c-3.0735,-0.0421 -5.98413,0.43629 -9,1c-0.95133,0.17531 -1.90266,0.35062 -2.88281,0.53125c-6.12254,1.28906 -6.12254,1.28906 -10.42969,5.59375c-0.55688,0.94875 -1.11375,1.8975 -1.6875,2.875c-3,1.0625 -3,1.0625 -6,1c-2.49968,-1.44257 -3.76123,-2.31781 -4.72607,-5.07446c-0.10845,-0.79141 -0.21689,-1.58281 -0.32862,-2.3982c-0.13632,-0.89082 -0.27263,-1.78164 -0.41308,-2.69946c-0.13439,-0.95382 -0.26877,-1.90765 -0.40723,-2.89038c-4.76778,-29.25661 -18.35083,-49.50159 -41.125,-67.9375c-0.98484,-0.80309 -1.96969,-1.60617 -2.98437,-2.43359c-1.80449,-1.47061 -3.61041,-2.93944 -5.41797,-4.40625c-3.55556,-2.95673 -6.97257,-6.05391 -10.38672,-9.17188c-1.76174,-1.58432 -3.54183,-3.08219 -5.39844,-4.55078c-10.18103,-8.82356 -17.92305,-20.95508 -24.8125,-32.4375c-0.67482,0.52787 -0.67482,0.52787 -1.36328,1.06641c-17.07279,13.10396 -33.86476,20.35874 -55.63672,18.93359c-18.50613,-2.66038 -33.80425,-10.63096 -46,-25c-1.96629,-2.79362 -3.78457,-5.61723 -5.52734,-8.55469c-1.36812,-2.27172 -2.84424,-4.3551 -4.47266,-6.44531c-0.90879,0.70576 -0.90879,0.70576 -1.83594,1.42578c-9.88394,7.34453 -18.82058,9.85818 -31.16406,8.57422c-12.17808,-2.51341 -20.52012,-9.31623 -28,-19c-0.33,-0.66 -0.66,-1.32 -1,-2c-1.30711,0.14309 -1.30711,0.14309 -2.64063,0.28906c-13.14369,1.22333 -24.9006,0.38579 -35.58203,-8.04297c-7.64707,-7.07533 -12.13795,-16.43589 -13.11328,-26.82421c-0.11624,-10.92698 1.68366,-19.63137 8.33594,-28.42188c-0.4473,-0.53367 -0.89461,-1.06734 -1.35547,-1.61719c-10.50482,-12.94624 -14.23035,-25.83111 -12.64453,-42.38281c2.38591,-12.92965 8.4723,-22.69629 18.86328,-30.63672c2.13672,-1.36328 2.13672,-1.36328 4.13672,-1.36328c-0.27715,-0.66387 -0.5543,-1.32773 -0.83984,-2.01172c-0.36223,-0.88301 -0.72446,-1.76601 -1.09766,-2.67578c-0.35965,-0.87012 -0.7193,-1.74023 -1.08984,-2.63672c-3.81905,-10.50621 -3.26808,-23.70114 0.76953,-34.03515c5.94929,-12.48983 15.54258,-21.82097 28.45703,-26.89844c7.94851,-2.74219 7.94851,-2.74219 11.80078,-2.74219c0.09281,-1.85625 0.09281,-1.85625 0.1875,-3.75c1.58373,-13.45117 9.14085,-22.69773 19.25,-31.125c8.89343,-6.60387 18.07299,-8.29833 28.875,-8.1875c0.83596,0.00451 1.67191,0.00902 2.5332,0.01367c2.05147,0.01172 4.10289,0.02966 6.1543,0.04883c0.31711,-0.75023 0.63422,-1.50047 0.96094,-2.27344c5.91489,-12.97355 15.18206,-21.7603 28.35156,-27.03906c12.11234,-3.76112 26.22445,-3.16266 37.6875,2.3125c1.30324,0.84111 1.30324,0.84111 2.63281,1.69922c0.78117,0.42926 1.56235,0.85851 2.36719,1.30078c3.38017,-1.12672 3.88987,-1.89238 6,-4.625c15.88911,-18.67138 44.49246,-20.1069 64,-6.375z"/>
  <path id="svg_2" fill="#020000" d="m260,34c8.00787,7.01575 8.00787,7.01575 10,11c2.92392,-1.03197 5.2016,-2.14203 7.75,-3.9375c10.14124,-6.43578 23.07745,-7.68037 34.70313,-5.37891c14.35504,4.09902 24.33049,11.99184 32.54687,24.31641c0.51047,-0.20496 1.02094,-0.40992 1.54688,-0.62109c12.22951,-4.53186 24.87199,-4.56223 36.8225,0.86035c13.41692,6.5364 22.6164,16.60294 27.63062,30.76074c0,0.99 0,1.98 0,3c1.09055,-0.05221 1.09055,-0.05221 2.20313,-0.10547c14.38373,-0.38725 26.95291,3.45287 37.67187,13.41797c10.00756,10.93283 13.72472,23.09683 13.26563,37.57422c-0.04641,1.02738 -0.09282,2.05476 -0.14063,3.11328c1.27875,0.20625 2.5575,0.4125 3.875,0.625c11.82889,2.68838 21.10934,11.28578 27.5,21.3125c6.30522,11.48952 7.96458,25.03304 4.65234,37.81641c-0.72024,1.98981 -1.49493,3.96169 -2.34765,5.89843c-0.90712,2.30803 -0.90712,2.30803 -0.00391,4.41016c1.44115,2.10859 2.99045,4.0471 4.63672,6c9.67187,12.19584 10.81994,24.92578 9.6875,39.9375c-0.80915,4.03652 -2.08812,7.36742 -4,11c-0.4125,0.84563 -0.825,1.69125 -1.25,2.5625c-5.81787,10.8424 -15.29508,18.17449 -26.75,22.4375c-3.0913,0.65586 -5.82691,0.89423 -9,1c-0.02578,0.76441 -0.05156,1.52883 -0.07812,2.31641c-1.40829,26.59745 -14.12869,50.99683 -33.1836,69.28125c-18.35814,16.10593 -41.94869,26.68268 -66.62109,26.44922c-0.6878,-0.00339 -1.37559,-0.00677 -2.08423,-0.01026c-1.67768,-0.00874 -3.35532,-0.02219 -5.03296,-0.03662c0.07739,0.86364 0.15478,1.72728 0.23451,2.6171c0.72897,8.15022 1.45065,16.30104 2.16421,24.45263c0.36708,4.1905 0.73694,8.38072 1.11324,12.57041c0.36324,4.04539 0.71906,8.09137 1.06983,12.13786c0.13492,1.54153 0.27248,3.08284 0.41276,4.62391c0.19646,2.16316 0.38339,4.32697 0.56819,6.49116c0.10881,1.23022 0.21762,2.46043 0.32973,3.72793c0.10597,3.32992 -0.09196,6.14725 -0.89247,9.379c-2.1875,2 -2.1875,2 -5,3c-2.00894,-0.63921 -4.00779,-1.31039 -6,-2c-3.0735,-0.0421 -5.98413,0.43629 -9,1c-0.95133,0.17531 -1.90266,0.35062 -2.88281,0.53125c-6.12254,1.28906 -6.12254,1.28906 -10.42969,5.59375c-0.55688,0.94875 -1.11375,1.8975 -1.6875,2.875c-3,1.0625 -3,1.0625 -6,1c-2.49968,-1.44257 -3.76123,-2.31781 -4.72607,-5.07446c-0.10845,-0.79141 -0.21689,-1.58281 -0.32862,-2.3982c-0.13632,-0.89082 -0.27263,-1.78164 -0.41308,-2.69946c-0.13439,-0.95382 -0.26877,-1.90765 -0.40723,-2.89038c-4.76778,-29.25661 -18.35083,-49.50159 -41.125,-67.9375c-0.98484,-0.80309 -1.96969,-1.60617 -2.98437,-2.43359c-1.80449,-1.47061 -3.61041,-2.93944 -5.41797,-4.40625c-3.55556,-2.95673 -6.97257,-6.05391 -10.38672,-9.17188c-1.76174,-1.58432 -3.54183,-3.08219 -5.39844,-4.55078c-10.18103,-8.82356 -17.92305,-20.95508 -24.8125,-32.4375c-0.67482,0.52787 -0.67482,0.52787 -1.36328,1.06641c-17.07279,13.10396 -33.86476,20.35874 -55.63672,18.93359c-18.50613,-2.66038 -33.80425,-10.63096 -46,-25c-1.96629,-2.79362 -3.78457,-5.61723 -5.52734,-8.55469c-1.36812,-2.27172 -2.84424,-4.3551 -4.47266,-6.44531c-0.90879,0.70576 -0.90879,0.70576 -1.83594,1.42578c-9.88394,7.34453 -18.82058,9.85818 -31.16406,8.57422c-12.17808,-2.51341 -20.52012,-9.31623 -28,-19c-0.33,-0.66 -0.66,-1.32 -1,-2c-1.30711,0.14309 -1.30711,0.14309 -2.64063,0.28906c-13.14369,1.22333 -24.9006,0.38579 -35.58203,-8.04297c-7.64707,-7.07533 -12.13795,-16.43589 -13.11328,-26.82421c-0.11624,-10.92698 1.68366,-19.63137 8.33594,-28.42188c-0.4473,-0.53367 -0.89461,-1.06734 -1.35547,-1.61719c-10.50482,-12.94624 -14.23035,-25.83111 -12.64453,-42.38281c2.38591,-12.92965 8.4723,-22.69629 18.86328,-30.63672c2.13672,-1.36328 2.13672,-1.36328 4.13672,-1.36328c-0.27715,-0.66387 -0.5543,-1.32773 -0.83984,-2.01172c-0.36223,-0.88301 -0.72446,-1.76601 -1.09766,-2.67578c-0.35965,-0.87012 -0.7193,-1.74023 -1.08984,-2.63672c-3.81905,-10.50621 -3.26808,-23.70114 0.76953,-34.03515c5.94929,-12.48983 15.54258,-21.82097 28.45703,-26.89844c7.94851,-2.74219 7.94851,-2.74219 11.80078,-2.74219c0.09281,-1.85625 0.09281,-1.85625 0.1875,-3.75c1.58373,-13.45117 9.14085,-22.69773 19.25,-31.125c8.89343,-6.60387 18.07299,-8.29833 28.875,-8.1875c0.83596,0.00451 1.67191,0.00902 2.5332,0.01367c2.05147,0.01172 4.10289,0.02966 6.1543,0.04883c0.31711,-0.75023 0.63422,-1.50047 0.96094,-2.27344c5.91489,-12.97355 15.18206,-21.7603 28.35156,-27.03906c12.11234,-3.76112 26.22445,-3.16266 37.6875,2.3125c1.30324,0.84111 1.30324,0.84111 2.63281,1.69922c0.78117,0.42926 1.56235,0.85851 2.36719,1.30078c3.38017,-1.12672 3.88987,-1.89238 6,-4.625c15.88911,-18.67138 44.49246,-20.1069 64,-6.375zm-56,15c-5.53496,7.49476 -8.11771,14.47201 -8.55859,23.73047c-0.5281,2.71525 -1.20484,3.66972 -3.44141,5.26953c-3.125,-0.1875 -3.125,-0.1875 -6,-1c-1.34413,-2.68827 -1.1324,-4.81235 -1.125,-7.8125c-0.00258,-1.0377 -0.00516,-2.07539 -0.00781,-3.14453c0.12205,-2.7964 0.49918,-5.32237 1.13281,-8.04297c-9.47033,-6.82894 -17.25509,-9.07147 -29,-8c-9.25839,1.94784 -17.17009,6.9331 -22.88672,14.49609c-5.34214,8.49827 -7.13485,16.51248 -6.11328,26.50391c2.71708,10.78428 8.134,18.36462 17,25c5.21663,2.95339 5.21663,2.95339 11,4c0.36,6.36 0.36,6.36 -1.125,9c-3.01624,1.60866 -4.59566,0.95399 -7.875,0c-11.68624,-4.5211 -20.68544,-12.63178 -26,-24c-3.08576,-7.45927 -3.63617,-14.99566 -4,-23c-9.00984,-2.57125 -17.74386,-1.22351 -26,3c-8.62784,5.4111 -13.51007,12.00154 -17.375,21.3125c-1.8595,10.97106 -0.96579,20.56906 4.88281,30.16016c6.68959,9.31875 15.44912,14.00101 26.64453,15.89062c1.61468,0.22124 3.23102,0.43034 4.84766,0.63672c1,1 1,1 1.125,4.5c-0.125,3.5 -0.125,3.5 -1.125,4.5c-11.12215,1.20706 -20.11615,-1.37589 -29.25,-7.75c-9.77221,-7.98436 -15.17207,-17.21515 -18.75,-29.25c-10.40953,0.74354 -18.09412,5.10029 -25,13c-5.91239,9.64784 -8.51981,18.34481 -6.53906,29.625c2.74613,10.33836 8.51761,17.71275 17.53906,23.375c8.55224,4.89113 18.51576,5.57546 28,3c3.625,-0.1875 3.625,-0.1875 7,0c2,2 2,2 2,4.9375c-1,3.0625 -1,3.0625 -3.6875,4.875c-10.86354,3.89448 -23.74922,3.43873 -34.32031,-1.10547c-4.52368,-2.16181 -8.72668,-4.22783 -12.42969,-7.64453c-2.3305,-2.35981 -2.3305,-2.35981 -4.97656,-1.86719c-5.64758,1.75741 -9.38644,5.82447 -12.39844,10.79688c-5.31214,10.4455 -7.07528,19.67963 -3.625,31.19531c3.53832,9.4644 9.43159,16.2062 18.4375,20.8125c9.88216,4.16755 18.39914,3.7209 28.50391,0.66797c2.89613,-0.77502 5.51123,-0.90999 8.49609,-0.66797c0.8125,3.25 0.8125,3.25 1,7c-3.76916,4.35809 -8.87293,5.73619 -14.45117,6.20679c-2.76958,0.09793 -5.52758,0.12081 -8.29883,0.10571c-0.9734,-0.00129 -1.94681,-0.00258 -2.94971,-0.00391c-6.7733,-0.09068 -12.95821,-0.75962 -19.30029,-3.30859c-5.41804,7.129 -7.916,12.94508 -7,22c1.4574,8.3548 6.25395,14.32946 12.87891,19.45313c6.38772,3.78729 13.81286,3.58256 20.86718,1.88671c6.94689,-2.44251 11.76557,-6.21229 15.57032,-12.52343c2.94881,-6.25724 2.97406,-11.97683 2.6289,-18.8125c0.05469,-3.00391 0.05469,-3.00391 2.05469,-6.00391c3.125,-0.1875 3.125,-0.1875 6,0c4.196,8.04234 3.78382,14.89527 1.4375,23.5625c-2.34566,7.11264 -6.19647,12.19647 -11.4375,17.4375c0.45214,5.83937 3.89369,9.15084 8,13c5.70164,4.66262 12.16918,4.66129 19.30469,4.44141c8.26748,-0.98756 14.13979,-4.80866 19.28906,-11.26953c6.10647,-9.43111 4.49982,-19.54865 3.40625,-30.17188c2.70879,-1.3544 5.00933,-1.06501 8,-1c4.49058,8.2002 4.81027,15.94863 3,25c-0.97668,9.27845 2.77896,17.40156 8.3125,24.75c1.20557,1.4368 2.43497,2.85395 3.6875,4.25c0.92812,1.04994 0.92812,1.04994 1.875,2.12109c8.9045,9.49694 20.2814,15.52172 33.35937,16.26172c16.52061,0.52238 29.90118,-2.61696 43.05079,-13.22656c8.3298,-7.83227 13.32103,-17.35444 16.71484,-28.15625c0.33,-0.99 0.66,-1.98 1,-3c0.26779,-3.06046 0.44444,-6.12052 0.62109,-9.1875c0.37891,-2.8125 0.37891,-2.8125 2.37891,-5.8125c3.5625,-0.25 3.5625,-0.25 7,0c1.76596,1.76596 1.25653,4.16154 1.3125,6.5625c-0.0273,8.19033 -2.06649,15.62661 -4.3125,23.4375c10.79652,-1.54323 21.4811,-3.561 32.1875,-5.625c1.86649,-0.35792 3.73303,-0.71558 5.59961,-1.073c3.8555,-0.73848 7.71079,-1.47806 11.56592,-2.2185c8.54728,-1.64096 17.09714,-3.2684 25.64697,-4.896c1.70671,-0.32503 3.41341,-0.65006 5.12012,-0.9751c5.62651,-1.0714 11.25317,-2.14201 16.87988,-3.2124c1.09754,-0.20881 2.19507,-0.41762 3.32587,-0.63275c27.82038,-5.29226 55.64168,-10.57801 83.48834,-15.73053c1.58928,-0.29426 3.17855,-0.58853 4.76782,-0.88281c0.76102,-0.1407 1.52204,-0.28139 2.30612,-0.42635c4.24166,-0.7865 8.48008,-1.58809 12.7161,-2.40446c0.94135,-0.18108 1.8827,-0.36216 2.85258,-0.54873c1.8076,-0.34844 3.61484,-0.6987 5.42166,-1.05111c4.76101,-0.91767 9.49521,-1.68075 14.30901,-2.26076c8.36216,-1.25486 15.41478,-4.67259 21.21094,-10.89453c7.17422,-9.71144 9.66123,-19.26521 8.60156,-31.16797c-2.43835,-9.54831 -7.55121,-17.68456 -16.04297,-22.85156c-9.42504,-4.84454 -19.34987,-7.56244 -29.88672,-4.21875c-1.65456,0.72921 -3.30129,1.47659 -4.9375,2.24609c-2.95343,1.14135 -5.15943,0.76318 -8.13281,-0.17578c-0.33,-2.31 -0.66,-4.62 -1,-7c1.86968,-0.98929 3.74601,-1.966 5.625,-2.9375c1.04414,-0.54527 2.08828,-1.09055 3.16406,-1.65234c9.52521,-4.18322 21.53628,-3.65043 31.125,0.03125c2.49282,0.66755 3.73217,0.61528 6.08594,-0.44141c4.06313,-6.2463 3.73806,-14.89931 3,-22c-1.96606,-9.26151 -6.92371,-17.16299 -14.49609,-22.88672c-9.3303,-5.86516 -19.20472,-7.96722 -30.10938,-5.53125c-5.96428,2.1308 -10.94445,5.67261 -15.92969,9.50757c-3.93767,2.93685 -3.93767,2.93685 -6.72265,2.79712c-1.74219,-0.88672 -1.74219,-0.88672 -3.74219,-2.88672c-0.15241,-3.27684 0.36661,-5.25309 2.50391,-7.77344c7.23647,-6.69556 16.44363,-11.41957 26.24609,-12.72656c3.3284,-0.18416 3.3284,-0.18416 5.25,-2.5c1.26239,-8.52523 -0.72757,-17.17332 -5.6875,-24.1875c-6.20031,-7.52243 -12.57789,-12.80132 -22.3125,-14.8125c-8.90154,-0.8549 -17.23794,-1.00879 -25,4c-0.6948,0.4357 -1.38961,0.87141 -2.10547,1.32031c-6.87364,4.71999 -12.67759,11.50099 -14.89453,19.67969c-0.53779,3.39783 -0.99725,6.78764 -1.375,10.20703c-0.625,2.79297 -0.625,2.79297 -3.625,4.79297c-4.54054,-0.54054 -4.54054,-0.54054 -6,-2c-1.25278,-13.43145 2.62328,-24.48929 11,-35c5.10265,-4.88936 10.74912,-8.73867 17,-12c-1.97426,-10.85845 -8.12357,-18.58523 -17,-25c-7.98917,-4.94966 -16.92249,-4.91995 -26,-4c-9.61443,2.43438 -17.76262,9.57748 -23.12109,17.69922c-3.00372,5.24825 -3.66662,10.47958 -4.28907,16.44531c-0.62604,3.03072 -1.09675,4.08599 -3.58984,5.85547c-2.5625,0.375 -2.5625,0.375 -5,0c-3.16318,-4.74477 -2.62533,-9.45017 -2,-15c2.08048,-7.46744 5.61854,-13.40666 10.64453,-19.25781c1.56016,-1.63738 1.56016,-1.63738 1.35547,-3.74219c1.98,-0.99 1.98,-0.99 4,-2c-1.67465,-7.44287 -6.76052,-12.75986 -13,-16.875c-8.63767,-5.32408 -20.27099,-5.67717 -29.98047,-3.4375c-10.5346,3.91985 -17.50801,10.89489 -22.83203,20.625c-1.08044,3.35505 -1.41281,5.89689 -1.625,9.375c-0.24729,3.52512 -0.38309,5.03057 -2.3125,8.0625c-2.25,1.25 -2.25,1.25 -4.875,1.3125c-2.375,-1.0625 -2.375,-1.0625 -3.75,-3c-1.66416,-8.15437 0.82584,-14.91331 4.21875,-22.30078c1.13158,-2.7028 1.96777,-4.83564 2.15625,-7.76172c-3.96101,-7.6093 -10.58286,-12.98312 -18.5625,-15.8125c-14.39376,-3.80625 -28.90958,-0.98169 -39.4375,9.8125z"/>
  <path id="svg_3" fill="#8bbe00" d="m458,303c0.67467,19.34788 -9.10128,38.995 -22,53c-0.80953,0.90105 -1.61906,1.80211 -2.45313,2.73047c-6.76502,7.17053 -13.98911,12.4526 -22.54687,17.26953c-1.00418,0.5659 -2.00836,1.1318 -3.04297,1.71484c-22.56651,11.47302 -46.50277,11.78211 -70.19141,4.25782c-21.58933,-8.19812 -40.46911,-24.93047 -51.76562,-44.97266c0,-0.66 0,-1.32 0,-2c23.70226,-5.10334 47.52712,-9.54303 71.3567,-14.00436c8.2318,-1.54152 16.46157,-3.09345 24.69017,-4.65189c39.22157,-7.42712 39.22157,-7.42712 56.38367,-10.57703c1.40085,-0.25739 2.80149,-0.5159 4.20191,-0.77563c1.87316,-0.34694 3.74728,-0.68871 5.62146,-1.03015c1.02424,-0.18772 2.04848,-0.37544 3.10376,-0.56885c2.64233,-0.39209 2.64233,-0.39209 6.64233,-0.39209z"/>
  <path id="svg_4" fill="#8bbe00" d="m274,338c1.67939,2.29844 2.94769,4.37525 4.25,6.875c3.3363,5.99331 6.92149,11.00797 11.70703,15.97656c2.04297,2.14844 2.04297,2.14844 3.91016,4.59375c14.13098,16.92612 36.57405,25.75156 57.13281,31.55469c1.75109,13.7405 2.94486,27.50779 4.0625,41.3125c0.17485,2.13349 0.34998,4.26695 0.52539,6.40039c0.33043,4.02348 0.65943,8.04707 0.98682,12.0708c0.46722,5.73944 0.943,11.47812 1.42529,17.21631c-7.2284,2.57282 -14.50653,4.36696 -22,6c-0.08975,-0.57218 -0.1795,-1.14437 -0.27197,-1.73389c-4.13562,-25.79739 -10.88543,-47.53306 -29.72803,-66.26611c-0.76312,-0.79922 -1.52625,-1.59844 -2.3125,-2.42187c-4.6244,-4.78956 -9.55098,-9.03592 -14.73828,-13.20313c-5.40615,-4.35356 -10.69009,-8.84564 -15.94922,-13.375c-0.5174,-0.4407 -1.03479,-0.8814 -1.56787,-1.33545c-12.06652,-10.33452 -21.92074,-22.6318 -29.43213,-36.66455c0,-0.66 0,-1.32 0,-2c4.39446,-0.8407 8.79077,-1.67127 13.1875,-2.5c1.24588,-0.23848 2.49176,-0.47695 3.77539,-0.72266c1.20205,-0.22558 2.4041,-0.45117 3.64258,-0.68359c1.65745,-0.31421 1.65745,-0.31421 3.34839,-0.63477c2.79393,-0.42098 5.23725,-0.77514 8.04614,-0.45898z"/>
  <path id="svg_5" fill="#040101" d="m241,64c2.01363,3.02045 2.25468,3.60811 2.26563,6.99219c0.0064,1.17127 0.0064,1.17127 0.01293,2.36621c-0.00942,0.83048 -0.01885,1.66096 -0.02856,2.5166c-0.01124,1.28439 -0.01124,1.28439 -0.02271,2.59473c-0.39267,23.36729 -8.80557,40.71385 -23.01464,58.79956c-6.20094,7.90745 -6.20094,7.90745 -8.08765,17.41821c0.75212,3.20072 0.75212,3.20072 1.90625,5.64063c3.29743,9.09452 0.81262,19.17 -3.03125,27.67187c-2.77628,5.45921 -5.88411,10.72993 -9,16c-10.7597,16.83371 -10.7597,16.83371 -11.48047,36.05469c2.42529,5.94971 7.32432,9.54838 12.21484,13.45312c2.26563,2.49219 2.26563,2.49219 2.69532,5.67578c-0.42969,2.81641 -0.42969,2.81641 -2.05469,4.75391c-3.23774,1.44846 -4.96239,0.93882 -8.375,0.0625c-8.18424,-5.47695 -14.58417,-13.49972 -17.375,-23c-3.43914,-17.91217 6.34945,-32.71235 15.5625,-47.25c6.03588,-9.59434 10.43471,-16.9552 8.8125,-28.75c-4.3487,-9.60338 -14.64892,-15.15639 -24,-19c-4.31232,-1.19945 -8.61761,-1.14944 -13.0625,-1.125c-1.06058,-0.0058 -1.06058,-0.0058 -2.14258,-0.01172c-3.43768,0.00646 -6.4913,0.20825 -9.79492,1.13672c-1.5388,0.11292 -3.08212,0.1746 -4.625,0.1875c-0.77602,0.01418 -1.55203,0.02836 -2.35156,0.04297c-2.02344,-0.23047 -2.02344,-0.23047 -4.02344,-2.23047c-0.4375,-3.4375 -0.4375,-3.4375 0,-7c5.18309,-5.01032 14.4219,-5.12931 21.25,-5.3125c13.13576,0.27719 23.42626,4.11283 34.75,10.3125c1.32985,0.67359 2.66148,1.3438 4,2c0.41959,-1.11762 0.41959,-1.11762 0.84766,-2.25781c1.02899,-2.44867 2.10777,-4.42707 3.58984,-6.61719c0.52465,-0.77602 1.0493,-1.55203 1.58984,-2.35156c1.50144,-2.11094 3.02966,-4.17696 4.60157,-6.23438c12.50705,-16.43311 17.65169,-31.92582 17.90551,-52.51953c0.02937,-1.29937 0.02937,-1.29937 0.05933,-2.625c0.00709,-0.77497 0.01418,-1.54994 0.02148,-2.34839c1.07137,-5.69743 5.38364,-5.59172 10.38477,-5.04614z"/>
  <path id="svg_6" fill="#020101" d="m358,140.07031c3,0.92969 3,0.92969 4.6875,2.98438c4.36039,9.36964 7.49655,19.01216 10.3125,28.94531c0.40605,1.40765 0.40605,1.40765 0.82031,2.84375c2.74698,11.29743 2.76026,24.25824 -3.10937,34.3789c-6.35371,10.17613 -12.95356,15.71237 -24.71094,18.77735c-5.30326,1.18844 -10.63152,2.23886 -15.97803,3.21338c-14.06681,2.33447 -14.06681,2.33447 -25.02197,10.78662c-2.54879,5.80994 -3.43136,10.46568 -3.40625,16.76953c-0.01084,0.80282 -0.02167,1.60564 -0.03284,2.43278c-0.04554,3.40085 -0.05741,6.80162 -0.07214,10.20272c-0.01566,2.49678 -0.04862,4.99291 -0.08252,7.4895c0.00302,0.76875 0.00604,1.5375 0.00916,2.32954c-0.0742,5.24468 -0.0742,5.24468 -1.71424,7.79814c-2.91426,1.67503 -5.55719,0.67645 -8.70117,-0.02221c-2.16618,-2.16618 -1.21377,-7.17766 -1.23828,-10.1875c-0.00807,-0.93167 -0.01614,-1.86334 -0.02446,-2.82324c-0.01387,-1.98062 -0.02458,-3.96125 -0.03243,-5.9419c-0.0171,-3.00715 -0.06095,-6.01317 -0.10522,-9.02002c-0.01014,-1.92577 -0.01865,-3.85155 -0.02539,-5.77734c-0.01751,-0.89099 -0.03502,-1.78197 -0.05306,-2.69995c0.03005,-8.80195 3.10791,-16.21257 9.2452,-22.56617c8.47745,-7.52953 19.63939,-9.55283 30.42114,-11.60888c15.86892,-2.20075 15.86892,-2.20075 28.1875,-11.125c5.40674,-8.12513 6.65938,-15.23238 5.00391,-24.86328c-1.93279,-9.48948 -5.05704,-18.3403 -8.82422,-27.25489c-3.35572,-8.20391 -3.35572,-8.20391 -1.55469,-13.13183c3,-2 3,-2 6,-1.92969z"/>
  <path id="svg_7" fill="#030101" d="m334.875,144.1875c1.125,1.8125 1.125,1.8125 1.25,4.8125c-1.125,3 -1.125,3 -4.10156,4.51953c-3.59466,1.41275 -7.2666,2.4527 -10.98926,3.46997c-21.75281,5.99145 -32.9181,15.08929 -44.56934,34.45777c-4.06146,6.3989 -8.36061,10.64578 -15.46484,13.55273c-4.65753,0.73397 -8.41552,0.55112 -12.875,-1c-4.64255,-4.36946 -6.96975,-10.56156 -7.25439,-16.86572c-0.00113,-1.08845 -0.00226,-2.17691 -0.00342,-3.29834c-0.00129,-1.20528 -0.00258,-2.41055 -0.00391,-3.65235c0.00387,-1.25683 0.00774,-2.51367 0.01172,-3.80859c-0.00387,-1.23363 -0.00773,-2.46727 -0.01172,-3.73828c0.02162,-20.34702 0.02162,-20.34702 4.13672,-24.63672c3.5625,-0.375 3.5625,-0.375 7,0c2,2 2,2 2.13525,4.00854c-0.05236,0.81574 -0.10473,1.63147 -0.15869,2.47193c-0.05172,0.91008 -0.10344,1.82016 -0.15674,2.75781c-0.06429,0.97324 -0.12858,1.94649 -0.19482,2.94922c-0.11186,2.00377 -0.22123,4.00768 -0.32813,6.01172c-0.05349,0.98661 -0.10699,1.97323 -0.1621,2.98974c-0.38293,7.98724 -0.63074,15.92751 0.86523,23.81104c4.02242,-0.419 6.11362,-1.03869 8.89453,-4.05469c2.56754,-3.52448 4.95197,-7.14728 7.30615,-10.81689c9.8033,-15.27045 9.8033,-15.27045 16.79932,-20.12842c0.67676,-0.49371 1.35352,-0.98742 2.05078,-1.49609c9.7003,-6.45012 34.86632,-19.25641 45.82422,-12.31641z"/>
  <path id="svg_8" fill="#030101" d="m430,199c2.32441,3.48662 2.52065,4.89793 2,9c-1.98433,2.19616 -4.16409,3.73276 -6.54297,5.48438c-6.87805,7.04207 -8.65304,16.31259 -10.33203,25.70312c-0.2243,1.13631 -0.44859,2.27262 -0.67969,3.44336c-2.00867,9.83951 -2.00867,9.83951 1.30469,18.95898c0.7425,0.77473 1.485,1.54946 2.25,2.34766c0.80438,0.84949 1.60875,1.69898 2.4375,2.57422c2.43814,2.36752 4.95885,4.55606 7.5625,6.73828c2.78417,2.41847 3.90569,3.51646 5.3125,7c-0.3125,2.75 -0.3125,2.75 -1.875,5.1875c-2.4375,1.5625 -2.4375,1.5625 -5.28516,1.41016c-8.39592,-2.25764 -16.02254,-12.07002 -21.15234,-18.84766c0,-0.66 0,-1.32 0,-2c-0.65484,0.4473 -1.30969,0.89461 -1.98438,1.35547c-9.82617,6.50914 -23.80706,14.83859 -36.14062,13.45703c-0.94875,-0.26812 -1.8975,-0.53625 -2.875,-0.8125c-1.41442,-2.82884 -1.319,-4.87377 -1,-8c3.2684,-3.27672 7.41985,-4.20974 11.75,-5.4375c10.3962,-3.11115 19.7971,-6.56217 25.35791,-16.62915c1.4202,-3.07789 1.9197,-6.16205 2.45459,-9.49585c0.24382,-1.41032 0.48863,-2.82048 0.73437,-4.23047c0.23526,-1.4022 0.46966,-2.80454 0.70313,-4.20703c2.17017,-12.87544 5.88966,-22.38296 16,-31c3.67997,-2.45331 5.65413,-2.39508 10,-2z"/>
  <path id="svg_9" fill="#040102" d="m164.125,257.5c2.875,0.5 2.875,0.5 4.8125,1.5625c1.77256,3.23232 1.03159,5.48511 0.0625,8.9375c-1.63261,1.37483 -3.30225,2.70648 -5,4c-4.27979,6.64105 -3.70677,14.35113 -3,22c1.64705,7.34976 4.14114,12.89808 10.65642,17.05746c5.59475,3.10204 10.32218,3.51659 16.64436,3.4816c0.95819,0.0118 1.91638,0.02359 2.90361,0.03574c3.03621,0.03508 6.07172,0.04441 9.10811,0.0502c3.05404,0.01635 6.10777,0.03834 9.16167,0.07162c1.89413,0.01963 3.78841,0.02897 5.68264,0.02692c0.85487,0.00696 1.70973,0.01392 2.5905,0.02109c0.75087,0.00126 1.50173,0.00252 2.27535,0.00381c1.97734,0.25156 1.97734,0.25156 4.97734,2.25156c0.4375,3.4375 0.4375,3.4375 0,7c-1.76166,2.0528 -3.22019,2.88461 -5.90381,3.28171c-2.42261,0.13379 -4.82611,0.16016 -7.25244,0.15188c-0.89811,0.00525 -1.79623,0.01049 -2.72156,0.01589c-1.90302,0.00642 -3.80609,0.00508 -5.7091,-0.00344c-2.87542,-0.00843 -5.74881,0.02013 -8.62403,0.05201c-14.78556,0.05716 -26.38867,-1.60047 -37.46875,-12.08789c-8.22264,-8.6931 -9.79757,-19.8043 -9.60547,-31.28125c0.43082,-9.43678 4.76328,-16.86559 10.66016,-24.00391c2.625,-2.125 2.625,-2.125 5.75,-2.625z"/>
  <path id="svg_10" fill="#030101" d="m124.37109,207.46875c1.04415,-0.00383 2.08829,-0.00765 3.16408,-0.0116c2.18742,-0.0027 4.37488,0.00455 6.56224,0.02137c3.35562,0.02158 6.70914,0.00006 10.0647,-0.02539c2.13216,0.00264 4.26433,0.00775 6.39648,0.01562c1.50463,-0.01215 1.50463,-0.01215 3.03966,-0.02454c0.92849,0.01261 1.85698,0.02522 2.81361,0.03821c1.22384,0.00478 1.22384,0.00478 2.4724,0.00965c2.11574,0.50793 2.11574,0.50793 3.91421,2.37622c1.20153,2.13171 1.20153,2.13171 1.01403,4.75671c-0.8125,2.375 -0.8125,2.375 -2.8125,4.375c-1.89505,0.25156 -1.89505,0.25156 -4.23096,0.25537c-1.31244,0.01044 -1.31244,0.01044 -2.6514,0.02109c-1.42335,-0.0015 -1.42335,-0.0015 -2.87546,-0.00302c-2.00781,0.0203 -4.01563,0.04115 -6.02343,0.0625c-3.16639,0.02253 -6.33256,0.03904 -9.49903,0.04492c-3.05541,0.00957 -6.10984,0.04342 -9.16504,0.08008c-0.93675,-0.00505 -1.87351,-0.01009 -2.83865,-0.01529c-7.00722,0.10397 -12.25655,1.69976 -17.70432,6.19498c-7.01598,8.5268 -7.92701,16.38841 -7.01171,27.35937c1.16444,6.38189 2.92144,8.99062 8,13c1.63822,5.83618 1.63822,5.83618 -0.0625,8.9375c-2.91679,1.59953 -4.64979,1.57822 -7.9375,1.0625c-7.9558,-5.09171 -10.42752,-12.8788 -12.45704,-21.79297c-1.96437,-11.60254 -0.6518,-22.80309 6.26954,-32.58203c8.65744,-10.40621 18.0662,-14.26672 31.55859,-14.15625z"/>
 </g>
</svg>