<?xml version="1.0" encoding="UTF-8"?>
<svg id="Capa_1" data-name="Capa 1" xmlns="http://www.w3.org/2000/svg" viewBox="0 0 150 150">
  <defs>
    <style>
      .cls-1 {
        fill: #96bd0b;
        stroke-width: 0px;
      }
    </style>
  </defs>
  <path class="cls-1" d="M60.01,126.07c24.08-5.52,37.06-24.32,37.06-24.32l4.53-5.91h27.5c3.32,0,6.02,2.69,6.02,6.02v26.21c0,3.33-2.7,6.02-6.02,6.02H20.77c-3.32,0-6.02-2.69-6.02-6.02v-26.21c0-3.33,2.7-6.02,6.02-6.02h13.87l-6,7.84c-3.39,4.43-3.63,10.15-1.76,15.37,5.36,14.93,33.14,7.01,33.14,7.01ZM87.52,94.43l8.92-11.64c1-1.3.77-3.16-.52-4.18l-11.08-8.85,7.98-10.43,10.99,8.78s2.29,2.05,4.26-.53l21.04-27.51s8.63-10.71-2.71-20.41c-6.1-5.21-15.52-3.64-20.4,2.72L38.19,111.01c-.68.88-.81,2.06-.35,3.07.46,1.01,1.43,1.69,2.54,1.76,0,0,27.63,3.37,47.14-21.41Z"/>
</svg>