<?xml version="1.0" encoding="UTF-8"?>
<svg id="Capa_1" data-name="Capa 1" xmlns="http://www.w3.org/2000/svg" viewBox="0 0 150 150">
  <defs>
    <style>
      .cls-1 {
        fill: #96bd0b;
      }

      .cls-1, .cls-2 {
        stroke-width: 0px;
      }

      .cls-2 {
        fill: #fff;
      }
    </style>
  </defs>
  <g id="azTxgO">
    <g>
      <path class="cls-1" d="M139.34,46.88v52.2c-.4.02-.75.05-1.1.05-4.92,0-9.83.01-14.75-.01-.61,0-.97.16-1.3.71-2.7,4.38-9.03,4.42-11.79.07-.35-.56-.69-.78-1.36-.78-25.35.02-50.69.02-76.04,0-.62,0-.97.19-1.3.72-2.72,4.36-9.05,4.39-11.8.05-.38-.61-.78-.8-1.45-.77-.94.05-1.89-.08-2.82.03-1.28.15-2.09-.44-3.01-1.24-1.51-1.3-2.04-2.75-1.95-4.74.16-3.7.13-7.41.01-11.11-.08-2.41,1-3.88,3.06-4.86,2.56-1.22,5.31-1.71,8.09-1.95,1.32-.11,2.19-.52,2.89-1.71,1.2-2.04,2.6-3.95,3.91-5.92.11-.17.18-.36.35-.69-1.64,0-3.14-.04-4.65.02-.76.03-1.11-.22-1.33-.96-.69-2.23-1.49-4.42-2.19-6.65-.12-.37-.05-.91.14-1.24,1.35-2.34,2.77-4.63,4.15-6.95,1.69-2.87,4.19-4.27,7.51-4.27,35.12,0,70.24,0,105.36,0h1.37ZM127.26,85.05v-6.07h-9.89v-3.94h9.91v-14.19h-9.98c0-1.09.05-2.06-.01-3.03-.05-.75.26-.91.95-.9,2.7.03,5.4.01,8.1.01.32,0,.64-.03.94-.04v-6.03c-.34-.01-.6-.04-.87-.04-7.8,0-15.6,0-23.4,0-3.04,0-6.07-.01-9.1.02-.26,0-.73.29-.74.46-.05,1.84-.03,3.68-.03,5.65h12.02c0,1.07-.04,2.01.01,2.95.05.75-.2.99-.96.99-3.37-.04-6.74-.02-10.11-.02-.29,0-.58,0-.91,0v14.2h11.9v3.96h-11.89v6.05h15.98v4h-16v5.92c.21.04.39.09.56.09,4.98,0,9.95,0,14.93.02.55,0,.7-.25.83-.73.57-2.19,1.91-3.78,3.98-4.68,4.01-1.73,8.37.41,9.58,4.64.08.28.38.7.6.71,1.06.07,2.12.05,3.18,0,.18,0,.48-.3.49-.46.04-1.81.02-3.62.02-5.54h-3.93v-4.02h3.84ZM50.93,50.82c-1.14,0-2.14.05-3.13-.02-.77-.05-.96.23-.96.97.02,10.75.01,21.49.01,32.24,0,.32.03.64.05.99h42.19v-34.13h-4.06v7.96h-34.1v-8.01ZM14.75,87.09c2.31,0,4.46.01,6.61,0,1.65-.01,3.09.49,4.34,1.58.28.24.66.43,1.02.5,3.01.54,4.99,2.25,5.83,5.18.19.67.51.77,1.08.76,2.79-.02,5.59,0,8.38-.01.27,0,.54-.03.86-.05v-15.95h-16.12v3.86h-3.95v-3.86c-2.58.29-5.03.63-7.31,1.71-.29.14-.69.46-.69.71-.06,1.81-.03,3.63-.03,5.57ZM89.18,95.03c0-1.7-.04-3.31.02-4.91.03-.81-.18-1.08-1.04-1.08-13.41.03-26.82.02-40.23.03-.21,0-.45-.05-.63.02-.18.08-.42.28-.42.44-.03,1.81-.02,3.62-.02,5.5h42.32ZM42.87,50.82c-.4,0-.7,0-1,0-3.06,0-6.13,0-9.19,0-1.78,0-3.16.69-4.09,2.24-.68,1.15-1.24,2.39-2.08,3.41-1.51,1.83-1.64,3.66-.59,5.73.27.53.45.78,1.09.78,5-.03,10.01-.02,15.01-.02.26,0,.52-.03.83-.06v-12.08ZM55,54.87h26.02v-3.99h-26.02v3.99ZM42.88,66.94c-2.94,0-5.79-.01-8.63.02-.25,0-.56.31-.73.55-1.28,1.88-2.54,3.77-3.8,5.66-.38.57-.73,1.14-1.16,1.8h14.32v-8.04ZM135.29,60.95h-3.91v14.06h3.91v-14.06ZM116.31,93.08c-1.62-.02-3.06,1.37-3.06,2.98,0,1.64,1.33,3.07,2.95,3.13,1.59.06,3.13-1.44,3.13-3.05,0-1.61-1.4-3.03-3.02-3.05ZM28.84,96.14c0-1.61-1.41-3.05-3-3.07-1.65-.02-3.1,1.42-3.08,3.07.02,1.61,1.45,3.06,3.03,3.05,1.56-.01,3.06-1.5,3.06-3.05ZM135.32,50.9h-3.94v5.95h3.94v-5.95ZM131.32,84.98h3.97v-5.96c-1.2,0-2.32-.02-3.44.02-.18,0-.5.28-.5.44-.04,1.81-.02,3.63-.02,5.5ZM131.31,89.07c0,1.91,0,3.66,0,5.41,0,.49.22.63.67.62.91-.02,1.82-.02,2.73,0,.44,0,.68-.12.67-.61-.02-1.61.01-3.21-.03-4.82,0-.2-.29-.57-.45-.58-1.14-.05-2.29-.03-3.58-.03ZM20.51,91.12h-5.75c0,.99-.11,1.92.05,2.8.08.44.61,1.03,1.03,1.12.81.18,1.69.08,2.53.04.2-.01.47-.23.56-.43.55-1.16,1.05-2.34,1.58-3.53Z"/>
      <path class="cls-2" d="M127.26,85.05h-3.84v4.02h3.93c0,1.92.01,3.73-.02,5.54,0,.16-.31.46-.49.46-1.06.04-2.13.06-3.18,0-.22-.02-.52-.43-.6-.71-1.21-4.23-5.57-6.37-9.58-4.64-2.07.89-3.41,2.49-3.98,4.68-.12.48-.28.73-.83.73-4.98-.02-9.95-.01-14.93-.02-.17,0-.35-.05-.56-.09v-5.92h16v-4h-15.98v-6.05h11.89v-3.96h-11.9v-14.2c.32,0,.61,0,.91,0,3.37,0,6.74-.02,10.11.02.76,0,1.01-.24.96-.99-.06-.94-.01-1.88-.01-2.95h-12.02c0-1.97-.02-3.81.03-5.65,0-.17.48-.46.74-.46,3.03-.03,6.07-.02,9.1-.02,7.8,0,15.6,0,23.4,0,.27,0,.54.02.87.04v6.03c-.3.01-.62.04-.94.04-2.7,0-5.4.02-8.1-.01-.69,0-.99.15-.95.9.06.96.01,1.93.01,3.03h9.98v14.19h-9.91v3.94h9.89v6.07ZM116.34,73.17c.67-1.16,1.31-2.27,1.96-3.41-1.04-.62-1.96-1.17-3.01-1.8,1.1-.65,2.04-1.21,3.02-1.79-.68-1.18-1.31-2.27-1.97-3.42-1,.56-1.96,1.1-3.11,1.75v-3.49h-4.02v3.46c-1.09-.61-2.03-1.15-3.05-1.72-.66,1.15-1.31,2.26-1.98,3.42,1.04.61,1.98,1.17,3.05,1.8-1.1.65-2.06,1.21-3.06,1.8.68,1.17,1.31,2.26,1.98,3.41,1.03-.57,2-1.11,3.11-1.73v3.43h4v-3.4c1.11.61,2.06,1.14,3.07,1.7Z"/>
      <path class="cls-2" d="M50.93,50.82v8.01h34.1v-7.96h4.06v34.13h-42.19c-.02-.34-.05-.66-.05-.99,0-10.75,0-21.49-.01-32.24,0-.75.19-1.02.96-.97.99.06,1.99.02,3.13.02ZM67.93,79.02h0c2.94,0,5.89.01,8.83,0,2.66-.02,4.3-1.71,4.3-4.35,0-2.55.01-5.1,0-7.65-.02-2.31-1.74-4.05-4.03-4.05-5.98-.01-11.96-.02-17.93,0-2.38,0-4.07,1.7-4.09,4.07-.02,2.52-.01,5.04,0,7.56,0,2.84,1.61,4.43,4.47,4.43,2.82,0,5.64,0,8.47,0Z"/>
      <path class="cls-2" d="M14.75,87.09c0-1.94-.03-3.76.03-5.57,0-.25.4-.58.69-.71,2.28-1.08,4.73-1.42,7.31-1.71v3.86h3.95v-3.86h16.12v15.95c-.32.02-.59.05-.86.05-2.79,0-5.59,0-8.38.01-.57,0-.89-.1-1.08-.76-.84-2.93-2.82-4.64-5.83-5.18-.36-.07-.74-.26-1.02-.5-1.25-1.09-2.69-1.59-4.34-1.58-2.15.01-4.31,0-6.61,0Z"/>
      <path class="cls-2" d="M89.18,95.03h-42.32c0-1.88-.01-3.69.02-5.5,0-.15.25-.36.42-.44.18-.08.42-.02.63-.02,13.41,0,26.82,0,40.23-.03.87,0,1.07.27,1.04,1.08-.06,1.6-.02,3.21-.02,4.91Z"/>
      <path class="cls-2" d="M42.87,50.82v12.08c-.31.02-.57.06-.83.06-5,0-10.01-.01-15.01.02-.64,0-.82-.25-1.09-.78-1.06-2.07-.92-3.9.59-5.73.84-1.02,1.4-2.26,2.08-3.41.92-1.55,2.3-2.25,4.09-2.24,3.06.01,6.13,0,9.19,0,.3,0,.6,0,1,0ZM38.79,55h-7.92v3.82h7.92v-3.82Z"/>
      <path class="cls-2" d="M55,54.87v-3.99h26.02v3.99h-26.02Z"/>
      <path class="cls-2" d="M42.88,66.94v8.04h-14.32c.42-.66.78-1.24,1.16-1.8,1.26-1.89,2.52-3.79,3.8-5.66.17-.24.48-.55.73-.55,2.85-.04,5.69-.02,8.63-.02Z"/>
      <path class="cls-2" d="M135.29,60.95v14.06h-3.91v-14.06h3.91Z"/>
      <path class="cls-2" d="M116.31,93.08c1.61.02,3.02,1.45,3.02,3.05,0,1.61-1.54,3.11-3.13,3.05-1.61-.06-2.95-1.48-2.95-3.13,0-1.61,1.44-3,3.06-2.98Z"/>
      <path class="cls-2" d="M28.84,96.14c0,1.55-1.49,3.04-3.06,3.05-1.57.01-3.01-1.44-3.03-3.05-.02-1.65,1.43-3.1,3.08-3.07,1.6.02,3,1.47,3,3.07Z"/>
      <path class="cls-2" d="M135.32,50.9v5.95h-3.94v-5.95h3.94Z"/>
      <path class="cls-2" d="M131.32,84.98c0-1.87-.01-3.69.02-5.5,0-.16.32-.43.5-.44,1.12-.04,2.24-.02,3.44-.02v5.96h-3.97Z"/>
      <path class="cls-2" d="M131.31,89.07c1.29,0,2.43-.02,3.58.03.17,0,.45.37.45.58.04,1.6.01,3.21.03,4.82,0,.49-.24.62-.67.61-.91-.01-1.82-.01-2.73,0-.44,0-.67-.13-.67-.62.01-1.75,0-3.51,0-5.41Z"/>
      <path class="cls-2" d="M20.51,91.12c-.52,1.19-1.03,2.37-1.58,3.53-.09.19-.36.42-.56.43-.85.05-1.73.14-2.53-.04-.42-.09-.95-.68-1.03-1.12-.16-.88-.05-1.81-.05-2.8h5.75Z"/>
      <path class="cls-1" d="M116.34,73.17c-1.01-.56-1.96-1.08-3.07-1.7v3.4h-4v-3.43c-1.12.62-2.08,1.15-3.11,1.73-.67-1.15-1.3-2.24-1.98-3.41,1-.59,1.95-1.15,3.06-1.8-1.07-.63-2.02-1.19-3.05-1.8.68-1.17,1.32-2.28,1.98-3.42,1.02.58,1.96,1.11,3.05,1.72v-3.46h4.02v3.49c1.14-.64,2.1-1.18,3.11-1.75.66,1.15,1.3,2.25,1.97,3.42-.98.58-1.92,1.14-3.02,1.79,1.05.63,1.97,1.18,3.01,1.8-.65,1.14-1.29,2.25-1.96,3.41Z"/>
      <path class="cls-1" d="M67.93,79.02c-2.82,0-5.64,0-8.47,0-2.86,0-4.47-1.59-4.47-4.43,0-2.52,0-5.04,0-7.56.01-2.37,1.71-4.07,4.09-4.07,5.98-.01,11.96-.01,17.93,0,2.29,0,4.01,1.74,4.03,4.05.02,2.55,0,5.1,0,7.65,0,2.64-1.64,4.33-4.3,4.35-2.94.02-5.89,0-8.83,0h0ZM76.95,75.02v-8.02h-6.92v8.02h6.92ZM59.01,75.06c2.12,0,4.11-.03,6.11.02.75.02.91-.27.9-.95-.04-2.09-.01-4.18-.02-6.27,0-.29-.04-.58-.06-.86h-6.93v8.06Z"/>
      <path class="cls-1" d="M38.79,55v3.82h-7.92v-3.82h7.92Z"/>
    </g>
  </g>
</svg>