<svg width="1024" height="1024" xmlns="http://www.w3.org/2000/svg" version="1.1">
 <g>
  <title>Layer 1</title>
  <path d="m530.32281,193.75977c2.20571,-0.00969 4.41048,-0.04073 6.61597,-0.07227c1.41731,-0.00653 2.83463,-0.01178 4.25195,-0.01562c1.27851,-0.00935 2.55702,-0.01869 3.87427,-0.02832c5.52193,0.5365 9.31655,2.12449 13.4812,5.91894c3.03065,3.93785 3.54997,8.62272 4.1875,13.4375c0.495,-0.9075 0.99,-1.815 1.5,-2.75c2.72437,-4.01035 5.90421,-5.85844 10.5,-7.25c8.14872,-0.48192 15.82098,2.77152 23.29712,5.61036c2.02453,0.76812 4.05523,1.51767 6.08764,2.26464c15.7487,5.86074 15.7487,5.86074 18.61524,12.125c2.27275,12.0509 -2.27269,24.71196 -5.33569,36.2461c-2.07288,8.59318 -2.98984,15.87527 1.33569,23.7539c1.61548,2.12895 1.61548,2.12895 4,3c6.68553,-0.37278 12.50125,-2.93408 18.66406,-5.40234c1.11024,-0.43776 2.22047,-0.87552 3.36435,-1.32655c3.53505,-1.39577 7.06582,-2.80203 10.59659,-4.20861c2.38254,-0.94275 4.76535,-1.88481 7.14844,-2.82617c10.47054,-4.11285 10.47054,-4.11285 20.89364,-8.34327c4.0664,-1.55664 8.05228,-1.42986 12.33292,-0.89306c9.63658,4.36374 13.65817,17.03397 18.125,26.0625c0.66595,1.33878 1.33205,2.67749 1.99829,4.01612c4.46715,8.99316 8.84717,18.02633 13.14233,27.10303c1.9997,4.22123 4.02268,8.42264 6.15235,12.58007c0.37455,0.73235 0.7491,1.4647 1.13501,2.21924c0.68447,1.32904 1.37571,2.65464 2.07568,3.97559c2.62088,5.08432 4.18099,9.78801 2.55884,15.41845c-3.8375,10.11552 -16.87732,15.85309 -25.54297,21.55469c-4.2294,2.78583 -8.41499,5.62975 -12.58203,8.50781c-0.63245,0.43651 -1.26489,0.87302 -1.91651,1.32276c-1.32201,0.91249 -2.64394,1.82509 -3.96582,2.73779c-4.21957,2.90692 -8.4505,5.79726 -12.68017,8.68945c-0.84426,0.57742 -1.68851,1.15484 -2.55835,1.74976c-1.98044,1.35441 -3.96099,2.70866 -5.94165,4.06274c1.35118,3.85945 3.23181,7.11867 5.37646,10.56836c12.71439,20.55138 18.87375,42.78922 18.68604,66.93164c-0.00451,1.1086 -0.00902,2.21719 -0.01367,3.35938c-0.0117,2.7136 -0.02809,5.42708 -0.04883,8.14062c0.67982,-0.0232 1.35964,-0.0464 2.06006,-0.07031c0.89541,-0.01804 1.79083,-0.03609 2.71338,-0.05469c0.88607,-0.0232 1.77213,-0.0464 2.68505,-0.07031c3.53719,0.27183 5.35639,1.37946 7.82276,3.86328c15.07426,20.45303 18.65626,48.12393 15.14014,72.69873c-3.06781,19.46389 -7.72553,38.78441 -13.42139,57.6333c-0.4498,1.48984 -0.4498,1.48984 -0.90869,3.00977c-6.46495,21.04612 -14.81482,41.5458 -25.07129,61.03564c-1.10295,2.11351 -2.17341,4.24183 -3.24268,6.37256c-14.59118,28.77806 -33.65937,55.55837 -55.58984,79.21094c-1.90571,2.06566 -3.74182,4.16842 -5.5625,6.30859c-20.54112,23.46188 -49.49268,45.94261 -81.68482,48.28516c-45.2137,1.58801 -77.92743,-20.2792 -111.01049,-48.72656c-2.70663,-2.30605 -5.46145,-4.53058 -8.24219,-6.7461c-6.86192,-5.58713 -13.21016,-11.71515 -19.62354,-17.80371c-2.0218,-1.90653 -4.06027,-3.79305 -6.10693,-5.67285c-6.16577,-5.66892 -12.15793,-11.33443 -17.66016,-17.66406c-1.74996,-1.98806 -3.52194,-3.92335 -5.34375,-5.84375c-6.96155,-7.3409 -13.45294,-14.87023 -19.56298,-22.93408c-1.44115,-1.89875 -2.89751,-3.78516 -4.35499,-5.67139c-32.27462,-42.05229 -68.44688,-103.56962 -61.39453,-158.52734c0.49637,-3.5808 1.0398,-7.15222 1.60547,-10.72266c0.12464,-0.82097 0.24927,-1.64194 0.37769,-2.48779c0.24753,-1.59377 0.51669,-3.18436 0.80908,-4.77051c0.92889,-5.82005 -0.0654,-9.41514 -2.62036,-14.65186c-6.53116,-14.49435 -9.00917,-29.4594 -9.05274,-45.30053c-0.00959,-2.10011 -0.04061,-4.1992 -0.07226,-6.29907c-0.14573,-17.47087 4.87234,-33.65409 9.5625,-50.3379c0.64479,-2.30799 1.28948,-4.61602 1.93408,-6.92407c8.43959,-30.14024 17.10391,-60.21917 25.81531,-90.28184c0.45306,-1.564 0.90606,-3.12801 1.35901,-4.69203c0.22087,-0.76268 0.44174,-1.52536 0.66931,-2.31115c1.31921,-4.56491 2.61872,-9.13489 3.90125,-13.71024c0.8091,-2.88356 1.62578,-5.76495 2.44327,-8.64614c0.37623,-1.33414 0.74874,-2.66934 1.11714,-4.00566c4.4597,-16.16983 4.4597,-16.16983 11.51063,-20.49137c2.69335,-0.89778 4.27712,-1.13316 7.04326,-1.15821c1.23044,-0.01469 1.23044,-0.01469 2.48575,-0.02967c0.89623,-0.00575 1.79247,-0.01151 2.71586,-0.01744c1.4198,-0.01485 1.4198,-0.01485 2.86829,-0.03c3.13283,-0.03162 6.26567,-0.05637 9.39856,-0.08108c2.17048,-0.02057 4.34095,-0.04157 6.51143,-0.06297c5.71608,-0.05523 11.43221,-0.10464 17.14836,-0.15285c5.83153,-0.05021 11.66302,-0.1059 17.4945,-0.16113c11.44462,-0.10759 22.88928,-0.20904 34.33399,-0.30665c-0.31724,-1.76225 -0.63537,-3.52434 -0.95386,-5.28637c-0.17706,-0.98129 -0.35412,-1.96257 -0.53654,-2.97359c-0.38296,-2.05908 -0.80569,-4.11083 -1.24788,-6.158c-1.13919,-5.49444 -1.60914,-9.60678 0.52343,-14.86329c3.20679,-4.53693 7.99037,-6.72822 12.94141,-8.91796c0.6295,-0.28052 1.25899,-0.56104 1.90756,-0.85006c1.99397,-0.88635 3.99234,-1.76224 5.99088,-2.63823c1.34924,-0.59896 2.69821,-1.19856 4.04687,-1.79882c15.35361,-6.80832 15.35361,-6.80832 24.32813,-5.51368c5.75176,2.89727 8.98345,8.52296 12,14c0.32613,-1.0248 0.65226,-2.0496 0.98828,-3.10546c0.44108,-1.36079 0.88251,-2.72146 1.32422,-4.08204c0.21334,-0.67353 0.42668,-1.34707 0.64648,-2.04101c1.61608,-4.94471 3.1103,-9.38533 7.47852,-12.52149c6.37976,-3.11207 13.20544,-2.47177 20.15161,-2.49023z" fill="#020202" id="svg_1" stroke="null"/>
  <path d="m685,296c13.57979,26.97093 13.57979,26.97093 19.375,39.0625c0.37439,0.77126 0.74878,1.54252 1.13452,2.33716c2.49048,5.24541 2.49048,5.24541 2.49048,8.60034c-1.91748,1.60303 -1.91748,1.60303 -4.61719,3.33594c-0.99056,0.6455 -1.98113,1.29099 -3.00171,1.95605c-1.07451,0.68739 -2.14902,1.37479 -3.2561,2.08301c-2.21925,1.44777 -4.43668,2.89832 -6.65234,4.35156c-1.10199,0.7222 -2.20398,1.4444 -3.33936,2.18848c-4.26872,2.84049 -8.43309,5.80786 -12.5708,8.83496c-0.71897,0.5257 -1.43795,1.05139 -2.17871,1.59302c-1.42316,1.0409 -2.84617,2.082 -4.26904,3.12329c-3.55002,2.5746 -7.14739,5.08121 -10.73975,7.59619c-28.99345,20.36797 -58.3152,42.97541 -80.375,70.9375c-0.79148,0.99773 -1.58297,1.99547 -2.39844,3.02344c-4.68991,6.06104 -8.51265,11.96922 -11.60156,18.97656c-0.39574,0.80695 -0.79148,1.61391 -1.19922,2.44531c-8.34016,18.04843 -10.89292,36.87714 -9.80078,56.55469c0.03577,0.75684 0.07154,1.51368 0.1084,2.29346c0.20682,6.81432 0.20682,6.81432 1.37701,13.49775c2.05439,8.81814 1.68084,18.43394 1.71771,27.44707c0.00571,1.12327 0.01141,2.24655 0.01728,3.40386c0.00937,2.36382 0.01595,4.72766 0.01983,7.0915c0.00964,3.53239 0.04071,7.06418 0.07227,10.59644c0.09538,20.24279 -1.91247,39.87976 -6.1875,59.66992c-0.2612,1.22856 -0.52239,2.45711 -0.7915,3.7229c-1.94951,8.96023 -4.24279,17.63735 -7.3335,26.2771c-0.29133,0.83547 -0.58266,1.67095 -0.88281,2.53174c-3.3521,9.60492 -6.83668,19.04883 -11.11719,28.28076c-2.58631,5.66124 -4.02341,9.94469 -3,16.1875c1.68171,3.68374 3.82008,7.11188 7.6875,8.6875c6.22289,1.0341 6.22289,1.0341 12.0791,-0.65601c5.48208,-4.45756 7.6774,-9.52938 10.1709,-16.03149c0.63277,-1.59026 0.63277,-1.59026 1.27832,-3.21265c1.2843,-3.25406 2.53679,-6.51899 3.78418,-9.78735c0.56002,-1.43497 0.56002,-1.43497 1.13135,-2.89893c5.36624,-13.7749 9.55641,-27.69514 12.86865,-42.10107c0.19046,-0.82693 0.38092,-1.65387 0.57715,-2.50586c8.64374,-38.67019 8.80419,-77.29011 5.49756,-116.56885c-1.00299,-12.00049 -1.44769,-23.87943 -1.07471,-35.92529c3.95757,1.27062 7.75462,2.71203 11.5625,4.375c18.53402,7.74148 36.65893,10.19371 56.5625,10.0625c0.89288,-0.00105 1.78575,-0.00209 2.70569,-0.00317c13.4512,-0.0325 26.11663,-1.03054 39.26111,-4.05933c2.32864,-0.45763 4.54253,-0.52886 6.9082,-0.375c8.91076,19.44165 5.1725,40.73171 1,61c-0.19304,0.9668 -0.38607,1.93359 -0.58496,2.92969c-5.61993,27.53671 -15.37928,54.70773 -27.41504,80.07031c-0.43135,0.91491 -0.86271,1.82982 -1.30713,2.77246c-15.62923,32.87903 -36.19501,62.35619 -60.69287,89.22754c-1.54198,1.72889 -3.08365,3.45805 -4.625,5.1875c-1.45498,1.60721 -2.91301,3.21166 -4.375,4.8125c-0.53754,0.59297 -1.07508,1.18594 -1.62891,1.79688c-14.57296,15.33996 -35.74965,29.74806 -57.34765,30.40625c-19.6618,0.27443 -19.6618,0.27443 -29.02344,-3.20313c-1.07766,-0.39059 -2.15531,-0.78117 -3.26563,-1.18359c-14.45408,-5.72006 -26.95912,-14.5418 -38.92187,-24.33496c-1.908,-1.55951 -3.82785,-3.10348 -5.75,-4.64551c-16.76438,-13.48268 -32.97509,-27.48332 -48.0625,-42.83594c-2.72664,-2.74036 -5.46977,-5.46211 -8.23438,-8.16406c-6.16857,-6.0542 -12.10816,-12.11817 -17.46093,-18.92188c-1.66938,-2.11076 -3.35843,-4.1629 -5.10938,-6.20312c-15.91448,-18.72233 -29.1142,-39.8221 -40.19531,-61.71094c-0.55905,-1.09151 -0.55905,-1.09151 -1.12939,-2.20508c-17.02821,-33.53968 -29.49997,-69.70194 -17.87061,-106.79492c8.52481,-24.30266 21.93058,-46.66328 40,-65c0.72703,-0.73992 1.45406,-1.47984 2.20312,-2.24219c7.60446,-7.23832 18.81777,-15.21324 29.63086,-15.03491c7.02922,0.89925 12.25884,5.74489 16.97852,10.6521c0.89731,0.91604 0.89731,0.91604 1.81274,1.85059c5.96327,6.19564 11.31986,12.82449 16.37476,19.77441c0.55164,0.75225 1.10328,1.5045 1.67163,2.27954c4.18485,5.82362 7.74053,11.78284 11.01587,18.15796c0.51127,0.99169 1.02255,1.98338 1.54932,3.00513c13.3307,26.20236 23.95787,53.69219 33.95459,81.31128c0.25127,0.69287 0.50254,1.38575 0.76143,2.09962c1.179,3.25636 2.34625,6.51581 3.49662,9.78246c3.04591,9.49997 3.04591,9.49997 9.5271,16.71557c5.08237,1.62871 9.62001,1.32416 14.39844,-0.97656c3.76161,-3.40336 5.40381,-6.28575 5.94019,-11.35205c-0.10615,-5.49273 -2.33654,-10.49286 -4.23316,-15.57764c-0.40883,-1.12223 -0.81766,-2.24447 -1.23888,-3.40071c-1.3317,-3.64434 -2.68028,-7.28214 -4.03065,-10.9196c-0.69159,-1.8783 -1.38318,-3.7566 -2.07406,-5.63516c-2.88468,-7.84048 -5.80317,-15.66816 -8.73844,-23.48984c-0.3552,-0.94684 -0.71039,-1.89367 -1.07635,-2.8692c-13.36408,-35.54402 -29.50074,-71.05175 -56.92365,-98.1308c6.87524,-19.27902 25.57452,-33.78308 41.0625,-46c12.06693,-9.62996 23.58638,-19.6051 27.9375,-35c0.40615,-4.76157 0.0524,-9.46796 -0.24414,-14.22852c-0.25605,-6.98086 -0.25605,-6.98086 2.06055,-10.64257c4.48104,-2.99653 9.1725,-4.93088 14.18359,-6.87891c0.98484,-0.39832 1.96969,-0.79664 2.98437,-1.20703c4.33533,-1.72827 8.40657,-3.23487 13.01563,-4.04297c0.76957,-0.13664 1.53914,-0.27328 2.33203,-0.41406c6.72777,-0.57213 10.87734,1.28407 16.48047,4.66406c13.55333,8.1521 27.31717,10.86167 42.89844,8.08984c17.91378,-4.48816 35.26595,-11.77274 52.41406,-18.52734c1.79935,-0.7054 3.59883,-1.41048 5.39844,-2.11523c1.74483,-0.68414 3.48963,-1.36838 5.23437,-2.05274c0.82897,-0.32491 1.65794,-0.64983 2.51203,-0.98459c4.9777,-1.95584 9.93396,-3.95425 14.85077,-6.0596c1.87939,-0.60034 1.87939,-0.60034 5.87939,-0.60034z" fill="#8bbe00" id="svg_2"/>
  <path d="m529,223c1.98,0 3.96,0 6,0c0.1107,0.8366 0.2214,1.6732 0.33545,2.53516c0.41758,3.13901 0.83928,6.27743 1.26367,9.41552c0.18196,1.35167 0.36234,2.70356 0.54102,4.05567c1.1722,14.11398 1.1722,14.11398 7.85986,25.99365c3.66873,2.45728 7.10933,2.26716 11.4375,2.25c1.29809,0.00516 2.59617,0.01031 3.93359,0.01563c3.45016,-0.25255 5.67595,-0.48635 8.62891,-2.26563c0.70363,-1.6514 1.36443,-3.32123 2,-5c0.90258,-1.75699 1.83268,-3.50002 2.78516,-5.23047c0.53045,-0.96744 1.06089,-1.93488 1.60742,-2.93164c0.55107,-0.99838 1.10215,-1.99676 1.66992,-3.02539c1.09527,-1.99337 2.19033,-3.98685 3.28516,-5.98047c0.48476,-0.87938 0.96953,-1.75876 1.46899,-2.66479c0.75153,-1.37638 1.48204,-2.76461 2.18335,-4.16724c2.31,0.33 4.62,0.66 7,1c1.10935,3.34251 0.86301,5.50485 0.00391,8.89453c-0.22962,0.94803 -0.45923,1.89605 -0.6958,2.8728c-0.24605,1.00491 -0.4921,2.00981 -0.74561,3.04517c-3.63756,15.97368 -3.00689,27.81826 2.4375,43.1875c0.35662,1.3273 0.70438,2.6578 1,4c-10.84248,1.13468 -17.88172,-1.76543 -27,-7c-13.0856,-6.96628 -26.57835,-8.28326 -40.8125,-4.0625c-2.76364,0.93972 -5.47601,1.98217 -8.1875,3.0625c-1.28439,0.5066 -1.28439,0.5066 -2.59473,1.02344c-2.79093,1.11518 -5.56897,2.25695 -8.34277,3.41406c-0.86407,0.35892 -1.72815,0.71785 -2.61841,1.08765c-11.29027,4.88313 -18.94265,10.50402 -24.54175,21.66235c-2.92973,7.41292 -2.79687,16.02411 -1.15234,23.75c0.26974,3.30438 -0.1781,4.79566 -2.20313,7.41016c-5.14888,5.49994 -11.00728,10.2421 -16.85937,14.96484c-4.89161,3.95358 -9.51693,8.1332 -14.09692,12.43872c-2.52948,2.37306 -5.0771,4.67747 -7.76246,6.87378c-2.32338,1.95113 -4.29997,3.83093 -6.26562,6.125c-0.87012,1.0132 -0.87012,1.0132 -1.75781,2.04688c-2.53865,3.09912 -4.9452,6.29277 -7.32422,9.51562c-0.48856,0.55687 -0.97711,1.11375 -1.48047,1.6875c-0.66,0 -1.32,0 -2,0c-2.3743,-10.1783 -3.52172,-19.69632 -3.4375,-30.1875c0.00337,-0.67059 0.00675,-1.34119 0.01022,-2.0321c0.21268,-29.36734 9.79583,-56.97577 28.42728,-79.7804c0.65871,-0.81211 1.31742,-1.62422 1.99609,-2.46094c5.86163,-6.91129 12.58266,-12.63627 20.44141,-17.16406c3.68447,-2.25534 5.27816,-4.12063 6.5625,-8.375c0.81396,-6.60469 -0.38473,-12.349 -2.34375,-18.65234c-0.65625,-2.34766 -0.65625,-2.34766 -0.65625,-5.34766c2.3521,-1.48095 3.64274,-2.02617 6.44946,-1.82056c3.22843,1.03865 3.91457,2.15191 5.67163,5.01197c0.54334,0.86302 1.08668,1.72605 1.64649,2.61523c0.55107,0.90943 1.10215,1.81887 1.66992,2.75586c6.44337,11.40806 6.44337,11.40806 15.5625,20.4375c4.47534,0.58407 8.65922,0.52465 12.875,-1.125c6.3575,-5.60956 7.69202,-12.661 9.6875,-20.625c0.58331,-2.26597 1.16792,-4.5316 1.75391,-6.79687c0.41789,-1.62712 0.41789,-1.62712 0.84423,-3.28711c1.17238,-4.42215 2.48097,-8.79787 3.83936,-13.16602z" fill="#8bbe00" id="svg_3"/>
  <path d="m358,283c18.15,0 36.3,0 55,0c-6,11 -6,11 -8.05469,14.73047c-18.35023,34.8497 -22.28339,73.87566 -14.94531,112.26953c-3.63593,1.53339 -7.25944,2.64602 -11.0625,3.6875c-29.6097,9.07986 -49.82021,37.95777 -64.9375,63.3125c-0.66,-0.33 -1.32,-0.66 -2,-1c-0.07534,-4.17681 -0.12915,-8.35323 -0.16479,-12.53052c-0.0149,-1.41478 -0.03522,-2.82952 -0.06153,-4.24414c-0.17122,-9.45768 0.59084,-18.07239 3.22632,-27.22534c0.24581,-0.86665 0.49162,-1.73331 0.74487,-2.62622c0.70487,-2.4043 1.44295,-4.79561 2.19263,-7.18628c2.02951,-6.60568 3.85089,-13.199 5.45947,-19.91968c1.41751,-5.78471 3.15082,-11.45568 4.91553,-17.14282c2.53066,-8.16638 4.87478,-16.36021 7.0625,-24.625c5.5688,-20.99422 11.73824,-41.82077 18.11719,-62.58203c1.5227,-4.96654 3.01512,-9.94233 4.50781,-14.91797z" fill="#8bbe00" id="svg_4"/>
  <path d="m650,421c9.32007,8.68903 14.52337,20.92392 18,33c0.26257,0.90887 0.52513,1.81774 0.79565,2.75415c2.34291,8.92678 2.56181,17.42008 2.39185,26.55835c-0.0151,1.43423 -0.02878,2.86848 -0.04102,4.30273c-0.03255,3.46193 -0.08404,6.92324 -0.14648,10.38477c-27.00461,3.98299 -54.00346,2.4426 -78.56641,-10.62891c-2.12019,-2.02776 -2.33972,-3.46546 -2.43359,-6.37109c4.58752,-9.08766 12.94908,-16.72027 20,-24c1.00208,-1.03496 1.00208,-1.03496 2.02441,-2.09082c8.28893,-8.51592 16.60823,-16.58661 25.97559,-23.90918c2.24132,-1.83969 4.46491,-3.70026 6.6875,-5.5625c1.02466,-0.85557 2.04939,-1.71105 3.07422,-2.56641c0.73863,-0.61746 1.47726,-1.23492 2.23828,-1.87109z" fill="#8bbe00" id="svg_5"/>
 </g>

</svg>