<svg width="800" height="800" xmlns="http://www.w3.org/2000/svg">
 <g>
  <title>Layer 1</title>
  <g stroke="null">
   <path transform="translate(231.902 54.832)" fill="#8bbe00" d="m143.50879,144.21848c1.85576,-0.00323 3.71152,-0.0066 5.56728,-0.01009c3.86812,-0.00593 7.73622,-0.00784 11.60435,-0.00724c3.87863,0.00008 7.75714,-0.00678 11.63574,-0.02051c34.22311,-0.11909 68.15838,1.08824 102.22779,4.45581c1.08518,0.10538 2.17035,0.21076 3.28842,0.31933c111.26423,10.89556 111.26423,10.89556 141.11783,40.24317c4.10129,5.4168 5.1024,10.55863 5.0603,17.23071c0.01029,1.15751 0.01029,1.15751 0.0208,2.3384c0.01818,2.53054 0.01444,5.06045 0.00874,7.59105c0.00456,1.76924 0.00987,3.53848 0.01588,5.30772c0.00892,3.69934 0.00653,7.39846 -0.00343,11.09779c-0.0115,4.73349 0.00875,9.46623 0.03792,14.19961c0.01837,3.65037 0.01807,7.30056 0.01236,10.95096c-0.00015,1.74507 0.00588,3.49014 0.01829,5.23516c0.01493,2.44123 0.00423,4.88109 -0.0129,7.32228c0.00966,0.71549 0.01933,1.43098 0.02929,2.16815c-0.07362,5.02523 -1.4161,7.85255 -4.531,11.74567c-0.56719,0.4718 -1.13438,0.94359 -1.71875,1.42969c-2.13015,2.61073 -1.70158,5.40885 -1.78125,8.69531c-0.43512,9.52351 -2.01893,15.76922 -8.29297,23.05078c-6.05876,5.00786 -11.70309,6.26254 -19.39453,6.57422c-5.83383,0.26328 -5.83383,0.26328 -10.77344,2.9375c-1.13538,2.04396 -1.13538,2.04396 -1.98828,4.21094c-2.0116,4.0232 -6.12196,6.15574 -10.05078,8.10156c-4.82396,1.59185 -9.00615,2.25603 -14.07813,2.26562c-0.65208,0.00192 -1.30417,0.00383 -1.97601,0.0058c-1.37145,0.00135 -2.7429,-0.00227 -4.11432,-0.01068c-2.06264,-0.01064 -4.1244,-0.00011 -6.18701,0.0127c-7.04057,0.0045 -13.64689,-0.36358 -20.50513,-2.05835c-2.45934,-0.49019 -2.45934,-0.49019 -5.0769,1.97241c-0.68063,0.92812 -1.36125,1.85625 -2.0625,2.8125c-6.08376,5.29876 -12.72485,5.29823 -20.40235,5.26562c-0.99592,0.00192 -1.99185,0.00383 -3.01796,0.0058c-2.10038,0.00136 -4.20077,-0.00231 -6.30113,-0.01068c-3.20177,-0.01069 -6.40298,-0.00009 -9.60474,0.0127c-2.04622,-0.00133 -4.09245,-0.00389 -6.13867,-0.00782c-0.95124,0.00405 -1.90248,0.0081 -2.88255,0.01227c-5.27464,-0.0369 -9.66023,-0.55014 -14.6526,-2.27789c-0.51563,0.7425 -1.03125,1.485 -1.5625,2.25c-4.93137,5.56359 -11.57336,8.36839 -18.93422,8.94588c-2.93763,0.08431 -5.86913,0.1075 -8.80797,0.1049c-1.07855,0.00429 -2.15711,0.00857 -3.26834,0.01299c-2.27432,0.00572 -4.54865,0.00625 -6.82297,0.0019c-3.46077,-0.00315 -6.92068,0.02032 -10.38135,0.04566c-2.21744,0.00227 -4.43489,0.00297 -6.65234,0.00195c-1.02528,0.00921 -2.05056,0.01842 -3.1069,0.02791c-7.35913,-0.04688 -13.56703,-1.20542 -20.02591,-4.82869c-3.51189,-0.81044 -5.44047,0.63526 -8.47266,2.39453c-3.55394,1.88648 -6.86674,2.17207 -10.8501,2.2041c-0.96846,0.00961 -1.93691,0.01922 -2.93472,0.02912c-1.04167,0.00425 -2.08335,0.0085 -3.15659,0.01287c-1.08042,0.0057 -2.16085,0.0114 -3.27401,0.01728c-2.28805,0.00944 -4.57611,0.01598 -6.86417,0.01983c-3.47632,0.00967 -6.95204,0.04069 -10.42822,0.07227c-2.22786,0.00653 -4.45573,0.01178 -6.6836,0.01562c-1.02952,0.01235 -2.05905,0.0247 -3.11978,0.03742c-9.38494,-0.02853 -17.29665,-1.36721 -24.27865,-7.9632c-0.45375,-0.46277 -0.9075,-0.92554 -1.375,-1.40234c-0.66,-0.66 -1.32,-1.32 -2,-2c-0.77691,0.32307 -1.55381,0.64614 -2.35425,0.979c-4.72304,1.32269 -9.09592,1.34546 -13.97779,1.35694c-0.99118,0.00665 -1.98236,0.01331 -3.00358,0.02017c-2.09197,0.0101 -4.18397,0.01482 -6.27596,0.01449c-3.18015,0.00437 -6.35891,0.0407 -9.53881,0.07862c-2.03971,0.00587 -4.07943,0.00984 -6.11915,0.01172c-0.94091,0.01437 -1.88183,0.02874 -2.85127,0.04354c-7.75904,-0.05299 -13.99636,-1.74977 -19.69169,-7.19198c-1.08282,-1.14469 -1.08282,-1.14469 -2.1875,-2.3125c-3.06121,-1.1125 -4.00636,-0.99822 -7.28516,-0.08203c-5.91662,1.62532 -11.97995,1.41709 -18.0686,1.3977c-2.07598,-0.00316 -4.15052,0.02037 -6.22632,0.04566c-9.03331,0.04398 -17.31737,-0.45874 -24.73242,-6.11133c-0.61489,-0.44859 -1.22977,-0.89719 -1.86329,-1.35938c-1.80243,-1.86804 -2.44956,-3.20456 -3.51171,-5.52343c-1.21032,-2.21663 -1.76949,-3.17085 -4.17066,-4.03907c-2.28827,-0.29054 -4.52346,-0.4011 -6.82934,-0.45312c-9.12227,-0.61536 -15.2052,-2.37652 -21.6875,-9.125c-4.89924,-6.35136 -5.68858,-12.48726 -5.9375,-20.375c-0.2667,-5.90888 -0.91911,-9.15203 -5.3125,-13.17578c-0.45375,-0.39574 -0.9075,-0.79149 -1.375,-1.19922c-1.50777,-3.01553 -1.16479,-6.13513 -1.17701,-9.44385c-0.00657,-0.76773 -0.01314,-1.53545 -0.01991,-2.32645c-0.01975,-2.54792 -0.0314,-5.09578 -0.04137,-7.64376c-0.00407,-0.87079 -0.00815,-1.74158 -0.01235,-2.63875c-0.02087,-4.61276 -0.03516,-9.2255 -0.04453,-13.8383c-0.01104,-4.75467 -0.04541,-9.50886 -0.08517,-14.26335c-0.02621,-3.66329 -0.03453,-7.32647 -0.03811,-10.98984c-0.00486,-1.7518 -0.01645,-3.5036 -0.03504,-5.25532c-0.02448,-2.46043 -0.02341,-4.91965 -0.01648,-7.38017c-0.01281,-0.71615 -0.02562,-1.43231 -0.03882,-2.17016c0.07081,-6.94759 2.91427,-12.99589 7.75879,-17.98755c48.43505,-45.65452 162.28772,-42.20411 224.65234,-42.23047zm-69.90234,21.16797c-0.9294,0.08957 -1.85879,0.17914 -2.81635,0.27142c-23.5505,2.27749 -46.96509,5.11787 -70.18365,9.72858c-1.68054,0.32605 -1.68054,0.32605 -3.39502,0.65869c-36.88417,6.22468 -36.88417,6.22468 -67.60498,25.34131c-0.57352,2.45083 -0.57352,2.45083 -0.45411,5.13574c0.00031,1.02076 0.00061,2.04151 0.00092,3.0932c0.02065,1.09492 0.04129,2.18984 0.06256,3.31793c0.00566,1.12634 0.01132,2.25268 0.01715,3.41315c0.02239,3.59709 0.07259,7.19319 0.12348,10.78998c0.02006,2.43879 0.03831,4.87759 0.05468,7.31641c0.0441,5.9782 0.11104,11.95582 0.19532,17.93359c0.67039,-0.21149 1.34078,-0.42297 2.03149,-0.64087c1.33213,-0.41174 1.33213,-0.41174 2.69116,-0.83179c0.87665,-0.27336 1.75329,-0.54672 2.6565,-0.82837c8.31503,-2.2176 14.86878,0.0553 22.62085,3.30103c0.47566,-0.76184 0.47566,-0.76184 0.96093,-1.53906c5.09127,-7.51033 11.49827,-11.95575 20.41407,-13.89844c10.62171,-1.45114 21.9457,-0.15382 30.94921,6.03516c1.33426,1.04323 2.64572,2.11692 3.92188,3.23046c1.95666,1.54225 1.95666,1.54225 5.75391,1.17188c1.14361,-1.4127 2.282,-2.83012 3.38671,-4.27344c5.53628,-5.92502 13.97386,-9.68397 22.00391,-10.02734c1.61968,-0.01957 3.23962,-0.02291 4.85938,-0.01172c0.84683,0.00564 1.69366,0.01128 2.56616,0.01709c13.79777,0.26797 23.30767,6.2565 34.18384,14.29541c0.53367,-0.65227 1.06734,-1.30453 1.61718,-1.97656c7.58104,-8.89264 15.48013,-15.03566 27.42408,-16.22705c15.72087,-0.74996 29.48729,1.88888 41.67749,12.59033c5.84744,5.74567 5.84744,5.74567 7.28125,8.61328c0.66,0 1.32,0 2,0c1.60059,-1.62093 1.60059,-1.62093 3.25,-3.6875c7.85593,-9.14115 18.4579,-16.18033 30.75,-17.3125c13.60937,-0.73384 25.09865,-0.12671 36,9c2.82023,2.88144 5.4523,5.87612 8,9c0.44988,-0.36352 0.89976,-0.72703 1.36328,-1.10156c13.85619,-10.82949 27.22919,-14.72647 44.63672,-12.89844c9.0995,2.1988 16.78523,7.17785 22,15c2.96404,-1.3921 5.52782,-3.03358 8.1875,-4.9375c9.03916,-6.02611 19.17895,-8.02723 29.99609,-6.66016c9.76107,2.10143 16.90358,6.58673 22.81641,14.59766c2.72642,-0.48113 5.16031,-1.06194 7.75,-2.0625c6.16236,-1.77761 11.45712,-1.33493 17.54687,0.58203c0.88526,0.27562 1.77053,0.55124 2.68262,0.83521c0.66677,0.21293 1.33353,0.42587 2.02051,0.64526c0.17772,-7.15294 0.30017,-14.30531 0.38452,-21.45996c0.03516,-2.43284 0.08291,-4.86552 0.14355,-7.29785c0.08508,-3.50037 0.12465,-6.99879 0.15552,-10.5c0.03613,-1.0846 0.07226,-2.16919 0.10948,-3.28666c0.09041,-5.58588 0.09041,-5.58588 -2.29077,-10.45147c-1.76615,-1.54599 -3.49,-2.80126 -5.5023,-4.00406c-1.00676,-0.60586 -2.01352,-1.21172 -3.05078,-1.83594c-38.43221,-18.13448 -83.45233,-23.15037 -125.32422,-27.35156c-0.76965,-0.07891 -1.53931,-0.15781 -2.33228,-0.23911c-32.12527,-3.24737 -64.28086,-3.95228 -96.54657,-3.89145c-3.04478,0.00565 -6.08955,0.00846 -9.13434,0.01108c-29.62537,0.03702 -59.10592,0.39641 -88.61181,3.30698zm31.5625,90.25c-6.17845,8.41953 -6.01153,17.57425 -5.96094,27.67187c-0.00203,1.43248 -0.00494,2.86496 -0.0087,4.29743c-0.0044,2.98543 0.00193,5.97059 0.01602,8.95599c0.01716,3.81872 0.0072,7.63682 -0.01071,11.45552c-0.01086,2.95119 -0.00739,5.90223 0.00038,8.85342c0.00199,1.40816 -0.00043,2.81633 -0.00744,4.22447c-0.00765,1.96656 0.00608,3.93317 0.0207,5.8997c0.00239,1.11647 0.00478,2.23294 0.00724,3.38324c0.43554,3.43949 1.26317,5.27726 3.38095,8.00836c2.835,1.9268 5.11857,2.25453 8.50561,2.27466c1.32674,0.01429 1.32674,0.01429 2.68028,0.02888c0.94799,-0.00091 1.89598,-0.00182 2.8727,-0.00276c0.9813,0.00429 1.96261,0.00857 2.97365,0.01299c2.07363,0.00573 4.14729,0.00624 6.22093,0.0019c3.16921,-0.00316 6.33749,0.0203 9.50659,0.04566c2.01628,0.00227 4.03255,0.00297 6.04883,0.00195c1.41895,0.01381 1.41895,0.01381 2.86656,0.02791c4.89897,-0.03438 8.40329,-0.10725 12.32485,-3.39119c2.25295,-3.37944 2.25629,-4.54642 2.27465,-8.5061c0.00954,-1.1287 0.01907,-2.2574 0.02889,-3.42031c-0.00091,-1.22182 -0.00182,-2.44365 -0.00276,-3.7025c0.00643,-1.88911 0.00643,-1.88911 0.01298,-3.81639c0.00575,-2.6708 0.00717,-5.34121 0.00191,-8.01198c-0.00576,-3.3969 0.01104,-6.79325 0.03434,-10.19006c0.01844,-3.26468 0.01455,-6.52934 0.01327,-9.79407c0.00921,-1.20765 0.01842,-2.41531 0.02791,-3.65956c-0.06359,-11.74687 -2.45668,-20.99576 -10.39119,-29.89903c-7.85976,-6.81275 -16.66383,-9.71312 -27.00391,-9.41016c-6.54537,0.89604 -11.90318,3.88486 -16.43359,8.66016zm80.4375,1.75c-8.07371,10.41923 -9.31234,19.44571 -9.33594,32.29297c-0.00666,1.26419 -0.01331,2.52838 -0.02017,3.83088c-0.0101,2.66191 -0.01569,5.3234 -0.0145,7.98528c0.0002,3.40298 -0.02722,6.80514 -0.06154,10.20793c-0.02762,3.26277 -0.02642,6.52553 -0.02879,9.78841c-0.01437,1.21777 -0.02874,2.43555 -0.04355,3.69023c0.00615,1.135 0.01231,2.27001 0.01865,3.43941c-0.00285,0.99513 -0.0057,1.99026 -0.00864,3.01554c0.63539,3.53283 2.00447,5.20733 4.49448,7.74935c2.78639,0.9288 4.51025,1.13583 7.39209,1.16113c0.88456,0.00961 1.76913,0.01922 2.68051,0.02912c0.95315,0.00425 1.9063,0.0085 2.88833,0.01287c0.98272,0.0057 1.96544,0.0114 2.97794,0.01728c2.07961,0.00944 4.15923,0.01598 6.23886,0.01983c3.178,0.00971 6.35536,0.04074 9.5332,0.07227c2.02083,0.00653 4.04167,0.01178 6.0625,0.01562c1.42366,0.01852 1.42366,0.01852 2.87607,0.03742c6.6876,-0.01355 6.6876,-0.01355 12.3505,-3.36554c2.18894,-3.39971 2.26316,-6.25251 2.29052,-10.24634c0.01276,-1.26554 0.02552,-2.53108 0.03867,-3.83498c0.00306,-1.38044 0.00529,-2.76089 0.00674,-4.14134c0.00644,-1.42525 0.01317,-2.85049 0.02018,-4.27574c0.01197,-2.99007 0.01568,-5.98002 0.01449,-8.97011c-0.0002,-3.80379 0.027,-7.60683 0.06155,-11.41045c0.02241,-2.94714 0.02628,-5.8941 0.02523,-8.84132c0.00234,-1.40043 0.01106,-2.80087 0.02667,-4.20122c0.09325,-9.23907 -0.02647,-18.95135 -6.39534,-26.27688c-5.56971,-5.27795 -11.13401,-7.9214 -18.83871,-8.23912c-9.48723,0.27276 -18.54211,3.57393 -25.25,10.4375zm-147,-2c-4.62078,5.61384 -7.10112,10.35458 -7.19287,17.67724c-0.01607,1.16486 -0.03213,2.32972 -0.04868,3.52988c-0.04443,5.31736 -0.08594,10.63457 -0.10855,15.95206c-0.01335,2.8073 -0.04122,5.61387 -0.08203,8.4209c-0.0588,4.04374 -0.07663,8.08671 -0.09131,12.13086c-0.02267,1.25533 -0.04534,2.51067 -0.0687,3.80404c-0.01848,6.71665 -0.01848,6.71665 2.55844,12.77408c4.1372,2.33329 7.41432,2.43186 12.0962,2.375c1.30336,0.00718 1.30336,0.00718 2.63305,0.0145c1.8323,0.00339 3.66465,-0.00578 5.49683,-0.02671c2.79923,-0.02677 5.59445,-0.00023 8.39355,0.03174c1.78387,-0.0033 3.56773,-0.00971 5.35157,-0.01953c0.83346,0.01012 1.66692,0.02024 2.52563,0.03067c3.95546,-0.07948 6.11709,-0.44207 9.56397,-2.51675c2.97542,-4.79287 2.66977,-9.15211 2.6018,-14.6897c0.00241,-1.1234 0.00483,-2.24681 0.00731,-3.40425c-0.00098,-2.37627 -0.01438,-4.75257 -0.03929,-7.12871c-0.03414,-3.61286 -0.0207,-7.22325 -0.00122,-10.83618c-0.0069,-2.31446 -0.01658,-4.62892 -0.0293,-6.94336c0.00496,-1.07014 0.00992,-2.14028 0.01503,-3.24284c-0.13085,-8.46291 -2.06669,-15.08686 -6.70643,-22.18294c-7.65529,-7.32245 -15.11688,-10.15511 -25.57813,-10.01563c-4.56363,0.36769 -7.80059,1.262 -11.29687,4.26563zm227,1c-0.92813,0.59812 -1.85625,1.19625 -2.8125,1.8125c-8.09103,8.09102 -9.50433,16.93449 -9.5586,27.97266c-0.00903,1.13384 -0.01805,2.26769 -0.02736,3.43589c-0.01447,2.39122 -0.02338,4.78247 -0.02708,7.17372c-0.01193,3.6588 -0.06118,7.31593 -0.11157,10.97437c-0.00946,2.32616 -0.0167,4.65234 -0.02149,6.97852c-0.01953,1.0928 -0.03906,2.18561 -0.05919,3.31153c0.02775,4.6632 0.10171,7.50534 2.58629,11.52758c4.13205,2.4715 7.35688,2.53482 12.094,2.47729c1.30336,0.00718 1.30336,0.00718 2.63305,0.0145c1.8323,0.00339 3.66465,-0.00578 5.49683,-0.02671c2.79923,-0.02677 5.59445,-0.00023 8.39355,0.03174c1.78387,-0.0033 3.56773,-0.00971 5.35157,-0.01953c0.83346,0.01012 1.66692,0.02024 2.52563,0.03067c3.89104,-0.07819 6.13267,-0.46406 9.56177,-2.42105c3.14312,-5.20965 2.68816,-10.34537 2.63916,-16.31665c0.00478,-1.27878 0.00957,-2.55755 0.01449,-3.87508c0.00736,-2.70609 -0.00329,-5.41136 -0.0267,-8.11735c-0.02835,-3.44215 -0.01217,-6.88234 0.01786,-10.32441c0.02261,-3.31121 0.00669,-6.6219 -0.00565,-9.93316c0.01012,-1.22325 0.02024,-2.44651 0.03067,-3.70683c-0.10345,-7.6422 -1.19926,-13.67336 -5.69473,-20.0002c-5.93854,-5.64217 -11.6674,-6.4044 -19.56641,-6.35156c-5.23075,0.53557 -9.06911,2.52652 -13.43359,5.35156zm-289,3c-3.44366,4.56051 -5.11437,7.97655 -5.16114,13.66748c-0.0096,0.94463 -0.01921,1.88926 -0.02911,2.86252c-0.00425,1.01877 -0.0085,2.03754 -0.01288,3.08719c-0.0057,1.0493 -0.0114,2.09861 -0.01727,3.17971c-0.00945,2.22085 -0.01599,4.44171 -0.01984,6.66257c-0.00971,3.39527 -0.04073,6.78993 -0.07226,10.18506c-0.00653,2.15755 -0.01178,4.3151 -0.01563,6.47266c-0.01235,1.01472 -0.02469,2.02944 -0.03741,3.07492c-0.07876,6.96375 -0.07876,6.96375 3.36554,12.80789c5.64104,3.17458 12.21949,2.32904 18.5,2.3125c1.22332,0.01611 2.44664,0.03223 3.70703,0.04883c1.17949,0.00064 2.35898,0.00129 3.57422,0.00195c1.07314,0.00298 2.14629,0.00596 3.25195,0.00903c3.42005,-0.42919 5.24746,-1.27195 7.9668,-3.37231c1.66996,-2.7608 2.25503,-4.84995 2.29052,-8.05908c0.01276,-0.78828 0.02552,-1.57655 0.03867,-2.38871c0.00223,-0.8448 0.00445,-1.68961 0.00674,-2.56002c0.00666,-0.88067 0.01332,-1.76133 0.02018,-2.66867c0.01011,-1.86433 0.01481,-3.7287 0.01449,-5.59305c0.00435,-2.82485 0.04061,-5.64809 0.07861,-8.47266c0.07068,-11.13135 0.02297,-20.50551 -7.76171,-29.19531c-6.49977,-5.8019 -12.08601,-6.63621 -20.65625,-6.41016c-4.02203,0.46129 -6.13403,1.52473 -9.03125,4.34766zm349.54297,5.60937c-4.17348,6.46625 -4.99565,12.46367 -4.94141,19.96485c-0.00287,0.88686 -0.00574,1.77372 -0.0087,2.68745c-0.00203,1.86143 0.00342,3.72289 0.01602,5.58428c0.01613,2.84415 0.00009,5.68689 -0.01904,8.531c0.00198,1.81576 0.00582,3.63152 0.01172,5.44727c-0.00607,0.84592 -0.01215,1.69184 -0.0184,2.5634c0.05539,4.65487 0.29491,7.89973 3.41684,11.61238c4.88392,3.49634 11.65054,2.32753 17.375,2.3125c1.21945,0.01611 2.4389,0.03223 3.69531,0.04883c1.18078,0.00064 2.36156,0.00129 3.57812,0.00195c1.61141,0.00447 1.61141,0.00447 3.25537,0.00903c3.64388,-0.43817 6.00025,-1.41206 9.0962,-3.37231c1.87738,-2.95228 2.25829,-5.26802 2.29052,-8.7334c0.01276,-0.93487 0.02552,-1.86974 0.03867,-2.83295c0.00223,-1.0042 0.00445,-2.0084 0.00674,-3.04303c0.00666,-1.04077 0.01332,-2.08155 0.02018,-3.15387c0.01012,-2.20227 0.01481,-4.40457 0.01449,-6.60687c0.00436,-3.35371 0.04065,-6.70609 0.07862,-10.05957c0.00587,-2.14322 0.00983,-4.28645 0.01171,-6.42969c0.01437,-0.9961 0.02875,-1.9922 0.04355,-3.01849c-0.04028,-6.20222 -0.90384,-10.96766 -4.50448,-16.12213c-5.5044,-5.11122 -9.31346,-5.35868 -16.67188,-5.26953c-7.62006,0.61712 -11.85235,4.30167 -16.78515,9.8789zm-387.54297,4.39063c-1.7548,5.2644 -1.22709,10.86511 -1.25,16.375c-0.02063,1.23234 -0.04125,2.46469 -0.0625,3.73437c-0.00516,1.18852 -0.01032,2.37703 -0.01563,3.60157c-0.00934,1.08587 -0.01869,2.17174 -0.02832,3.29052c0.40447,3.40253 1.33338,5.25853 3.35645,7.99854c3.10148,1.86089 5.64482,2.08264 9.17578,2.04297c1.26199,-0.01418 2.52398,-0.02836 3.82422,-0.04297c0.1492,-4.42898 0.2576,-8.8566 0.32959,-13.28735c0.03002,-1.5045 0.07086,-3.00881 0.12304,-4.5127c0.66849,-9.93757 0.66849,-9.93757 -3.31201,-18.65698c-1.92854,-1.80051 -3.3056,-2.61367 -5.76562,-3.66797c-3.05417,0.16074 -4.2296,0.9796 -6.375,3.125zm447,0c-2.85693,2.88016 -3.92672,4.43432 -4.45411,8.50513c0.02095,1.31444 0.0419,2.62888 0.06348,3.98315c0.00849,1.0548 0.00849,1.0548 0.01715,2.13091c0.02228,2.23181 0.07245,4.46198 0.12348,6.69331c0.02007,1.51886 0.03832,3.03774 0.05468,4.55664c0.04395,3.71081 0.11292,7.42068 0.19532,11.13086c1.25039,0.02578 2.50078,0.05156 3.78906,0.07812c0.70334,0.01451 1.40669,0.02901 2.13135,0.04395c3.24155,-0.19028 5.41014,-1.34244 8.07959,-3.12207c3.38035,-5.09683 2.32785,-11.57112 2.3125,-17.4375c0.01611,-1.22783 0.03222,-2.45567 0.04882,-3.7207c0.00065,-1.18401 0.00129,-2.36801 0.00196,-3.58789c0.00298,-1.07951 0.00596,-2.15902 0.00903,-3.27125c-0.42141,-3.37596 -1.3709,-5.2568 -3.37231,-7.98266c-3.7172,-1.98251 -5.83703,-0.37223 -9,2z"/>
   <path transform="translate(88.6875 270.625)" fill="#8bbe00" d="m143.50879,144.21848c1.53817,-0.03674 1.53817,-0.03674 3.10742,-0.07422c7.84303,-0.02973 16.36711,0.79825 22.29956,6.44165c0.56695,0.64187 1.13389,1.28375 1.71802,1.94507c1.87212,1.91936 1.87212,1.91936 4.1875,3.0625c3.36595,-0.26661 6.35259,-1.16193 9.60156,-2.07812c5.53467,-1.36457 11.10277,-1.25462 16.77344,-1.23438c1.02223,-0.00459 2.04445,-0.00918 3.09766,-0.01392c13.59751,0.11665 23.2153,4.2068 32.90234,13.63892c0.53625,0.55688 1.0725,1.11375 1.625,1.6875c0.68707,-0.34934 1.37414,-0.69867 2.08203,-1.05859c0.90106,-0.45504 1.80211,-0.91008 2.73047,-1.37891c0.89332,-0.45246 1.78664,-0.90492 2.70703,-1.37109c7.00903,-3.36654 14.93527,-2.49284 22.5647,-2.54151c1.88619,-0.01646 3.77233,-0.04362 5.6582,-0.08203c13.66093,-0.27641 24.32965,0.29321 35.25757,9.43213c2.30694,-1.15069 4.6099,-2.30864 6.91016,-3.47266c1.04027,-0.52464 2.08054,-1.04929 3.15234,-1.58984c1.56428,-0.79084 1.56428,-0.79084 3.16016,-1.59766c7.1712,-3.45952 15.05193,-2.64012 22.86157,-2.68994c1.88619,-0.01646 3.77233,-0.04362 5.6582,-0.08203c18.94404,-0.38331 18.94404,-0.38331 28.08008,4.35156c2.22023,1.30283 2.22023,1.30283 5.17749,1.08057c0.53625,-0.70125 1.0725,-1.4025 1.625,-2.125c5.9761,-7.23423 14.16407,-10.96037 23.375,-11.875c3.77201,-0.15798 7.53752,-0.18505 11.3125,-0.1875c0.98162,-0.01225 1.96324,-0.02449 2.97461,-0.03711c7.21988,-0.01433 13.95556,0.80917 20.88574,2.87109c0.90444,0.17499 0.90444,0.17499 1.82715,0.35352c1.85451,-1.28932 1.85451,-1.28932 3.5625,-3.1875c7.81716,-7.30926 17.15987,-8.47127 27.5,-8.3125c1.5169,-0.0232 1.5169,-0.0232 3.06445,-0.04688c9.11825,0.04698 17.07316,2.20032 23.87305,8.54688c1.99278,-0.98529 3.96455,-1.98006 5.90234,-3.07031c7.30012,-3.78317 14.99419,-4.46996 22.90625,-2.08203c6.84535,3.07363 12.13147,7.79822 15.35938,14.62109c1.50156,6.37283 1.15348,12.97506 1.13476,19.49805c-0.04509,6.46283 -0.04509,6.46283 3.05274,11.87304c0.87269,0.71286 1.74539,1.42571 2.64453,2.16016c2.59478,5.0134 3.37981,8.74112 3.40405,14.46069c0.0103,1.06491 0.0103,1.06491 0.0208,2.15132c0.01817,2.32616 0.01445,4.65163 0.00874,6.97783c0.00457,1.62993 0.00988,3.25986 0.01589,4.88979c0.00891,3.40848 0.00653,6.81673 -0.00344,10.2252c-0.01148,4.35217 0.00873,8.70353 0.03792,13.0556c0.01841,3.36394 0.01806,6.72768 0.01236,10.09165c-0.00015,1.60386 0.00585,3.20773 0.0183,4.81154c0.06869,10.29978 -0.19342,18.53571 -7.88962,26.33638c-23.95559,22.42278 -64.73708,27.21005 -95.625,32c-1.13518,0.17628 -2.27036,0.35256 -3.43994,0.53418c-17.70194,2.66717 -35.47148,4.23003 -53.31006,5.65332c-1.06237,0.08477 -2.12474,0.16953 -3.2193,0.25687c-90.3317,7.13329 -186.65645,6.84681 -320.91351,-34.5889c-6.15361,-5.39293 -11.71977,-10.72803 -12.37789,-19.21896c-0.0046,-1.28239 -0.00921,-2.56478 -0.01396,-3.88602c-0.00511,-0.71125 -0.01022,-1.4225 -0.01549,-2.15531c-0.01385,-2.34171 -0.01294,-4.68312 -0.01063,-7.02487c-0.00389,-1.63518 -0.00823,-3.27036 -0.01299,-4.90555c-0.00745,-3.42458 -0.00717,-6.84906 -0.0019,-10.27365c0.00579,-4.37684 -0.01113,-8.75327 -0.03435,-13.13005c-0.01477,-3.37674 -0.0156,-6.75338 -0.01249,-10.13014c-0.00051,-1.61306 -0.00572,-3.22612 -0.01581,-4.83914c-0.01241,-2.26143 -0.00554,-4.52206 0.00601,-6.78348c-0.00063,-1.28398 -0.00126,-2.56795 -0.00191,-3.89084c0.5474,-5.29149 1.77523,-9.31091 6.02266,-12.78152c3.77101,-4.54777 3.01612,-9.48759 2.97656,-15.21094c0,-10.80433 0.78496,-17.68074 8.375,-25.82422c6.15951,-5.54597 12.73138,-6.44579 20.83984,-6.19922c4.58082,0.57756 8.17184,2.1545 12.16016,4.39844c1.33101,0.67129 2.6637,1.33929 4,2c0.58008,-0.40992 1.16016,-0.81984 1.75781,-1.24219c0.78117,-0.53883 1.56235,-1.07765 2.36719,-1.63281c0.7657,-0.53367 1.53141,-1.06734 2.32031,-1.61719c6.57575,-3.8811 12.794,-3.87362 20.24219,-3.88281zm-15.33203,22.91016c-4.20334,5.49667 -4.52606,8.82588 -4.5586,15.63672c-0.0057,0.91517 -0.0114,1.83034 -0.01727,2.77325c-0.00946,1.94015 -0.01598,3.88032 -0.01983,5.8205c-0.00969,2.95862 -0.04069,5.91654 -0.07227,8.875c-0.00653,1.88541 -0.01178,3.77083 -0.01563,5.65625c-0.01234,0.88145 -0.02469,1.76291 -0.03741,2.67108c0.0209,5.80882 0.79115,10.2096 4.86554,14.67657c4.23969,3.30122 7.23861,4.5313 12.5625,4.73047c1.31678,0.07348 1.31678,0.07348 2.66016,0.14844c4.91463,-0.78494 8.9412,-3.15555 13.27734,-5.52344c0.00935,-1.20946 0.01869,-2.41893 0.02832,-3.66504c0.04025,-4.5404 0.1061,-9.08014 0.1792,-13.62012c0.02801,-1.95499 0.04932,-3.91009 0.06348,-5.86523c0.15976,-20.83303 0.15976,-20.83303 4.729,-30.84961c-0.94875,-0.80438 -1.8975,-1.60875 -2.875,-2.4375c-0.53367,-0.45246 -1.06734,-0.90492 -1.61719,-1.37109c-3.72005,-2.93943 -7.72798,-2.41274 -12.25781,-2.44141c-0.79922,-0.02062 -1.59844,-0.04125 -2.42188,-0.0625c-5.76745,-0.03794 -10.08486,0.75169 -14.47265,4.84766zm333.64453,-0.53516c-0.66,0.99 -1.32,1.98 -2,3c0.64543,2.05223 0.64543,2.05223 1.82813,4.33203c3.54693,9.04469 2.85288,18.78291 2.92187,28.35547c0.0282,1.97333 0.05814,3.94664 0.08984,5.91992c0.07336,4.79748 0.12325,9.59468 0.16016,14.39258c7.31637,3.96588 12.58875,6.19403 21,5c5.28924,-1.76308 7.80009,-4.61155 11,-9c0.89912,-2.69735 1.13913,-4.32559 1.177,-7.10083c0.01284,-0.82128 0.02567,-1.64256 0.0389,-2.48872c0.00738,-0.8844 0.01477,-1.76879 0.02238,-2.67998c0.00807,-0.91376 0.01614,-1.82752 0.02446,-2.76897c0.01383,-1.93417 0.02456,-3.86836 0.03243,-5.80256c0.0172,-2.94994 0.0611,-5.89875 0.10522,-8.84839c0.01013,-1.88085 0.01864,-3.76171 0.02539,-5.64258c0.01751,-0.87832 0.03502,-1.75664 0.05306,-2.66158c-0.01941,-5.51175 -0.80653,-8.63399 -4.47884,-13.00639c-5.49226,-4.95643 -9.75167,-5.22784 -16.8125,-5.3125c-0.79471,-0.029 -1.58941,-0.05801 -2.4082,-0.08789c-5.42227,-0.0583 -8.50047,0.76372 -12.7793,4.40039zm-372,2c-0.73775,3.84139 -0.65145,7.60072 -0.5625,11.5c-0.01096,1.04543 -0.02191,2.09086 -0.0332,3.16797c-0.17327,5.82134 -0.17327,5.82134 2.6311,10.66211c0.64832,0.55107 1.29664,1.10215 1.9646,1.66992c3.99943,-0.84603 6.44742,-1.44742 9.375,-4.375c2.67812,-4.3262 2.7833,-8.01089 2.8125,-13.0625c0.01418,-1.11246 0.02836,-2.22492 0.04297,-3.37109c-0.23222,-3.21559 -0.72393,-5.35352 -2.23047,-8.19141c-5.37734,-3.58489 -9.78833,-2.85151 -14,2zm427,0c-2.02933,6.08799 -2.13053,14.09605 0.25,20.125c2.3244,3.81865 4.11146,5.26055 8.25,6.8125c2.62159,0.3312 2.62159,0.3312 4.62085,-1.60352c3.30639,-4.10667 2.49485,-8.75779 2.44165,-13.83398c0.02385,-1.04543 0.0477,-2.09086 0.07227,-3.16797c0.09641,-6.04923 0.09641,-6.04923 -2.97852,-11.01953c-5.43556,-2.68581 -8.94036,-2.12939 -12.65625,2.6875zm-340,10c-1.85039,3.06509 -2.25877,5.35477 -2.29053,8.91699c-0.01276,0.97492 -0.02552,1.94983 -0.03866,2.95429c-0.00223,1.04794 -0.00445,2.09589 -0.00675,3.1756c-0.00665,1.08516 -0.01331,2.17033 -0.02017,3.28839c-0.01012,2.29643 -0.01482,4.59289 -0.0145,6.88934c-0.00436,3.49855 -0.04065,6.99582 -0.07861,10.49414c-0.00587,2.23437 -0.00984,4.46875 -0.01172,6.70313c-0.01437,1.03985 -0.02874,2.0797 -0.04355,3.15106c0.04655,7.46959 1.45207,12.40377 6.03965,18.4505c5.68794,5.03332 11.78898,6.12655 19.26562,5.88672c7.30186,-0.91919 12.89321,-3.82678 18.19922,-8.91016c3.962,-5.31488 7.10031,-10.54253 7.16113,-17.28442c0.00961,-0.86132 0.01922,-1.72264 0.02912,-2.61007c0.00425,-0.92814 0.0085,-1.85628 0.01288,-2.81254c0.00855,-1.43723 0.00855,-1.43723 0.01727,-2.90349c0.00945,-2.02833 0.01598,-4.05668 0.01983,-6.08504c0.0097,-3.09459 0.04072,-6.18852 0.07227,-9.28296c0.00653,-1.972 0.01178,-3.944 0.01563,-5.91601c0.01234,-0.92207 0.02469,-1.84414 0.03741,-2.79414c-0.02209,-6.40929 -0.91084,-10.85663 -5.61554,-15.56133c-6.38158,-4.061 -12.89864,-4.08849 -20.25,-4.0625c-0.91137,-0.01611 -1.82273,-0.03223 -2.76172,-0.04883c-8.4485,-0.00609 -14.05109,1.69919 -19.73828,8.36133zm223,-2c-2.37174,3.55761 -3.12072,6.042 -3.19287,10.22095c-0.01606,0.84841 -0.03213,1.69682 -0.04868,2.57094c-0.04476,3.89463 -0.08555,7.7891 -0.10855,11.68394c-0.0165,2.04536 -0.04371,4.09067 -0.08203,6.13574c-0.0552,2.96441 -0.07671,5.92748 -0.09131,8.89234c-0.02267,0.90142 -0.04534,1.80284 -0.06869,2.73158c0.02663,8.13554 2.75863,14.50598 8.09213,20.63951c0.825,0.70125 1.65,1.4025 2.5,2.125c0.80437,0.72187 1.60875,1.44375 2.4375,2.1875c6.32646,4.47481 14.0293,5.37547 21.5625,4.3125c5.52561,-1.26859 9.49873,-4.06074 13,-8.5c3.29571,-6.11571 3.46741,-11.47077 3.46875,-18.33984c0.00761,-1.08093 0.01523,-2.16185 0.02307,-3.27553c0.01077,-2.2785 0.01367,-4.55704 0.00916,-6.83556c-0.00098,-3.47228 0.04069,-6.94234 0.08496,-10.4143c0.0052,-2.2207 0.00789,-4.44141 0.00781,-6.66211c0.0164,-1.03044 0.03279,-2.06088 0.04968,-3.12255c-0.0635,-6.67303 -1.24381,-11.21938 -5.64343,-16.35011c-5.89157,-4.56596 -12.61258,-4.20777 -19.75,-4.25c-0.85594,-0.02062 -1.71188,-0.04125 -2.59375,-0.0625c-7.15771,-0.04338 -14.71138,0.60743 -19.65625,6.3125zm-152,7c-3.70238,4.77412 -5.11827,8.31607 -5.16113,14.29419c-0.00961,1.08155 -0.01922,2.1631 -0.02912,3.27742c-0.00425,1.16875 -0.0085,2.3375 -0.01287,3.54167c-0.00571,1.20231 -0.01141,2.40462 -0.01728,3.64336c-0.00945,2.5462 -0.01598,5.09241 -0.01983,7.63862c-0.00971,3.89125 -0.04073,7.78197 -0.07227,11.6731c-0.00653,2.4733 -0.01178,4.94661 -0.01562,7.41992c-0.01235,1.16268 -0.0247,2.32536 -0.03742,3.52327c0.01308,7.91423 0.01308,7.91423 3.36554,14.98845c6.90787,6.72117 15.81849,6.88828 25,7c9.11198,-0.5759 17.16377,-4.60188 23.375,-11.3125c4.65181,-5.93007 7.69537,-13.22919 7.802,-20.79419c0.01284,-0.79795 0.02567,-1.59591 0.0389,-2.41804c0.00738,-0.85422 0.01477,-1.70845 0.02238,-2.58855c0.00807,-0.88778 0.01614,-1.77555 0.02446,-2.69023c0.01381,-1.87692 0.02455,-3.75386 0.03243,-5.63082c0.01152,-1.91348 0.03198,-3.82694 0.06152,-5.74023c0.04278,-2.77146 0.05886,-5.54197 0.06909,-8.31372c0.01751,-0.84815 0.03502,-1.6963 0.05306,-2.57015c-0.02109,-5.81994 -1.13323,-9.15266 -4.47884,-13.94157c-5.03245,-4.66422 -9.06241,-5.17091 -15.70312,-5.23828c-0.75602,-0.00807 -1.51204,-0.01614 -2.29096,-0.02446c-1.60042,-0.01382 -3.20087,-0.02455 -4.80133,-0.03243c-1.62932,-0.0115 -3.2586,-0.03193 -4.8877,-0.06152c-2.36109,-0.04287 -4.72107,-0.05887 -7.08251,-0.06909c-0.72005,-0.01751 -1.44009,-0.03502 -2.18195,-0.05306c-5.5643,0.02358 -8.58776,1.39468 -13.05243,4.47884zm76.35547,0.5c-4.28493,5.50306 -4.52472,9.63497 -4.55859,16.41016c-0.00571,0.88207 -0.01141,1.76415 -0.01728,2.67295c-0.00945,1.87032 -0.01598,3.74065 -0.01983,5.61098c-0.00965,2.8334 -0.04065,5.66605 -0.07227,8.49927c-0.00654,1.82226 -0.01178,3.64453 -0.01562,5.4668c-0.01235,0.8358 -0.0247,1.6716 -0.03742,2.53273c0.03851,10.39882 2.98729,18.88629 10.36554,26.30711c8.50411,6.80037 17.05154,9.7324 28,9c7.90192,-0.88798 12.71116,-2.45062 18.8125,-7.5c2.50691,-3.16662 2.32391,-6.98343 2.3645,-10.87598c0.01284,-1.07501 0.02567,-2.15003 0.0389,-3.25763c0.00738,-1.15731 0.01477,-2.31463 0.02238,-3.50701c0.00807,-1.19615 0.01614,-2.3923 0.02446,-3.6247c0.01383,-2.53183 0.02456,-5.06367 0.03243,-7.59552c0.0172,-3.86055 0.0611,-7.72024 0.10522,-11.58057c0.01013,-2.46223 0.01864,-4.92447 0.02539,-7.38671c0.01751,-1.14922 0.03502,-2.29844 0.05306,-3.48249c-0.01852,-6.88231 -0.76688,-11.34302 -4.47884,-17.18939c-4.98083,-4.73786 -9.10892,-5.1646 -15.73828,-5.20312c-0.75839,-0.00571 -1.51677,-0.01141 -2.29814,-0.01728c-1.60463,-0.00944 -3.20927,-0.01598 -4.81392,-0.01983c-2.44281,-0.00969 -4.88478,-0.04072 -7.32739,-0.07227c-1.56185,-0.00653 -3.1237,-0.01178 -4.68555,-0.01562c-0.7252,-0.01235 -1.45041,-0.0247 -2.19759,-0.03742c-5.41601,0.02354 -9.53648,1.17405 -13.58366,4.86554zm-243.35547,24.5c-0.11605,8.24085 -0.20479,16.48135 -0.25906,24.72282c-0.02605,3.82722 -0.06137,7.65389 -0.11814,11.48079c-0.05448,3.69588 -0.08425,7.39123 -0.09719,11.08748c-0.00921,1.40742 -0.0272,2.8148 -0.05426,4.22199c-0.49162,8.65968 -0.49162,8.65968 2.88339,16.2816c30.49411,25.42255 88.32578,27.69794 126.39526,31.45532c0.77083,0.07713 1.54166,0.15426 2.33585,0.23373c5.96558,0.58652 11.93661,1.06925 17.91415,1.51627c1.14167,0.0872 2.28333,0.17441 3.45959,0.26425c23.57937,1.74559 47.10207,2.08079 70.73963,2.05142c4.01248,-0.0046 8.02466,0.00223 12.03711,0.02051c67.46162,0.30403 142.43268,-1.65897 206.13867,-26.46118c0.77255,-0.30027 1.5451,-0.60054 2.34106,-0.90991c6.3848,-2.66349 12.39449,-6.13091 16.28394,-11.96509c0.29136,-2.89241 0.29136,-2.89241 0.22705,-6.21558c-0.00015,-1.2811 -0.0003,-2.5622 -0.00046,-3.88212c-0.01021,-1.39843 -0.02064,-2.79685 -0.03128,-4.19527c-0.00373,-1.4306 -0.00657,-2.86121 -0.00857,-4.29182c-0.00763,-3.76313 -0.02728,-7.52611 -0.04941,-11.28917c-0.02047,-3.84082 -0.0296,-7.68167 -0.03967,-11.52252c-0.02145,-7.53458 -0.05558,-15.06903 -0.09766,-22.60352c-0.66677,0.28512 -1.33354,0.57025 -2.02051,0.86401c-1.32789,0.55265 -1.32789,0.55265 -2.68261,1.11646c-0.87302,0.36762 -1.74604,0.73525 -2.64551,1.11401c-5.92187,2.02249 -11.6179,0.96569 -17.65137,-0.09448c-0.14695,0.90621 -0.29391,1.81242 -0.44531,2.74609c-2.11831,11.50458 -5.59155,18.92857 -15.22266,25.8125c-8.73983,5.40201 -18.92081,5.74338 -28.93359,3.98438c-1.81119,-0.47145 -3.60677,-1.00209 -5.39844,-1.54297c-1.32,0 -2.64,0 -4,0c-1.74282,2.06712 -1.74282,2.06712 -3.125,4.75c-0.49758,0.88172 -0.99516,1.76344 -1.50781,2.67188c-1.36481,2.48211 -1.36481,2.48211 -2.29688,4.78125c-1.3756,2.3094 -2.61413,2.76643 -5.07031,3.79687c-0.72316,0.40219 -1.44633,0.80437 -2.19141,1.21875c-11.36515,6.1413 -23.2614,7.27612 -35.82812,3.99219c-6.02249,-2.07208 -11.53349,-4.9293 -16.98047,-8.21094c-0.26812,0.56848 -0.53625,1.13695 -0.8125,1.72266c-4.41378,8.69688 -10.17581,14.19947 -19.42578,17.5c-15.44094,4.34617 -32.01227,4.51145 -46.51172,-2.91016c-6.29511,-3.68674 -12.17891,-8.20587 -16.25,-14.3125c-3.39265,1.13088 -3.93484,1.94298 -6.0625,4.6875c-7.23669,8.48073 -17.75902,12.80124 -28.5,15.0625c-14.75021,1.07274 -30.50961,0.28776 -42.3125,-9.5c-3.98784,-3.50223 -5.95799,-7.49852 -8.125,-12.25c-1.50627,0.83145 -1.50627,0.83145 -3.04297,1.67969c-12.67596,6.79865 -24.45179,10.0807 -38.95703,7.32031c-5.71612,-1.83048 -10.79541,-3.64252 -15,-8c-0.66,0 -1.32,0 -2,0c-0.39832,-0.82758 -0.39832,-0.82758 -0.80469,-1.67187c-1.33414,-2.59853 -2.8079,-5.07936 -4.32031,-7.57813c-0.53883,-0.89203 -1.07766,-1.78406 -1.63281,-2.70312c-0.40992,-0.67547 -0.81985,-1.35094 -1.24219,-2.04688c-4.67079,0.62741 -4.67079,0.62741 -9.29687,1.51172c-11.74077,2.1208 -22.03014,0.52687 -32.04688,-6.05078c-8.59842,-6.76965 -11.31794,-15.95418 -12.65625,-26.46094c-0.80438,0.165 -1.60875,0.33 -2.4375,0.5c-8.61545,1.20919 -14.70894,0.42678 -22.5625,-3.5z"/>
  </g>
 </g>

</svg>