<?xml version="1.0" encoding="UTF-8"?>
<svg id="Capa_1" data-name="Capa 1" xmlns="http://www.w3.org/2000/svg" viewBox="0 0 150 150">
  <defs>
    <style>
      .cls-1 {
        fill: #96bd0b;
        stroke-width: 0px;
      }
    </style>
  </defs>
  <g id="LIie9F.tif">
    <g>
      <path class="cls-1" d="M135.5,42.07v1.21c-.07.14-.18.27-.2.42-.67,4.98-1.32,9.95-1.98,14.93-.31,2.3-.63,4.6-.96,7.02h-6.76v1.57c0,15.68,0,31.36,0,47.04,0,1.2-.07,2.41-.22,3.6-1.53,11.97-14.16,19.71-25.51,15.65-7.9-2.82-12.96-9.88-13.09-18.28-.03-1.64,0-3.27,0-5h-1.47c-24,0-48,0-72.01,0-.44,0-.87.07-1.31.11V16.02c31.28,0,62.56,0,93.84,0,.08.5.23,1,.23,1.5.01,30.43,0,60.86,0,91.28v1.45h-12.07c.11,3.11-.25,6.06.73,8.97,1.95,5.81,8.81,9.45,14.66,7.64,5.64-1.74,8.98-6.22,8.99-12.11.01-15.96,0-31.92,0-47.87,0-.39,0-.78,0-1.31h-6.72c-.08-.32-.14-.51-.17-.7-.98-7.32-1.97-14.65-2.92-21.97-.04-.31.17-.78.42-.99,6.89-5.95,16.74-6.47,24.24-1.33.75.52,1.52.99,2.29,1.49ZM19.26,78.76h79.49V23.48H19.26v55.28ZM19.26,102.88h79.49v-16.69H19.26v16.69ZM126.05,58.31c.55-4.08,1.09-8.05,1.59-12.02.03-.24-.14-.66-.33-.76-2.91-1.51-7.88-1.83-11.07.34.56,4.13,1.12,8.29,1.68,12.44h8.13Z"/>
      <path class="cls-1" d="M92.88,66.12c-20.54,13.22-46.64,13.56-67.72,0,7.59-13.11,15.19-26.23,22.88-39.49,7.27,2.32,14.58,2.37,21.95-.02,7.65,13.2,15.25,26.32,22.89,39.5ZM82.94,63.48c-.24-.45-.41-.8-.61-1.14-5.07-8.75-10.16-17.49-15.18-26.27-.52-.9-1.06-1.12-2.01-.96-4.07.69-8.15.69-12.23,0-.94-.16-1.49.03-2.01.94-5.02,8.78-10.11,17.52-15.18,26.27-.2.34-.38.7-.62,1.15,15.98,7.29,31.85,7.35,47.83,0Z"/>
      <path class="cls-1" d="M31.27,94.34c-.02,1.98-1.66,3.57-3.65,3.55-2-.02-3.59-1.64-3.57-3.63.02-1.98,1.66-3.57,3.65-3.55,2,.02,3.59,1.64,3.57,3.62Z"/>
      <path class="cls-1" d="M43.34,94.24c.03,1.98-1.56,3.62-3.55,3.65-2,.03-3.65-1.55-3.67-3.52-.03-1.99,1.56-3.62,3.55-3.65,2-.03,3.64,1.54,3.67,3.52Z"/>
      <path class="cls-1" d="M48.17,94.3c0-1.99,1.62-3.59,3.61-3.59,2,0,3.61,1.61,3.61,3.59,0,1.98-1.63,3.59-3.62,3.59-2,0-3.62-1.61-3.61-3.59Z"/>
      <path class="cls-1" d="M67.46,94.35c-.03,1.98-1.67,3.56-3.66,3.54-2-.03-3.59-1.65-3.56-3.64.03-1.98,1.66-3.56,3.66-3.54,2,.02,3.59,1.65,3.56,3.63Z"/>
      <path class="cls-1" d="M93.99,94.25c.03,1.98-1.57,3.61-3.56,3.64-2,.03-3.63-1.55-3.66-3.54-.03-1.98,1.56-3.61,3.56-3.64,2-.03,3.63,1.55,3.66,3.54Z"/>
      <path class="cls-1" d="M60.88,51.24c3.82.04,7.4-.66,10.9-2.36,1.08,2.16,2.13,4.25,3.23,6.44-4.55,2.28-9.29,3.26-14.44,3.12.11-2.43.21-4.76.32-7.2Z"/>
      <path class="cls-1" d="M51.64,46.79c.61-2.34,1.19-4.58,1.81-6.96,3.7.86,7.35.94,11.13-.03.62,2.37,1.22,4.64,1.84,6.98-4.92,1.27-9.75,1.26-14.78,0Z"/>
      <path class="cls-1" d="M46.18,53.73c3.46,1.61,7.03,2.41,10.9,2.32.11,2.41.23,4.75.34,7.21-5.12.16-9.83-.84-14.45-3.1,1.07-2.14,2.11-4.23,3.21-6.43Z"/>
    </g>
  </g>
</svg>