<?xml version="1.0" encoding="UTF-8"?>
<svg id="Capa_1" xmlns="http://www.w3.org/2000/svg" viewBox="0 0 150 150">
  <defs>
    <style>
      .cls-1 {
        fill: #96bd0b;
      }

      .cls-2 {
        fill: #feaca8;
      }
    </style>
  </defs>
  <g id="DO7p2Q.tif">
    <g>
      <path d="M49.88,4.55c.49,0,.97,0,1.46,0,1.2.46,2.4.92,3.58,1.39,9.83,3.95,19.84,5.93,30.35,2.98,4.13-1.16,8.22-2.42,12.06-4.37h2.33c.06.23.24.24.43.3,4.11,1.14,6.07,4.1,5.43,8.27-.32,2.06-.7,4.1-1.06,6.15-.91,5.14-1.82,10.29-2.77,15.43-.15.83-.01,1.11.88,1.04,1.05-.09,1.99.34,2.84.95,14.49,10.37,23.62,23.91,24.93,42.11.1,1.35-.14,2.77.47,4.07v3.78c-.56.39-.27.97-.31,1.46-.84,10.81-3.66,21.05-9,30.51-4.52,8.01-14.36,12.17-23.16,9.91-1.29-.33-2.54-.85-3.86-1.3-.14,1.87-.26,3.66-.4,5.44-.54,7.31-2.9,10.35-9.78,12.65-.03.01-.05.08-.07.13h-19.79c-.12-.43-.54-.37-.83-.47-5.15-1.76-8.11-5.59-8.46-11.01-.11-1.74-.26-3.48-.35-5.23-.04-.89-.13-1.3-1.25-.9-9.89,3.47-20.46-.57-25.55-9.73-4.09-7.36-6.66-15.26-7.94-23.56-1.74-11.23-.94-22.25,3.39-32.85,4.22-10.34,11.57-18.13,20.43-24.65,1-.73,2.02-1.36,3.3-1.33.65.01.68-.26.58-.8-1.29-6.95-2.53-13.92-3.85-20.86-.95-5.04.84-7.95,5.81-9.3.07-.02.11-.14.16-.22ZM94.33,62.66c-.4.26-.79.55-1.21.79-11.99,6.71-24.06,6.81-36.22.43-.45-.23-.84-.65-1.42-.56-.22.53.08.97.22,1.41,2.16,7.24,5.47,13.96,9.31,20.44.25.43.6.74.99,1.04,4.91,3.73,10.15,3.89,15.62,1.45,1.58-.71,2.9-1.68,3.65-3.35.6-1.32,1.42-2.53,2.11-3.81.53-.98,1.01-1.99,1.54-3.04-.28-.05-.33-.08-.37-.07-.41.14-.82.29-1.23.44-7.05,2.68-14.23,3.13-21.55,1.21-1.09-.28-2.03-.7-2.25-1.96-.34-1.92,1.21-3.12,3.4-2.52,7.04,1.91,13.77.93,20.45-1.76,3.47-1.4,5.83-3.44,6.42-7.22.15-.97.91-1.84.51-2.91l.06.03-.04-.04ZM69.36,110.49c2.79-.27,5.58-.65,8.4-.33.84.1,1.67.53,2.59.19-.06-.21-.1-.4-.16-.58-.67-2-.3-3.25,1.13-3.8,1.4-.54,2.55.18,3.36,2.11.15.36.29.72.45,1.07,1.38,3.17,3.07,6.16,5.32,8.81,8.35,9.81,21.85,8.28,27.79-3.15,1.3-2.5,2.42-5.07,3.39-7.71,4.44-12.14,5.64-24.52,2.45-37.15-3.16-12.5-10.81-21.81-21.11-29.17-.06-.04-.18.01-.34.03-.24,3.8-.48,7.62-1.01,11.4-1.74,12.31-5.96,23.72-12.24,34.42-2,3.4-4.42,6.62-5.12,10.68-.2,1.17-1.26,1.72-2.47,1.54-1.18-.18-1.91-.92-1.99-2.15-.04-.58-.06-1.2.13-1.73.46-1.33-.23-1.18-1.1-1-2.14.45-4.3.75-6.49.3-.75-.15-1.74-.55-2.24-.23-.77.48.05,1.46,0,2.25-.11,1.48-.88,2.5-2.2,2.6-1.27.09-2.33-.73-2.49-2.13-.16-1.44-.71-2.71-1.39-3.94-1.29-2.33-2.6-4.66-3.95-6.95-6.72-11.45-10.88-23.75-12.27-36.97-.28-2.68-.47-5.37-.58-8.03-.46-.14-.65.13-.87.29-12.83,9.32-20.73,21.5-22.09,37.59-1.13,13.42,1.8,25.93,8.25,37.63,3.68,6.68,12.04,9.69,19.1,7.17,4.4-1.57,7.46-4.75,9.98-8.56,1.58-2.4,2.76-5,3.88-7.64.57-1.35,1.89-1.87,3.1-1.38,1.23.5,1.75,1.75,1.31,3.13-.15.46-.3.92-.45,1.38l-.02-.02ZM74.61,47.65c3.77.02,7.42-.68,11.02-1.73,6.44-1.89,10.31-6.21,11.6-12.7,1.36-6.84,2.43-13.74,3.66-20.61.2-1.09.11-2.04-.8-2.75-.87-.68-1.8-.47-2.75-.11-2.26.87-4.51,1.77-6.81,2.51-8.01,2.6-16.15,3.62-24.5,1.88-4.85-1.01-9.54-2.53-14.12-4.42-2.31-.96-3.87.3-3.53,2.76.05.34.09.67.15,1.01,1.14,6.29,2.29,12.58,3.42,18.88,1.13,6.31,4.45,10.89,10.56,13.15,3.89,1.43,7.95,2.13,12.11,2.14ZM97.71,43.41c-6.27,7.2-14.38,8.74-22.8,8.79-8.4.05-16.46-1.55-22.83-8.3.14,4.24.72,8.01,1.36,11.78.1.59.54.9.97,1.2,13.68,9.66,27.71,9.31,41.04-.54.43-.32.85-.64.95-1.23.62-3.72,1.17-7.46,1.31-11.7ZM74.43,140.8s0-.02,0-.02c1.31,0,2.62,0,3.93,0,1.31,0,2.62.02,3.93,0,3.2-.07,5.84-2.09,6.7-5.07.28-.97.34-1.44-.99-1.11-5.21,1.3-10.51,1.73-15.87,1.48-1.55-.07-3.1-.17-4.63-.39-1.41-.2-2.25-1.27-2.13-2.49.13-1.25,1.12-2.07,2.55-2.06.68,0,1.36.06,2.03.12,5.6.51,11.14.07,16.61-1.15,3.01-.67,3-.72,3.29-3.72.16-1.64.15-1.64-1.52-1.21-6.7,1.73-13.5,1.97-20.35,1.28-1.71-.17-2.71-1.19-2.6-2.54.12-1.39,1.2-2.17,2.95-2.07,2.18.13,4.35.37,6.53.32,3.59-.08,7.16-.39,10.68-1.12.89-.18.86-.39.42-1.1-1.06-1.67-2.5-2.79-4.32-3.49-2.53-.97-5.15-1.46-7.84-1.23-4.17.36-7.98,1.49-10.49,5.28-.88,1.33-2.07,2.45-3.34,3.43-.65.51-.87,1.05-.8,1.85.24,2.8.38,5.61.65,8.41.39,3.98,3.3,6.57,7.33,6.6,2.42.01,4.85,0,7.27,0Z"/>
      <path class="cls-1" d="M69.38,110.5c.15-.46.3-.92.45-1.38.44-1.39-.08-2.63-1.31-3.13-1.21-.5-2.52.02-3.1,1.38-1.12,2.64-2.3,5.24-3.88,7.64-2.51,3.8-5.58,6.98-9.98,8.56-7.06,2.52-15.42-.49-19.1-7.17-6.45-11.7-9.38-24.21-8.25-37.63,1.36-16.09,9.26-28.27,22.09-37.59.22-.16.41-.43.87-.29.12,2.66.3,5.35.58,8.03,1.39,13.22,5.55,25.52,12.27,36.97,1.35,2.3,2.66,4.62,3.95,6.95.68,1.23,1.23,2.5,1.39,3.94.16,1.4,1.23,2.22,2.49,2.13,1.32-.09,2.1-1.12,2.2-2.6.06-.79-.76-1.77,0-2.25.51-.31,1.49.08,2.24.23,2.19.44,4.35.15,6.49-.3.86-.18,1.56-.33,1.1,1-.18.53-.16,1.16-.13,1.73.08,1.23.81,1.98,1.99,2.15,1.2.18,2.27-.37,2.47-1.54.7-4.06,3.12-7.28,5.12-10.68,6.29-10.7,10.51-22.12,12.24-34.42.54-3.79.77-7.6,1.01-11.4.17-.02.29-.07.34-.03,10.3,7.36,17.95,16.66,21.11,29.17,3.19,12.63,2,25-2.45,37.15-.97,2.64-2.09,5.22-3.39,7.71-5.94,11.43-19.44,12.96-27.79,3.15-2.25-2.65-3.94-5.63-5.32-8.81-.15-.36-.3-.72-.45-1.07-.81-1.93-1.96-2.65-3.36-2.11-1.42.55-1.8,1.8-1.13,3.8.06.18.1.36.16.58-.92.34-1.75-.09-2.59-.19-2.82-.32-5.61.06-8.4.33l.02.02Z"/>
      <path class="cls-1" d="M74.61,47.65c-4.16,0-8.22-.7-12.11-2.14-6.11-2.25-9.43-6.84-10.56-13.15-1.13-6.29-2.28-12.59-3.42-18.88-.06-.33-.11-.67-.15-1.01-.34-2.46,1.22-3.71,3.53-2.76,4.58,1.89,9.27,3.41,14.12,4.42,8.35,1.74,16.49.72,24.5-1.88,2.3-.75,4.56-1.64,6.81-2.51.96-.37,1.88-.58,2.75.11.91.71,1,1.66.8,2.75-1.23,6.87-2.3,13.77-3.66,20.61-1.29,6.49-5.16,10.81-11.6,12.7-3.6,1.06-7.25,1.75-11.02,1.74Z"/>
      <path class="cls-1" d="M97.71,43.41c-.14,4.24-.69,7.97-1.31,11.7-.1.59-.52.91-.95,1.23-13.33,9.85-27.36,10.2-41.04.54-.44-.31-.87-.61-.97-1.2-.64-3.77-1.22-7.54-1.36-11.78,6.37,6.76,14.43,8.35,22.83,8.3,8.42-.05,16.53-1.59,22.8-8.79Z"/>
      <path class="cls-1" d="M94.31,62.67c.41,1.07-.35,1.94-.5,2.91-.59,3.78-2.94,5.82-6.42,7.22-6.68,2.69-13.41,3.66-20.45,1.76-2.19-.59-3.74.61-3.4,2.52.22,1.26,1.17,1.67,2.25,1.96,7.31,1.92,14.49,1.47,21.55-1.21.41-.15.82-.3,1.23-.44.04-.01.09.01.37.07-.53,1.05-1.01,2.06-1.54,3.04-.69,1.28-1.51,2.49-2.11,3.81-.76,1.67-2.07,2.64-3.65,3.35-5.48,2.44-10.71,2.28-15.62-1.45-.39-.3-.73-.61-.99-1.04-3.84-6.48-7.14-13.2-9.31-20.44-.13-.45-.44-.88-.22-1.41.58-.09.98.33,1.42.56,12.15,6.38,24.22,6.28,36.22-.43.42-.23.81-.52,1.21-.79h-.02Z"/>
      <path class="cls-1" d="M74.43,140.8c-2.42,0-4.85.01-7.27,0-4.03-.02-6.94-2.61-7.33-6.6-.27-2.8-.41-5.61-.65-8.41-.07-.8.15-1.35.8-1.85,1.26-.98,2.46-2.1,3.34-3.43,2.5-3.79,6.31-4.92,10.49-5.28,2.69-.23,5.31.26,7.84,1.23,1.82.7,3.26,1.82,4.32,3.49.45.7.47.91-.42,1.1-3.53.73-7.09,1.04-10.68,1.12-2.19.05-4.36-.18-6.53-.32-1.75-.11-2.83.67-2.95,2.07-.12,1.35.88,2.37,2.6,2.54,6.85.7,13.65.46,20.35-1.28,1.67-.43,1.67-.43,1.52,1.21-.28,3-.27,3.05-3.29,3.72-5.47,1.23-11.01,1.67-16.61,1.15-.68-.06-1.35-.12-2.03-.12-1.42-.01-2.42.81-2.55,2.06-.12,1.21.72,2.29,2.13,2.49,1.53.21,3.09.32,4.63.39,5.36.25,10.66-.19,15.87-1.48,1.33-.33,1.27.13.99,1.11-.87,2.98-3.5,5-6.7,5.07-1.31.03-2.62,0-3.93,0-1.31,0-2.62,0-3.93,0,0,0,0,.02,0,.02Z"/>
      <polygon class="cls-2" points="94.33 62.66 94.37 62.7 94.31 62.67 94.33 62.66"/>
      <path class="cls-2" d="M69.36,110.49s.02.02.02.02c0,0-.02-.02-.02-.02Z"/>
    </g>
  </g>
</svg>