<?xml version="1.0"?>
<svg width="512" height="512" xmlns="http://www.w3.org/2000/svg" xmlns:svg="http://www.w3.org/2000/svg" clip-rule="evenodd" fill-rule="evenodd" version="1.1">
 <g class="layer">
  <title>Layer 1</title>
  <g id="svg_1">
   <path d="m249.5,10.5c13.53,-2.16 22.36,3.17 26.5,16c0.67,69.67 0.67,139.33 0,209c-5.15,14.12 -14.98,18.95 -29.5,14.5c-5.67,-3.34 -9.5,-8.18 -11.5,-14.5c-0.67,-69.67 -0.67,-139.33 0,-209c1.95,-8.11 6.78,-13.44 14.5,-16z" fill="#96bd0b" id="svg_2" opacity="0.97"/>
  </g>
  <g id="svg_3">
   <path d="m174.5,34.5c6.67,0 13.33,0 20,0c0,14 0,28 0,42c-31.26,-0.09 -61.93,4.07 -92,12.5c-4.53,1.51 -8.7,3.68 -12.5,6.5c-3.29,20.34 -14.46,26.18 -33.5,17.5c-6.25,-4.59 -8.92,-10.75 -8,-18.5c0.86,-17.03 8.86,-29.53 24,-37.5c14.21,-7.3 29.21,-12.3 45,-15c19.01,-3.58 38.01,-6.08 57,-7.5z" fill="#96bd0b" id="svg_4" opacity="0.97"/>
  </g>
  <g id="svg_5">
   <path d="m316.5,34.5c37.24,-0.35 73.58,5.15 109,16.5c10.92,4.04 20.42,10.2 28.5,18.5c8.35,10.79 10.68,22.79 7,36c-6.33,9.56 -15.16,13.06 -26.5,10.5c-8.72,-3.92 -13.39,-10.75 -14,-20.5c-8.29,-5.15 -17.29,-8.65 -27,-10.5c-25.37,-5.5 -51.04,-8.34 -77,-8.5c0,-14 0,-28 0,-42z" fill="#96bd0b" id="svg_6" opacity="0.97"/>
  </g>
  <g id="svg_7">
   <path d="m174.5,115.5c6.67,0 13.33,0 20,0c0,14 0,28 0,42c-28.76,0.1 -57.09,3.6 -85,10.5c-6.87,1.77 -13.2,4.6 -19,8.5c-3.75,19.21 -14.75,25.37 -33,18.5c-8.59,-7.24 -11.43,-16.4 -8.5,-27.5c4.15,-14.82 13.31,-25.32 27.5,-31.5c14.71,-6.68 30.04,-11.35 46,-14c17.4,-2.87 34.73,-5.04 52,-6.5z" fill="#96bd0b" id="svg_8" opacity="0.97"/>
  </g>
  <g id="svg_9">
   <path d="m316.5,115.5c37.24,-0.35 73.58,5.15 109,16.5c10.92,4.04 20.42,10.2 28.5,18.5c9.15,12.12 10.82,25.12 5,39c-11.91,11.95 -23.58,11.62 -35,-1c-1.67,-3.85 -2.84,-7.85 -3.5,-12c-3.61,-2.82 -7.61,-4.99 -12,-6.5c-30.09,-8.36 -60.75,-12.53 -92,-12.5c0,-14 0,-28 0,-42z" fill="#96bd0b" id="svg_10" opacity="0.97"/>
  </g>
  <g id="svg_11">
   <path d="m176.5,196.5c6,0 12,0 18,0c0.33,14 0.67,28 1,42c-30.17,-0.02 -59.84,3.81 -89,11.5c-6.14,1.65 -11.64,4.49 -16.5,8.5c-3.99,18.58 -14.82,24.41 -32.5,17.5c-8.6,-7.19 -11.43,-16.36 -8.5,-27.5c4.15,-14.82 13.31,-25.32 27.5,-31.5c14.75,-6.52 30.09,-11.19 46,-14c18.07,-2.88 36.07,-5.04 54,-6.5z" fill="#96bd0b" id="svg_12" opacity="0.97"/>
  </g>
  <g id="svg_13">
   <path d="m316.5,196.5c37.23,-0.23 73.56,5.27 109,16.5c10.92,4.04 20.42,10.2 28.5,18.5c7.52,9.76 10.19,20.76 8,33c-6.54,14.26 -17.04,18.09 -31.5,11.5c-5.82,-4.8 -9.15,-10.96 -10,-18.5c-4.94,-3.3 -10.27,-5.8 -16,-7.5c-29.16,-7.69 -58.82,-11.52 -89,-11.5c0.79,-13.99 1.13,-27.99 1,-42z" fill="#96bd0b" id="svg_14" opacity="0.97"/>
  </g>
  <g id="svg_15">
   <path d="m240.5,284.5c10.01,-0.17 20.01,0 30,0.5c10,3.17 15.33,10 16,20.5c-0.88,11.38 -6.88,18.21 -18,20.5c-8.67,0.67 -17.33,0.67 -26,0c-12.51,-2.85 -18.34,-10.68 -17.5,-23.5c1.81,-8.97 6.98,-14.97 15.5,-18z" fill="#96bd0b" id="svg_16" opacity="0.95"/>
  </g>
  <g id="svg_17">
   <path d="m244.5,356.5c9.38,-0.32 18.72,0.18 28,1.5c13.41,7.12 16.91,17.62 10.5,31.5c-3.09,4.43 -7.26,7.26 -12.5,8.5c-10,0.67 -20,0.67 -30,0c-13.14,-4.78 -17.97,-13.94 -14.5,-27.5c3.77,-7.96 9.94,-12.62 18.5,-14z" fill="#96bd0b" id="svg_18" opacity="0.95"/>
  </g>
  <g id="svg_19">
   <path d="m142.5,385.5c31.61,-2.37 55.61,9.8 72,36.5c27.33,0.67 54.67,0.67 82,0c14.11,-24.15 35.28,-36.31 63.5,-36.5c30.04,0.42 51.38,14.09 64,41c6.73,33.04 -5.44,56.21 -36.5,69.5c-26.93,9.25 -51.93,5.58 -75,-11c-6.09,-5.69 -11.09,-12.19 -15,-19.5c-28,-1.33 -56,-1.33 -84,0c-8.83,16.26 -22.16,27.1 -40,32.5c-30.07,7.86 -55.91,0.69 -77.5,-21.5c-18.21,-28.48 -14.71,-53.98 10.5,-76.5c10.95,-7.7 22.95,-12.53 36,-14.5z" fill="#96bd0b" id="svg_20" opacity="0.98"/>
  </g>
 </g>
</svg>