<?xml version="1.0" encoding="UTF-8"?>
<svg id="Capa_1" data-name="Capa 1" xmlns="http://www.w3.org/2000/svg" viewBox="0 0 150 150">
  <defs>
    <style>
      .cls-1 {
        fill: #96bd0b;
        stroke-width: 0px;
      }
    </style>
  </defs>
  <path class="cls-1" d="M133.8,55.84c0,10.41-8.47,18.88-18.88,18.88-2.99,0-5.89-.69-8.51-2.02l-29.78,29.78c1.33,2.62,2.02,5.53,2.02,8.51,0,10.41-8.47,18.88-18.88,18.88-9.57,0-17.5-7.16-18.72-16.41-9.32-1.3-16.38-9.19-16.38-18.69,0-10.41,8.47-18.88,18.88-18.88,2.99,0,5.89.7,8.51,2.02l29.79-29.79c-1.33-2.62-2.02-5.52-2.02-8.51,0-10.41,8.47-18.88,18.88-18.88,9.58,0,17.51,7.16,18.73,16.41,9.32,1.3,16.38,9.19,16.38,18.69Z"/>
</svg>