<?xml version="1.0" encoding="UTF-8"?>
<svg id="Capa_1" data-name="Capa 1" xmlns="http://www.w3.org/2000/svg" viewBox="0 0 150 150">
  <defs>
    <style>
      .cls-1 {
        fill: #96bd0b;
        stroke-width: 0px;
      }
    </style>
  </defs>
  <path class="cls-1" d="M88.13,106c-6.63,2.57-11.77,1.13-11.77,1.13-2.49-.47-1.55-1.28-1.55-1.28.22-.3,1.05-1.27,3.5-2.45.95-.55,18.65-10.89,29.29-26.55.54,2.86,2.85,20.38-19.43,29.13M18.36,134.88c-1.59,0-2.93-1.19-3.12-2.78-2-17.21.6-30.2,7.74-38.61,7.08-8.33,16-8.85,16.38-8.87,28.36-4.06,33.68-29.63,34.56-35.81-11.77-12.48-11.84-29.42-11.91-30.15-.28-2.94,3.14-3.14,3.14-3.14h0l22.6.05c1.51,0,2.8,1.08,3.08,2.57.02.12,2.17,11.29,9.57,17.02,5.97.36,32.82,3.99,33.98,39.71,0,0,4.21,44.49-38.52,57.41,0,0-27.3,11.65-49.26-12.68-.54-.26-1.51-.66-2.07-.06-.5.54-2.12,2-1.29,11.89.28,3.34-3.12,3.41-3.12,3.41l-21.76.03ZM92.95,117.59c26.31-10.33,29.16-32.53,26.96-43.22-.42-4.26-2.58-20.64-11.01-20.64-2.41,0-5.6,1.44-6.65,5.51-4.73,18.32-29.81,33.07-29.76,33.07-8.03,3.8-9.57,9.26-9.7,9.91-2.31,8.02,2.5,13.21,5.05,14.64,0,0,8.71,6.71,25.11.73Z"/>
</svg>