<?xml version="1.0" encoding="UTF-8"?>
<svg id="Capa_1" data-name="Capa 1" xmlns="http://www.w3.org/2000/svg" viewBox="0 0 150 150">
  <defs>
    <style>
      .cls-1 {
        fill: #96bd0b;
      }

      .cls-1, .cls-2 {
        stroke-width: 0px;
      }

      .cls-2 {
        fill: #fff;
      }
    </style>
  </defs>
  <g id="_00Baha" data-name="00Baha">
    <g>
      <path class="cls-1" d="M115.6,28.99c3.28-.94,6.42-1.8,9.54-2.74,2.84-.86,5.67-1.48,8.67-.73,6.96,1.76,11,9.16,8.7,16-1.12,3.32-3.47,5.51-6.31,7.35-2.53,1.64-5.03,3.32-7.44,5.13-6.21,4.68-9.59,11-10.5,18.67-.03.29.2.77.45.9,4.17,2.18,6.48,5.57,6.32,10.29-.17,4.82-2.79,8.22-6.92,10.56-1.95,1.1-4.11,1.38-6.15.88-3.31-.81-5.63-2.85-6.43-6.42-1.19-5.29.3-9.66,4.14-13.34.56-.54,1.2-1.12,1.91-1.37,1.32-.45,1.54-1.43,1.64-2.57.28-3.17,1.15-6.2,2.41-9.1,2.64-6.07,6.86-10.78,12.4-14.37,2.29-1.48,4.52-3.05,6.75-4.62,3.03-2.11,4.05-5.83,2.52-9.03-1.58-3.31-5.04-4.84-8.65-3.83-4,1.12-8.01,2.23-12,3.4-.41.12-.83.53-1.04.92-4.12,7.63-9.89,13.56-17.95,16.96-4.64,1.96-7.96,5.16-10.16,9.6-3.07,6.21-3.68,12.75-2.53,19.51.48,2.85,2.08,4.87,4.58,6.29,4.65,2.64,7.24,6.66,7.21,12.01-.01,2.32-.81,4.65-1.31,6.96-1.56,7.22-3.12,14.44-4.73,21.65-.71,3.18-1.3,6.42-2.39,9.48-1.26,3.52-4.12,5.41-7.84,5.6-3.47.17-6.97.12-10.45.01-4.05-.12-7.43-3.18-8.34-7.17-1.51-6.68-3.1-13.34-4.62-20.01-1.09-4.75-2.33-9.48-3.13-14.28-1-6.02,1.67-11.18,6.98-14.17,2.82-1.59,4.34-3.99,4.82-7.1.84-5.46.4-10.82-1.53-16.01-2.11-5.68-5.64-10-11.44-12.43-8.07-3.38-13.8-9.37-17.88-17.02-.16-.31-.51-.62-.84-.71-4.27-1.25-8.52-2.52-12.82-3.65-3.16-.83-6.66,1.06-8.05,4.15-1.38,3.07-.36,6.82,2.47,8.81,2.7,1.9,5.46,3.7,8.16,5.6,7.72,5.44,12.23,12.84,13.49,22.21.06.46.06.95.23,1.37.17.42.42.91.79,1.11,3.99,2.2,6.31,5.6,7.04,10.03.49,2.96.02,5.85-1.76,8.37-2.25,3.18-6.4,4.17-10.3,2.67-4.49-1.73-7.94-6.73-7.8-11.52.13-4.39,2.29-7.58,6.14-9.68.31-.17.68-.68.65-.99-.57-5.34-2.51-10.13-5.92-14.3-1.81-2.21-3.97-4.03-6.34-5.62-2.35-1.58-4.68-3.2-7.02-4.79-4.21-2.85-6.4-7.97-5.4-12.61,1.15-5.34,5.02-9.15,10.27-10.02,2.59-.43,5.06.21,7.51.96,2.16.66,4.34,1.27,6.51,1.86.28.08.72.05.92-.13,1.26-1.12,2.45-2.3,3.69-3.43,1.22-1.11,2.41-2.25,3.72-3.24,1.2-.91,2.68-1.49,3.8-2.48,3.46-3.04,7.58-4.93,11.68-6.83,4.84-2.24,9.89-3.92,15.24-4.33,14.43-1.1,27.45,2.53,38.66,11.92,1.28,1.07,2.46,2.26,3.65,3.44,1.32,1.32,1.47,3.14,2,4.81.11.33.19.67.33,1.16ZM38.02,29.83c.45.56.85.94,1.1,1.39.78,1.43,1.37,2.99,2.27,4.34,3.36,5.07,7.64,9.18,13.33,11.49,6.11,2.48,10.4,6.73,13.22,12.59,2.12,4.4,3.11,9.08,3.36,13.92.18,3.46-.08,6.91-1.07,10.23-1.09,3.63-3.46,6.27-6.78,8.14-3.71,2.09-5.21,5.82-4.26,9.88,1.32,5.62,2.56,11.25,3.84,16.87,1.22,5.35,2.44,10.69,3.68,16.03.43,1.83,1.95,3.15,3.74,3.17,3.23.04,6.46.05,9.7,0,1.8-.03,3.34-1.42,3.74-3.17.47-2.06.97-4.12,1.43-6.18.34-1.52.64-3.04.98-4.67-2.35,0-4.53.02-6.72,0-2.11-.02-3.22-1.59-2.59-3.56.32-1,1.24-1.58,2.65-1.59,2.3-.02,4.6.01,6.89-.02.33,0,.9-.18.96-.39.36-1.3.6-2.62.91-4.06-.54,0-.93,0-1.32,0-2.66,0-5.31,0-7.97-.04-1.15-.02-2.03-.84-2.27-1.94-.25-1.12.26-2.36,1.29-2.82.54-.24,1.18-.33,1.77-.34,2.87-.02,5.74.02,8.62,0,.36,0,.98-.11,1.03-.29.37-1.32.63-2.67.94-4.08-.43-.03-.68-.07-.92-.07-3.23,0-6.46.02-9.7.01-.46,0-.95-.02-1.37-.17-1.19-.4-1.86-1.56-1.68-2.8.18-1.28,1.17-2.17,2.53-2.18,3.7-.02,7.4,0,11.1-.01.38,0,.76,0,1.25,0-.07-.66-.07-1.16-.18-1.64-.59-2.77-2.19-4.76-4.65-6.14-3.45-1.93-5.85-4.75-6.71-8.66-1.55-7.04-1.12-14,1.37-20.77,2.51-6.82,6.77-12.13,13.67-14.95,6.81-2.78,11.65-7.71,15.33-13.91.32-.54.39-1.36.28-2-.22-1.3-.57-2.6-1-3.85-.23-.68-.65-1.36-1.16-1.87-6.69-6.58-14.71-10.67-23.91-12.35-5.65-1.03-11.37-1.24-17.02-.03-8.34,1.78-15.71,5.77-22.62,10.6-2.47,1.73-4.67,3.85-7.09,5.86ZM120.12,83.48c-.38-1.02-.55-2.21-1.18-3.04-2.21-2.91-3.69-3.17-6.08-.75-2.13,2.15-3.11,4.67-2.53,7.8.46,2.48,2.72,3.23,4.39,2.82,2.66-.64,5.17-4.06,5.4-6.84ZM40.42,85.5c-.1-1.96-.88-3.92-2.4-5.56-2.94-3.16-5-2.03-6.88,1.32-.03.06-.05.13-.07.2-1.01,2.69.18,5.96,2.85,7.81,1.36.95,2.87,1.53,4.44.73,1.66-.85,2.03-2.49,2.07-4.5Z"/>
      <path class="cls-2" d="M38.02,29.83c2.41-2.01,4.62-4.13,7.09-5.86,6.91-4.83,14.28-8.82,22.62-10.6,5.65-1.2,11.37-1,17.02.03,9.2,1.68,17.22,5.76,23.91,12.35.51.5.92,1.19,1.16,1.87.43,1.25.78,2.54,1,3.85.11.64.04,1.46-.28,2-3.69,6.19-8.52,11.12-15.33,13.91-6.89,2.82-11.16,8.13-13.67,14.95-2.49,6.77-2.92,13.72-1.37,20.77.86,3.91,3.26,6.73,6.71,8.66,2.46,1.38,4.06,3.37,4.65,6.14.1.48.11.98.18,1.64-.49,0-.87,0-1.25,0-3.7,0-7.4-.01-11.1.01-1.37,0-2.35.9-2.53,2.18-.18,1.24.49,2.4,1.68,2.8.43.14.91.17,1.37.17,3.23,0,6.46,0,9.7-.01.24,0,.49.04.92.07-.31,1.41-.57,2.76-.94,4.08-.05.18-.67.29-1.03.29-2.87.01-5.74-.03-8.62,0-.59,0-1.23.1-1.77.34-1.03.46-1.53,1.69-1.29,2.82.24,1.1,1.12,1.92,2.27,1.94,2.66.05,5.31.03,7.97.04.39,0,.78,0,1.32,0-.31,1.44-.55,2.76-.91,4.06-.06.21-.62.38-.96.39-2.3.03-4.6,0-6.89.02-1.42.01-2.33.58-2.65,1.59-.64,1.98.48,3.54,2.59,3.56,2.19.02,4.37,0,6.72,0-.34,1.63-.64,3.16-.98,4.67-.46,2.06-.96,4.12-1.43,6.18-.4,1.75-1.95,3.15-3.74,3.17-3.23.05-6.46.05-9.7,0-1.79-.02-3.31-1.34-3.74-3.17-1.24-5.34-2.46-10.69-3.68-16.03-1.28-5.62-2.52-11.26-3.84-16.87-.95-4.06.55-7.79,4.26-9.88,3.32-1.87,5.69-4.5,6.78-8.14.99-3.32,1.25-6.77,1.07-10.23-.25-4.85-1.24-9.52-3.36-13.92-2.82-5.86-7.12-10.11-13.22-12.59-5.69-2.31-9.97-6.43-13.33-11.49-.9-1.35-1.49-2.9-2.27-4.34-.25-.46-.65-.84-1.1-1.39ZM75.35,16.44c-2.08.12-4.16.16-6.23.39-9.57,1.06-17.7,5.16-24.63,11.76-1.27,1.21-1.55,1.83-.57,3.61,2.89,5.25,7.13,9.05,12.62,11.53,2.3,1.04,4.57,2.28,6.59,3.79,4.72,3.51,7.64,8.38,9.66,13.82.47,1.26,1.27,1.89,2.44,1.93,1.32.04,2.11-.66,2.77-2.4,2.97-7.88,8-13.88,15.92-17.13,5.58-2.29,9.59-6.31,12.78-11.27.8-1.24.7-2.6-.26-3.55-2.8-2.75-5.84-5.18-9.29-7.07-6.79-3.71-14.04-5.52-21.8-5.41Z"/>
      <path class="cls-1" d="M120.12,83.48c-.24,2.78-2.75,6.2-5.4,6.84-1.68.4-3.94-.35-4.39-2.82-.58-3.13.4-5.65,2.53-7.8,2.4-2.42,3.87-2.16,6.08.75.63.83.8,2.01,1.18,3.04Z"/>
      <path class="cls-1" d="M40.42,85.5c-.04,2.01-.41,3.65-2.07,4.5-1.57.8-3.08.21-4.44-.73-2.67-1.85-3.85-5.12-2.85-7.81.03-.07.04-.14.07-.2,1.87-3.34,3.94-4.48,6.88-1.32,1.52,1.64,2.31,3.6,2.4,5.56Z"/>
      <path class="cls-1" d="M75.35,16.44c7.75-.12,15.01,1.69,21.8,5.41,3.45,1.89,6.49,4.32,9.29,7.07.96.94,1.06,2.31.26,3.55-3.19,4.97-7.2,8.98-12.78,11.27-7.92,3.26-12.95,9.25-15.92,17.13-.66,1.74-1.45,2.44-2.77,2.4-1.16-.04-1.97-.67-2.44-1.93-2.02-5.45-4.95-10.31-9.66-13.82-2.02-1.5-4.29-2.75-6.59-3.79-5.5-2.48-9.73-6.28-12.62-11.53-.98-1.78-.7-2.4.57-3.61,6.93-6.6,15.07-10.69,24.63-11.76,2.06-.23,4.15-.26,6.23-.39ZM75.32,54.14c.15-.22.25-.37.34-.52,3.47-6.18,8.26-10.96,14.74-13.97,1.46-.68,3.02-1.19,4.34-2.08,1.64-1.11,3.11-2.47,4.56-3.83.78-.73,1.35-1.69,2-2.52-14.63-13.77-40.42-11.82-51.87.03,1.83,3.02,5.51,6.2,9.08,7.64,5.96,2.41,10.74,6.26,14.42,11.51.83,1.19,1.58,2.44,2.41,3.73Z"/>
      <path class="cls-1" d="M75.32,54.14c-.83-1.29-1.58-2.54-2.41-3.73-3.67-5.25-8.45-9.1-14.42-11.51-3.57-1.44-7.25-4.62-9.08-7.64,11.45-11.85,37.24-13.8,51.87-.03-.65.84-1.22,1.79-2,2.52-1.45,1.36-2.92,2.72-4.56,3.83-1.31.89-2.88,1.4-4.34,2.08-6.48,3.01-11.27,7.79-14.74,13.97-.09.15-.19.29-.34.52Z"/>
    </g>
  </g>
</svg>