<?xml version="1.0" encoding="UTF-8"?>
<svg id="Capa_2" xmlns="http://www.w3.org/2000/svg" viewBox="0 0 57.73 57.69">
  <defs>
    <style>
      .cls-1 {
        fill: #96bd0b;
      }
    </style>
  </defs>
  <g id="Capa_1-2" data-name="Capa_1">
    <g id="_00Baha">
      <g>
        <path class="cls-1" d="M46.02,9.15c1.39-.4,2.73-.77,4.06-1.17,1.21-.37,2.41-.63,3.69-.31,2.96.75,4.68,3.89,3.7,6.8-.48,1.41-1.48,2.34-2.68,3.13-1.08.7-2.14,1.41-3.16,2.18-2.64,1.99-4.08,4.68-4.46,7.94-.01.12.09.33.19.38,1.77.93,2.76,2.37,2.69,4.38-.07,2.05-1.19,3.5-2.94,4.49-.83.47-1.75.59-2.62.37-1.41-.34-2.39-1.21-2.73-2.73-.51-2.25.13-4.11,1.76-5.67.24-.23.51-.48.81-.58.56-.19.65-.61.7-1.09.12-1.35.49-2.64,1.02-3.87,1.12-2.58,2.92-4.58,5.27-6.11.97-.63,1.92-1.3,2.87-1.96,1.29-.9,1.72-2.48,1.07-3.84-.67-1.41-2.14-2.06-3.68-1.63-1.7.48-3.41.95-5.1,1.45-.17.05-.35.23-.44.39-1.75,3.24-4.21,5.77-7.63,7.21-1.97.83-3.38,2.19-4.32,4.08-1.31,2.64-1.56,5.42-1.08,8.3.2,1.21.88,2.07,1.95,2.67,1.98,1.12,3.08,2.83,3.07,5.11,0,.99-.34,1.98-.56,2.96-.66,3.07-1.33,6.14-2.01,9.21-.3,1.35-.55,2.73-1.02,4.03-.54,1.5-1.75,2.3-3.33,2.38-1.48.07-2.96.05-4.44,0-1.72-.05-3.16-1.35-3.55-3.05-.64-2.84-1.32-5.67-1.96-8.51-.46-2.02-.99-4.03-1.33-6.07-.43-2.56.71-4.75,2.97-6.03,1.2-.68,1.85-1.7,2.05-3.02.36-2.32.17-4.6-.65-6.81-.9-2.42-2.4-4.25-4.86-5.29-3.43-1.44-5.87-3.98-7.6-7.24-.07-.13-.22-.26-.36-.3-1.82-.53-3.62-1.07-5.45-1.55-1.34-.35-2.83.45-3.42,1.76-.59,1.31-.15,2.9,1.05,3.75,1.15.81,2.32,1.57,3.47,2.38,3.28,2.31,5.2,5.46,5.74,9.44.03.2.03.4.1.58.07.18.18.39.34.47,1.7.94,2.68,2.38,2.99,4.26.21,1.26,0,2.49-.75,3.56-.96,1.35-2.72,1.77-4.38,1.14-1.91-.74-3.38-2.86-3.32-4.9.06-1.87.97-3.22,2.61-4.12.13-.07.29-.29.28-.42-.24-2.27-1.07-4.31-2.52-6.08-.77-.94-1.69-1.71-2.7-2.39-1-.67-1.99-1.36-2.98-2.04C.61,15.98-.32,13.81.1,11.83c.49-2.27,2.13-3.89,4.37-4.26,1.1-.18,2.15.09,3.19.41.92.28,1.85.54,2.77.79.12.03.31.02.39-.06.54-.48,1.04-.98,1.57-1.46.52-.47,1.02-.96,1.58-1.38.51-.39,1.14-.63,1.62-1.05,1.47-1.29,3.22-2.1,4.97-2.9,2.06-.95,4.21-1.67,6.48-1.84,6.14-.47,11.67,1.08,16.44,5.07.54.45,1.05.96,1.55,1.46.56.56.63,1.34.85,2.05.05.14.08.28.14.49h0ZM13.03,9.51c.19.24.36.4.47.59.33.61.58,1.27.97,1.85,1.43,2.16,3.25,3.9,5.67,4.89,2.6,1.05,4.42,2.86,5.62,5.35.9,1.87,1.32,3.86,1.43,5.92.08,1.47-.03,2.94-.45,4.35-.46,1.54-1.47,2.67-2.88,3.46-1.58.89-2.22,2.47-1.81,4.2.56,2.39,1.09,4.78,1.63,7.17.52,2.27,1.04,4.55,1.56,6.82.18.78.83,1.34,1.59,1.35,1.37.02,2.75.02,4.12,0,.77-.01,1.42-.6,1.59-1.35.2-.88.41-1.75.61-2.63.14-.65.27-1.29.42-1.99-1,0-1.93,0-2.86,0-.9,0-1.37-.68-1.1-1.51.14-.43.53-.67,1.13-.68.98,0,1.96,0,2.93,0,.14,0,.38-.08.41-.17.15-.55.26-1.11.39-1.73h-.56c-1.13,0-2.26,0-3.39-.02-.49,0-.86-.36-.97-.82-.11-.48.11-1,.55-1.2.23-.1.5-.14.75-.14,1.22,0,2.44,0,3.67,0,.15,0,.42-.05.44-.12.16-.56.27-1.14.4-1.73-.18-.01-.29-.03-.39-.03-1.37,0-2.75,0-4.12,0-.2,0-.4,0-.58-.07-.51-.17-.79-.66-.71-1.19.08-.54.5-.92,1.08-.93,1.57,0,3.15,0,4.72,0h.53c-.03-.28-.03-.49-.08-.7-.25-1.18-.93-2.02-1.98-2.61-1.47-.82-2.49-2.02-2.85-3.68-.66-2.99-.48-5.95.58-8.83,1.07-2.9,2.88-5.16,5.81-6.36,2.9-1.18,4.95-3.28,6.52-5.91.14-.23.17-.58.12-.85-.09-.55-.24-1.11-.43-1.64-.1-.29-.28-.58-.49-.8-2.84-2.8-6.25-4.54-10.17-5.25-2.4-.44-4.83-.53-7.24-.01-3.55.76-6.68,2.45-9.62,4.51-1.05.74-1.99,1.64-3.01,2.49h0ZM47.94,32.32c-.16-.43-.23-.94-.5-1.29-.94-1.24-1.57-1.35-2.59-.32-.91.91-1.32,1.99-1.08,3.32.2,1.05,1.16,1.37,1.87,1.2,1.13-.27,2.2-1.73,2.3-2.91h0ZM14.05,33.18c-.04-.83-.37-1.67-1.02-2.36-1.25-1.34-2.13-.86-2.93.56-.01.03-.02.06-.03.09-.43,1.14.08,2.53,1.21,3.32.58.4,1.22.65,1.89.31.71-.36.86-1.06.88-1.91h0Z"/>
        <path class="cls-1" d="M47.94,32.32c-.1,1.18-1.17,2.64-2.3,2.91-.71.17-1.68-.15-1.87-1.2-.25-1.33.17-2.4,1.08-3.32,1.02-1.03,1.65-.92,2.59.32.27.35.34.85.5,1.29h0Z"/>
        <path class="cls-1" d="M14.05,33.18c-.02.85-.17,1.55-.88,1.91-.67.34-1.31.09-1.89-.31-1.14-.79-1.64-2.18-1.21-3.32.01-.03.02-.06.03-.09.8-1.42,1.68-1.9,2.93-.56.65.7.98,1.53,1.02,2.36h0Z"/>
        <path class="cls-1" d="M28.9,3.81c3.3-.05,6.38.72,9.27,2.3,1.47.8,2.76,1.84,3.95,3.01.41.4.45.98.11,1.51-1.36,2.11-3.06,3.82-5.43,4.79-3.37,1.39-5.51,3.93-6.77,7.28-.28.74-.62,1.04-1.18,1.02-.49-.02-.84-.28-1.04-.82-.86-2.32-2.1-4.38-4.11-5.88-.86-.64-1.82-1.17-2.8-1.61-2.34-1.05-4.14-2.67-5.37-4.9-.42-.76-.3-1.02.24-1.54,2.95-2.81,6.41-4.55,10.47-5,.88-.1,1.76-.11,2.65-.17ZM28.89,19.84c.06-.09.11-.16.14-.22,1.48-2.63,3.51-4.66,6.27-5.94.62-.29,1.28-.51,1.85-.88.7-.47,1.32-1.05,1.94-1.63.33-.31.57-.72.85-1.07-6.22-5.86-17.19-5.03-22.06.01.78,1.28,2.34,2.64,3.86,3.25,2.53,1.02,4.57,2.66,6.13,4.89.35.51.67,1.04,1.02,1.59h0Z"/>
        <path class="cls-1" d="M28.89,19.84c-.35-.55-.67-1.08-1.02-1.59-1.56-2.23-3.59-3.87-6.13-4.89-1.52-.61-3.08-1.96-3.86-3.25,4.87-5.04,15.83-5.87,22.06-.01-.28.36-.52.76-.85,1.07-.62.58-1.24,1.16-1.94,1.63-.56.38-1.22.6-1.85.88-2.76,1.28-4.79,3.31-6.27,5.94-.04.06-.08.12-.14.22h0Z"/>
      </g>
    </g>
  </g>
</svg>