<?xml version="1.0" encoding="UTF-8"?>
<svg id="Capa_1" data-name="Capa 1" xmlns="http://www.w3.org/2000/svg" viewBox="0 0 150 150">
  <defs>
    <style>
      .cls-1 {
        fill: #96bd0b;
        stroke-width: 0px;
      }
    </style>
  </defs>
  <g id="SZRX4A.tif">
    <g>
      <path class="cls-1" d="M64.15,130.32H29.27c-4.02-1.45-5.05-2.95-5.05-7.32,0-13.45.01-26.89-.02-40.34,0-1.03.29-1.71,1.1-2.38,13.14-10.79,26.25-21.62,39.37-32.43,3.64-3,7.29-6,10.97-9.04.48.37.89.67,1.28.99,16.41,13.53,32.81,27.06,49.24,40.56.8.65.99,1.34.98,2.29-.02,13.45-.01,26.89-.01,40.34,0,4.36-1.04,5.86-5.05,7.32h-34.87c-.02-.61-.07-1.21-.07-1.82,0-10.25,0-20.51,0-30.76v-1.65h-22.91v1.79c0,8.94,0,17.88,0,26.83,0,1.87-.05,3.74-.07,5.61Z"/>
      <path class="cls-1" d="M147.68,72.95v1.69c-1.81,2.19-3.61,4.39-5.42,6.58-1.94,2.34-3.32,2.45-5.68.49-19.87-16.57-39.74-33.13-59.61-49.7-.42-.35-.86-.69-1.31-1.05-.6.49-1.1.9-1.6,1.32-19.83,16.54-39.66,33.07-59.5,49.61-2.07,1.72-3.57,1.6-5.28-.45-1.88-2.25-3.74-4.53-5.6-6.79,0-.56,0-1.12,0-1.69.59-.71,1.08-1.53,1.78-2.11,20.24-16.9,40.52-33.76,60.76-50.66,2.57-2.15,5.11-4.26,8.62-4.6h1.69c3.15.38,5.61,2.05,7.97,4.07,6.16,5.26,12.41,10.41,18.63,15.61.3.25.64.45,1.16.81,0-.71,0-1.17,0-1.62,0-4.92,0-9.84,0-14.75,0-2.86.93-3.78,3.78-3.78,5.01,0,10.02,0,15.03,0,3.16,0,4.04.87,4.04,3.98,0,11.33.01,22.67-.02,34,0,.99.31,1.62,1.06,2.24,5.86,4.82,11.69,9.67,17.5,14.54.76.64,1.34,1.52,2,2.28Z"/>
    </g>
  </g>
</svg>