<?xml version="1.0" encoding="UTF-8"?>
<svg id="Capa_1" data-name="Capa 1" xmlns="http://www.w3.org/2000/svg" viewBox="0 0 150 150">
  <defs>
    <style>
      .cls-1 {
        fill: #96bd0b;
        stroke-width: 0px;
      }
    </style>
  </defs>
  <path class="cls-1" d="M67.03,131.42h-28.27c-12.47,0-22.61-10.14-22.61-22.61v-16.97c0-9.59,6.03-17.76,14.48-21.04,6.15,14.83,19.93,25.7,36.4,27.76v32.87ZM72.69,19.19c-18.87,0-34.22,15.35-34.22,34.22s15.35,34.22,34.22,34.22,34.22-15.35,34.22-34.22-15.35-34.22-34.22-34.22ZM129.22,91.84v16.97c0,12.47-10.14,22.61-22.61,22.61h-28.27v-32.87c16.48-2.05,30.25-12.92,36.4-27.76,8.45,3.28,14.48,11.44,14.48,21.04ZM120.93,108.92c0-3.12-2.53-5.65-5.65-5.65h-2.95v-2.95c0-3.12-2.53-5.65-5.65-5.65s-5.65,2.53-5.65,5.65v2.95h-2.94c-3.12,0-5.65,2.53-5.65,5.65s2.53,5.65,5.65,5.65h2.94v2.95c0,3.12,2.53,5.65,5.65,5.65s5.65-2.53,5.65-5.65v-2.95h2.95c3.12,0,5.65-2.53,5.65-5.65Z"/>
</svg>