<?xml version="1.0" encoding="UTF-8"?>
<svg id="Capa_1" data-name="Capa 1" xmlns="http://www.w3.org/2000/svg" viewBox="0 0 150 150">
  <defs>
    <style>
      .cls-1 {
        fill: #96bd0b;
        stroke: #96bd0b;
        stroke-miterlimit: 10;
        stroke-width: 2px;
      }
    </style>
  </defs>
  <g id="AWvNsq">
    <g>
      <path class="cls-1" d="M83.03,76.36v12.43c2.4-2.09,4.63-4.19,7.03-6.07,4.04-3.16,8.57-5.41,13.56-6.68,1.89-.48,3.21.09,3.61,1.55.4,1.45-.46,2.62-2.3,3.14-3.31.94-3.2.95-3.43,4.31-.14,2.08-.65,4.13-1.06,6.19-.23,1.15-.71,2.26-.87,3.41-.95,6.73,3.25,11.42,10.49,11.57,7.96.16,14.01-3.67,18.77-9.67,6.92-8.72,9.27-18.88,8.67-29.81-.5-9.14-3.23-17.54-9.3-24.56-5.82-6.73-13.04-10.05-22.02-7.77-12.38,3.15-17.84,17.68-11.11,29.2.47.8,1.2,1.5,1.46,2.35.28.91.5,2.15.1,2.87-.35.63-1.72,1.17-2.48,1-5.23-1.11-10.26-2.87-14.83-5.68-.64-.4-1.19-1.51-1.2-2.29-.07-12.46-.06-24.92-.03-37.37,0-1.63,1.09-2.7,2.51-2.59,1.68.13,2.34,1.22,2.34,2.79,0,6.14,0,12.27,0,18.41,0,5.33.03,10.66-.02,15.99-.01,1.15.32,1.84,1.41,2.26,1.59.61,3.14,1.32,5.12,2.17-1.57-4.19-2.31-8.04-2.05-12.03,1.22-19.11,20.36-27.29,34.95-20.09,7.64,3.77,12.81,9.98,15.91,17.72,7.01,17.54,5.94,34.46-5.27,50.07-4.8,6.69-11.44,10.93-19.84,11.81-5.81.6-11.19-.58-15.27-5.06-3.79-4.15-3.97-9.14-2.65-14.33.58-2.29,1.13-4.58,1.69-6.87-.27-.17-.54-.34-.8-.5-2.66,2.26-5.5,4.34-7.95,6.8-5.3,5.3-5.22,5.38-5.22,12.82,0,7.25,0,14.5,0,21.76,0,1.55-.28,2.91-2.15,3.12-1.44.16-2.41-.49-2.66-1.97-.1-.6-.07-1.24-.07-1.85,0-15.99-.02-31.98.02-47.97,0-1.33-.15-2.2-1.68-2.53-1.5-.32-2.11-1.47-1.78-2.97.31-1.4,1.6-2.02,3.24-1.65,4.58,1.05,9.16,2.12,13.74,3.17,1.5.34,2.31,1.23,2.11,2.77-.21,1.56-1.26,2.26-2.78,2.03-2.56-.39-5.11-.88-7.89-1.37Z"/>
      <path class="cls-1" d="M53.03,94.26c.34,1.61.56,3.26,1.05,4.82,1.06,3.36,1.7,6.75.95,10.24-1.38,6.37-6.98,10.79-14.07,11.15-11.22.58-19.3-4.84-25.46-13.62-5.81-8.29-8.17-17.72-8.16-27.72.01-10.67,2.67-20.61,9.28-29.2,4.78-6.21,10.85-10.41,18.83-11.48,15.02-2.02,27.98,9.92,26.97,25.03-.2,3.04-.98,6.05-1.53,9.27,1.69-.74,3.54-1.39,5.21-2.36.52-.3.77-1.45.77-2.21.05-12.27.03-24.54.04-36.81,0-2.42-.02-4.83.07-7.25.05-1.48,1-2.27,2.44-2.24,1.33.03,2.18.8,2.33,2.18.05.43.04.87.04,1.3,0,1.67,0,3.35,0,5.02,0,13.32-.03,26.65.04,39.97.01,1.94-.59,3.24-2.38,3.93-4.32,1.65-8.65,3.29-12.99,4.89-1.23.45-2.5.44-3.33-.8-.81-1.21-.32-2.32.42-3.42,4.75-7.05,5.7-14.49,1.65-22.1-5.07-9.54-17.29-12.59-26.88-6.85-7.48,4.48-11.81,11.4-14.09,19.57-3.93,14.09-2.5,27.54,6.21,39.64,4.37,6.07,10.2,10.08,18,10.41,1.23.05,2.5,0,3.7-.24,6.78-1.41,9.74-6.37,7.69-13.21-.97-3.24-1.73-6.44-1.48-9.85.03-.41-.5-1.11-.91-1.27-1.45-.53-2.95-.93-4.45-1.27-1.58-.36-2.47-1.26-2.19-2.88.29-1.66,1.51-2.18,3.07-1.91,6.18,1.07,11.63,3.77,16.51,7.63,2.18,1.73,4.17,3.69,6.34,5.64v-12.74c-2.22.44-4.37.88-6.54,1.3-1.77.34-2.99-.35-3.27-1.84-.29-1.53.53-2.57,2.31-2.96,3.15-.68,6.29-1.36,9.44-2.03,2.07-.44,3.14.32,3.14,2.45.03,14.5.02,29,0,43.51,0,1.89-.92,2.82-2.49,2.79-1.51-.03-2.36-1-2.37-2.93-.04-5.52-.08-11.03.01-16.55.03-1.77-.4-3.18-1.52-4.58-2.99-3.76-6.34-7.12-10.34-9.8-.49-.33-1.02-.61-1.54-.91l-.51.29Z"/>
    </g>
  </g>
</svg>