<?xml version="1.0" encoding="UTF-8"?>
<svg id="Capa_1" data-name="Capa 1" xmlns="http://www.w3.org/2000/svg" viewBox="0 0 150 150">
  <defs>
    <style>
      .cls-1 {
        fill: #96bd0b;
        stroke-width: 0px;
      }
    </style>
  </defs>
  <path class="cls-1" d="M44.47,125.52h6.16v8.01c0,3.58,2.9,6.48,6.48,6.48h57.31c3.57,0,6.48-2.9,6.48-6.48v-17.25c-.39-15.03,7.36-28.76,7.36-28.76,6.66-10.47,14.05-36.51-5.52-59.99-.53-.69-13.41-16.91-40.41-16.91,0,0-48.15-2.38-53.87,42.45v11.9c-4.69,4.19-14.14,14.1-15.49,26.82-.2,1.83.39,3.65,1.63,5.02,1.23,1.37,2.98,2.14,4.81,2.14h9.05v12.93s.77,13.45,16.03,13.64ZM86.72,73.46c-5.67,1.4-10.9,2.11-15.58,2.11-11.3,0-16.21-4.17-17.08-5.01-5.25-4.34-6.65-9.59-6.84-13.19-.49-9.45,6.6-17.01,7.41-17.84,7.56-8.29,19.11-9.56,25.3-9.56,0,0,19.99.51,29.76,12.02,12.78,13.71,2.07,34.29,1.61,35.17-3.91,8.78-10.45,9.88-13.07,9.77-12.83-.54-11.52-13.48-11.52-13.48ZM102.4,54.63c2.46,6.4-2.85,17.12-2.85,17.12-.39-3.45-1.62-6.22-3.65-8.26-2.09-2.09-4.97-3.25-8.11-3.25-1.78,0-3.25.37-4.01.6-4.72,1.18-8.97,1.78-12.65,1.78-6.06,0-8.38-1.64-8.45-1.71-2.15-1.78-2.47-3.24-2.52-4.18-.19-3.24,2.73-7.08,3.89-8.3,5.93-6.5,17.5-5.45,17.58-5.44,19.34,2.35,20.76,11.64,20.76,11.64Z"/>
</svg>