<?xml version="1.0" encoding="UTF-8"?>
<svg id="Capa_1" data-name="Capa 1" xmlns="http://www.w3.org/2000/svg" viewBox="0 0 150 150">
  <defs>
    <style>
      .cls-1 {
        fill: #96bd0b;
        stroke-width: 0px;
      }
    </style>
  </defs>
  <path class="cls-1" d="M70.03,56.62c-2.87,2.2-5.14,4.61-6.91,6.94-2.13-2.55-4.49-4.7-6.77-6.46,2.8-2.15,5.05-4.56,6.84-6.93,2.12,2.58,4.51,4.72,6.84,6.45ZM135.01,71.23c-1.54,4.34-3.19,8.97-3.19,11.31,0,20.93-3.23,56.05-24.88,56.05-17.42,0-21.4-17.73-23.78-28.33-1.63-7.15-2.96-11.24-3.95-12.14-1.47,1.31-3.94,10.55-4.87,14.03-2.97,11.25-7.05,26.67-21.96,26.67-23.11,0-24.91-43.05-24.91-56.25,0-2.51-1.7-7.17-3.2-11.28-4.39-12.06-10.39-28.57.5-44.44,6.94-10.14,15.11-15.07,24.97-15.07,5.94,0,11.59,1.88,16.57,3.53,4.59,1.54,8.87,2.97,12.89,2.97s8.29-1.39,12.74-2.85c5.11-1.68,10.63-3.5,16.59-3.5,9.72,0,18,4.79,25.32,14.63,11.48,15.44,5.52,32.33,1.16,44.66ZM89.52,56.7c0-2.7-1.71-5.1-4.26-5.99-.13-.05-13.4-4.94-15.79-15.58-.63-2.83-3.11-4.84-6.01-4.93-2.95-.12-5.49,1.82-6.29,4.6-.14.5-3.65,12.26-15.6,15.82-2.58.76-4.38,3.08-4.51,5.76-.14,2.68,1.45,5.16,3.93,6.19.13.05,13.18,5.53,16.19,16.05.78,2.72,3.27,4.59,6.1,4.59.05,0,.1,0,.15,0,2.88-.07,5.36-2.07,6.03-4.87.02-.11,2.99-11.21,15.8-15.65,2.55-.89,4.26-3.29,4.27-5.99Z"/>
</svg>