<?xml version="1.0" encoding="UTF-8"?>
<svg id="Capa_1" data-name="Capa 1" xmlns="http://www.w3.org/2000/svg" viewBox="0 0 150 150">
  <defs>
    <style>
      .cls-1 {
        fill: #96bd0b;
        stroke-width: 0px;
      }
    </style>
  </defs>
  <path class="cls-1" d="M94,56.83c-1.48-28.89-23.79-37.86-35.37-38.56-15-.95-25.48,5.01-32.54,13.04v-10.3c0-3.33-2.7-6.03-6.03-6.03s-6.03,2.7-6.03,6.03v108.59c0,3.33,2.7,6.03,6.03,6.03s6.03-2.7,6.03-6.03v-5.93c9.2,9.28,19.25,8.12,19.64,8.06,7.75-.58,13.7-3.3,17.67-8.1,5.54-6.69,4.82-14.65,4.76-15.04-.39-13.01,8.03-19.58,8.34-19.81,18.24-13.32,17.54-31.19,17.51-31.94ZM40.21,72.56c-1.62.06-3.17-.65-4.3-1.81-1.14-1.16-1.75-2.72-1.72-4.34,0-.34.2-8.46,3.46-16.05,2.11-4.78,8.56-12.76,19.58-12.76h.02c.28-.04,7.25-.46,13.18,4.66,4.5,3.88,7.03,9.66,7.52,17.18.22,3.32-2.3,6.19-5.62,6.41-3.39.22-6.19-2.3-6.41-5.62-.64-9.85-6.02-10.63-8.28-10.58-6.35,0-8.92,5.47-8.94,5.52-.94,2.2-1.52,4.53-1.88,6.51,7.25,2.69,12.43,9.68,12.43,17.85,0,10.49-8.54,19.03-19.03,19.03-2.07,0-4.09-.32-6-.97-3.15-1.06-4.86-4.47-3.8-7.63,1.05-3.16,4.49-4.85,7.63-3.8,0,0,5.64,1.78,8.35-3.41,0,0,2.54-4.16-1.47-8.35,0,0-1.72-1.95-4.7-1.85ZM99.9,88.69c-2.36-2.35-2.36-6.17,0-8.52,1.3-1.3,2.01-3.03,2.02-4.87,0-1.82-.72-3.56-2.03-4.88-2.35-2.36-2.34-6.18.02-8.52,2.36-2.35,6.17-2.34,8.52.02,3.56,3.58,5.53,8.33,5.54,13.38,0,5.07-1.78,10.03-5.55,13.39-4.44,3.97-8.52,0-8.52,0ZM114.24,103.03c-2.36-2.35-2.36-6.17,0-8.52,5.13-5.12,7.95-11.94,7.95-19.2s-2.82-14.08-7.95-19.2c-2.36-2.36-2.36-6.17,0-8.52,2.35-2.35,6.17-2.35,8.52,0,7.41,7.4,11.48,17.25,11.48,27.73s-4.2,20.2-11.48,27.73c-4.23,4.37-8.52,0-8.52,0Z"/>
</svg>