<?xml version="1.0" encoding="UTF-8"?>
<svg id="Capa_1" data-name="Capa 1" xmlns="http://www.w3.org/2000/svg" viewBox="0 0 150 150">
  <defs>
    <style>
      .cls-1 {
        fill: #96bd0b;
        stroke-width: 0px;
      }
    </style>
  </defs>
  <g id="Ha7SyH.tif">
    <g>
      <path class="cls-1" d="M60,141.82c-5.61-1.95-11.68-3.1-16.74-6.01-13.01-7.45-19.91-19.25-20.28-34.2-.44-17.53-.42-35.08-.02-52.61.47-20.5,15.44-36.8,35.71-39.71.46-.07.89-.32,1.34-.49,2.76,0,5.52,0,8.28,0,6.15,1.29,12.23,2.73,17.61,6.23,12.25,7.97,18.86,19.22,19.6,33.79.27,5.3.04,10.63.1,15.95.03,2.45-1.02,4.2-3.47,4.22-2.51.02-3.49-1.88-3.51-4.24-.06-5.61.03-11.23-.17-16.83-.6-16.37-14.65-30.88-30.84-31.98-18.08-1.24-34.08,10.52-37.08,27.32-.43,2.41-.63,4.88-.64,7.33-.05,16.54-.09,33.09,0,49.63.07,13.45,6.06,23.78,17.73,30.25,11.67,6.48,23.55,5.95,35.04-1.01.34-.2.66-.43,1-.62,1.9-1.09,3.68-.96,4.88.95,1.17,1.87.67,3.61-1.16,4.85-5.21,3.53-10.91,5.8-17.15,6.68-.65.09-1.29.34-1.93.52h-8.28Z"/>
      <path class="cls-1" d="M112.63,112.31c0,3.61.03,6.84,0,10.07-.04,3.47-1.19,4.64-4.57,4.66-3.94.03-7.88.03-11.82,0-3.42-.02-4.54-1.13-4.6-4.64-.06-3.24-.01-6.48-.01-10.1-3.56,0-6.88.02-10.2,0-3.33-.03-4.4-1.07-4.43-4.42-.05-4.13-.06-8.27,0-12.41.05-3.07,1.02-4,4.15-4.07,2.76-.06,5.52-.09,8.27.01,1.68.06,2.28-.57,2.22-2.22-.08-2.75-.08-5.51,0-8.27.09-3.23,1.1-4.2,4.32-4.22,4.14-.03,8.27-.04,12.41,0,3.11.03,4.21,1.15,4.25,4.32.05,3.33.01,6.66.01,10.37,3.47,0,6.69-.02,9.91,0,3.77.04,4.76,1.01,4.79,4.69.03,3.84.03,7.68,0,11.52-.03,3.62-1.12,4.67-4.81,4.69-3.14.02-6.28,0-9.89,0ZM83.86,105.35c3.21,0,6.15,0,9.08,0,4.69.02,5.55.87,5.56,5.45,0,3.02,0,6.04,0,9.08h7.13v-6.26q0-8.27,8.14-8.27c2.12,0,4.25,0,6.4,0v-7.15c-3.36,0-6.59.02-9.81,0-3.66-.04-4.68-1.07-4.72-4.78-.04-3.21,0-6.43,0-9.69h-7.13v6.73q0,7.75-7.62,7.75c-2.32,0-4.64,0-7.03,0v7.15Z"/>
      <path class="cls-1" d="M38.46,51.4c.19-15.2,11.54-26.58,25.72-26.59,14.1-.02,25.85,11.41,25.82,25.69-.02,9.36-4.29,16.76-12.15,22.06-1.27.85-2.37,2.21-3.08,3.58-2.24,4.34-5.63,6.76-10.53,6.85-4.67.08-8.78-2.8-10.71-7.04-.56-1.22-1.54-2.46-2.65-3.19-8-5.27-12.16-12.62-12.41-21.36ZM54.01,66.2c2.35-3.68,5.59-5.96,10.13-6.01,4.65-.05,7.88,2.45,10.39,6.02,7.09-4.67,10.18-13.22,7.76-21.06-2.54-8.21-10.09-13.57-18.79-13.33-8.16.22-15.44,5.97-17.53,13.82-2.13,7.99,1.16,16.52,8.04,20.56ZM68.76,71.59c0-2.42-2.1-4.46-4.58-4.44-2.47.01-4.58,2.1-4.54,4.5.03,2.38,2.23,4.52,4.6,4.5,2.41-.02,4.52-2.15,4.52-4.56Z"/>
      <path class="cls-1" d="M68.76,71.59c0,2.41-2.11,4.54-4.52,4.56-2.38.02-4.57-2.13-4.6-4.5-.03-2.41,2.07-4.49,4.54-4.5,2.49-.01,4.58,2.02,4.58,4.44Z"/>
      <path class="cls-1" d="M61.25,46.51c-.27,2.22-1.39,3.62-3.76,3.7-2.12.07-4.12-1.91-3.87-3.94.27-2.23,1.64-3.68,3.92-3.6,2.24.08,3.53,1.5,3.71,3.85Z"/>
      <path class="cls-1" d="M74.77,46.86c-.34,1.88-1.47,3.35-3.83,3.33-2.37-.02-3.59-1.51-3.78-3.71-.18-2.03,1.97-4,3.99-3.88,1.98.12,3.7,1.98,3.62,4.26Z"/>
    </g>
  </g>
</svg>