<?xml version="1.0" encoding="UTF-8"?>
<svg id="Capa_1" xmlns="http://www.w3.org/2000/svg" viewBox="0 0 150 150">
  <defs>
    <style>
      .cls-1 {
        fill: #96bd0b;
      }
    </style>
  </defs>
  <g id="vFoBGk.tif">
    <g>
      <path class="cls-1" d="M56.67,8.13c1.57,0,3.14,0,4.71,0,.04.07.08.19.13.2,5.62.79,9.84,3.75,12.93,8.39.46.69.67.7,1.11,0,1.93-3.05,4.58-5.31,7.81-6.93,1.59-.79,3.36-1,4.99-1.66,1.48,0,2.97,0,4.45,0,.04.07.08.19.13.2,6.56,1.09,11.12,4.84,14.1,10.64.33.65.8.94,1.45,1.14,6.63,2.05,11.2,8.34,11,15.27-.03,1.17.28,1.75,1.27,2.33,7.55,4.42,11.08,14.08,8.17,22.29-.26.74-.16,1.16.41,1.66,2.68,2.38,4.38,5.36,5.33,8.79.2.73.09,1.54.57,2.19v5.22c-.21.04-.26.19-.29.37-.51,2.65-1.36,5.18-2.82,7.47-.3.47-.09.8.15,1.17.85,1.27,1.44,2.65,1.99,4.06.4,1.02.33,2.18.97,3.13v5.22c-.08.09-.22.16-.24.26-.63,3.7-2.24,6.91-4.84,9.62-.39.41-.42.82-.34,1.3.28,1.65.14,3.28-.08,4.93-1.1,8.44-8.81,15.61-17.27,15.97-.79.03-1.24.29-1.66.94-2.74,4.19-6.5,7.06-11.3,8.55-1.26.39-2.54.67-3.82,1.01h-5.24c-.25-.46-.75-.39-1.13-.47-3.89-.81-7.2-2.68-10.08-5.38-1.68-1.57-2.97-3.44-4.23-5.49-.3.46-.49.74-.67,1.03-2.77,4.49-6.62,7.63-11.65,9.3-1.2.4-2.45.67-3.67,1h-5.24c-.25-.47-.76-.36-1.15-.44-5.7-1.17-10.15-4.19-13.36-9-.53-.79-1.1-1.02-2-1.07-10.1-.53-18.51-10.73-17.12-20.75.1-.74-.09-1.21-.58-1.72-2.03-2.16-3.39-4.7-4.19-7.55-.19-.68-.15-1.44-.62-2.04v-5.49c.81-1.19.77-2.68,1.37-3.96.57-1.22,1.66-2.32,1.8-3.55.14-1.29-1.13-2.42-1.66-3.69-.64-1.55-.69-3.26-1.51-4.74v-5.49c.28-.07.25-.31.28-.51.75-4.07,2.62-7.52,5.71-10.29.49-.44.57-.79.35-1.44-2.94-8.56.53-17.94,8.37-22.55.83-.49,1.08-.98,1.04-1.94-.27-6.88,4.16-13.33,10.63-15.42,1.01-.33,1.58-.81,2.06-1.71,2.71-5.08,6.76-8.53,12.46-9.91.34-.08.81-.02,1-.46ZM50.89,40.3c.14.16.27.33.42.49,3.38,3.66,5.21,7.97,5.34,12.96.04,1.69-1.01,2.88-2.49,2.96-1.46.07-2.59-1.06-2.73-2.74-.02-.22,0-.44-.03-.65-.38-3.56-1.63-6.71-4.35-9.17-2.42-2.53-5.39-3.86-8.89-3.86-6.86-.01-12.36,6.23-12.88,12.95-.19,2.47.43,4.78,1.55,7,.88,1.73.59,2.66-.88,3.8-1.17.91-2.4,1.8-3.25,2.99-2.98,4.14-3.59,8.69-1.55,13.35,2.18,4.96,5.91,8.11,11.55,8.44,2.06.12,3.04,1.55,2.99,2.76-.06,1.5-1.41,2.51-3.23,2.48-3.66-.07-6.87-1.44-9.78-3.52-.74-.53-.88-.31-1.22.29-2.56,4.57-1.65,11.25,2.2,14.74,1.66,1.5,2.14,2.99,1.79,5.24-.74,4.87,1.13,8.91,4.74,12.21,2.82,2.57,6.16,3.45,9.88,3.17,1.18-.09,1.91.46,2.39,1.43.54,1.08,1.19,2.06,1.92,3.02,4.7,6.08,13.65,8.09,20.44,3.43,4.68-3.05,7.15-7.45,7.48-12.92.54-8.92-6.17-16.19-15.12-16.62-1.99-.1-3.21-1.17-3.12-2.75.09-1.6,1.37-2.56,3.37-2.46,5.45.27,10.14,2.29,14.03,6.13.24.24.38.69.9.6v-1.32c0-15.63,0-31.26,0-46.88,0-4.1-1.36-5.69-5.45-6.38-1.45-.24-2.44-1.35-2.39-2.66.05-1.38,1.18-2.46,2.68-2.51.52-.02,1.04.08,1.56.13,1.25.12,2.36.72,3.6,1.13,0-.5,0-.89,0-1.28,0-6.57.11-13.15-.07-19.72-.1-3.78-1.68-7.05-4.59-9.59-6.8-6.63-15.61-3.13-18.93,2.61,1.4.34,2.81.63,4.07,1.32,2.05,1.12,4.23,2.09,5.16,4.49-.07,1.95-.56,2.53-2.62,3.09-1.02-.07-1.71-.75-2.43-1.34-3.26-2.66-6.91-3.27-10.76-1.7-3.75,1.53-5.84,4.47-6.42,8.51-.17,1.16.11,1.47,1.24,1.2.58-.14,1.21-.1,1.82-.08,4.7.16,8.62,2.11,12.03,5.24ZM77.62,106.06c.11.06.21.12.32.18.21-.27.39-.58.63-.82,3.89-3.84,8.58-5.85,14.03-6.11,1.98-.09,3.27.91,3.33,2.51.06,1.58-1.16,2.59-3.17,2.72-.95.06-1.92.15-2.85.37-10.51,2.47-15.49,14.03-10.13,23.46,4.54,7.98,13.73,10.53,21.58,5.98,2.68-1.55,4.63-3.8,6.03-6.53.64-1.26,1.61-1.98,3.04-1.75,7.64,1.25,15.65-7.21,14.09-15.58-.36-1.92,0-3.26,1.48-4.62,3.95-3.65,5.03-9.33,2.92-14.26q-.74-1.73-2.26-.68c-2.87,1.96-6.03,3.09-9.53,3.12-1.6.01-2.76-1.06-2.83-2.49-.07-1.41,1.02-2.54,2.62-2.71.22-.02.44-.02.65-.03,2.52-.14,4.78-1.05,6.73-2.57,7.47-5.81,7.69-16.73-.14-22.06-1.66-1.13-1.89-2.22-.98-4.05,2.76-5.56,1.74-10.63-2.02-15.29-4.43-5.5-12.26-6.09-17.55-1.43-3.13,2.77-4.8,6.22-5.05,10.37-.11,1.8-1.19,2.96-2.69,2.91-1.56-.05-2.59-1.31-2.53-3.18.03-.78.12-1.56.23-2.33,1.47-9.91,10.63-17.16,19.79-16,.67.08.92,0,.88-.76-.31-5.93-5.86-10.5-11.77-9.71-2.44.33-4.4,1.5-6.25,3.02-1.2.99-2.72.82-3.64-.23-.95-1.08-.83-2.65.33-3.73.79-.74,1.65-1.41,2.57-2.01,1.76-1.13,3.73-1.71,5.86-2.26-3.06-4.08-6.79-6.65-11.88-6.03-5.47.67-8.98,4.07-10.98,9.08-.7,1.75-.9,3.6-.89,5.5.04,6.48.01,12.95.01,19.55,1.65-.75,3.24-1.32,4.96-1.32,1.59,0,2.77,1.02,2.87,2.45.09,1.37-.92,2.5-2.44,2.74-3.96.62-5.39,2.29-5.39,6.3,0,15.67,0,31.34,0,47.01v1.29Z"/>
      <path class="cls-1" d="M114.27,54.9c0-.26.02-.52,0-.78-.11-1.5-1.2-2.6-2.58-2.61-1.33-.02-2.42.99-2.62,2.43-.05.34-.03.69-.05,1.04-.46,7.32-7.3,12.95-14.57,12.05-2.78-.34-5.11-1.56-7.3-3.21-1.32-.99-2.84-.75-3.72.39-.89,1.17-.7,2.65.56,3.7,2.37,1.98,5.02,3.47,8.1,3.96,1.17.19,1.69.71,1.93,1.83.17.79.53,1.56.94,2.27,2.49,4.35,6.3,6.6,11.29,6.83,1.41.07,2.47-.85,2.73-2.14.22-1.1-.41-2.31-1.47-2.79-.52-.24-1.1-.25-1.66-.31-2.8-.28-4.89-1.66-6.31-4.08-.56-.95-.6-1.38.71-1.67,7.81-1.72,13.8-9.01,14.03-16.93ZM93.35,128c-.08,2.48,1.63,4.01,3.57,3.19,1.25-.53,1.61-1.58,1.66-2.85.13-2.8,1.02-5.37,2.67-7.63,2.55-3.48,5.91-5.54,10.32-5.76,1.96-.1,3.09-1.72,2.51-3.41-.42-1.22-1.42-1.81-3-1.78-9.24.18-17.42,8.59-17.74,18.24ZM108.73,104.58c2.22.07,3.46-2.05,2.38-3.96-.79-1.4-1.74-2.7-2.83-3.9-4.64-5.11-10.45-7.66-17.32-7.87-1.59-.05-2.76,1.04-2.84,2.47-.08,1.41,1,2.55,2.6,2.72.35.04.7.03,1.05.06,2.37.17,4.64.7,6.79,1.73,3.23,1.55,5.79,3.82,7.7,6.85.61.97,1.27,1.91,2.49,1.88ZM90.69,32.4c-.02-1.36-1.23-2.57-2.59-2.57-1.36,0-2.58,1.19-2.61,2.55-.03,1.41,1.25,2.67,2.66,2.64,1.37-.04,2.56-1.26,2.55-2.62Z"/>
      <path class="cls-1" d="M114.27,54.9c-.23,7.92-6.22,15.21-14.03,16.93-1.31.29-1.27.72-.71,1.67,1.43,2.42,3.52,3.79,6.31,4.08.57.06,1.14.07,1.66.31,1.06.48,1.69,1.69,1.47,2.79-.26,1.3-1.32,2.21-2.73,2.14-4.99-.23-8.8-2.48-11.29-6.83-.41-.71-.77-1.48-.94-2.27-.24-1.12-.76-1.64-1.93-1.83-3.09-.49-5.73-1.98-8.1-3.96-1.26-1.05-1.45-2.53-.56-3.7.87-1.15,2.4-1.38,3.72-.39,2.19,1.65,4.52,2.87,7.3,3.21,7.28.9,14.12-4.73,14.57-12.05.02-.35,0-.7.05-1.04.2-1.44,1.29-2.45,2.62-2.43,1.38.02,2.47,1.12,2.58,2.61.02.26,0,.52,0,.78Z"/>
      <path class="cls-1" d="M93.35,128c.32-9.65,8.5-18.06,17.74-18.24,1.58-.03,2.58.56,3,1.78.58,1.69-.55,3.31-2.51,3.41-4.42.22-7.77,2.28-10.32,5.76-1.66,2.26-2.55,4.83-2.67,7.63-.06,1.26-.42,2.32-1.66,2.85-1.95.83-3.65-.71-3.57-3.19Z"/>
      <path class="cls-1" d="M108.73,104.58c-1.22.02-1.88-.91-2.49-1.88-1.9-3.03-4.47-5.3-7.7-6.85-2.15-1.03-4.42-1.56-6.79-1.73-.35-.03-.7-.02-1.05-.06-1.6-.17-2.68-1.31-2.6-2.72.08-1.43,1.26-2.52,2.84-2.47,6.87.21,12.68,2.76,17.32,7.87,1.09,1.2,2.04,2.5,2.83,3.9,1.08,1.91-.16,4.03-2.38,3.96Z"/>
      <path class="cls-1" d="M90.69,32.4c.02,1.36-1.18,2.58-2.55,2.62-1.41.04-2.68-1.23-2.66-2.64.03-1.36,1.25-2.56,2.61-2.55,1.36,0,2.58,1.21,2.59,2.57Z"/>
      <path class="cls-1" d="M40.71,66.68c-3.09-3.42-4.85-7.39-4.98-12.03-.05-1.93.9-3.11,2.48-3.14,1.52-.03,2.66,1.16,2.75,2.99.16,3.16,1.14,5.97,3.37,8.28,4.83,5.2,12.14,5.84,17.79,1.57.55-.42,1.08-.89,1.78-1.06,1.15-.28,2.32.25,2.89,1.28.59,1.07.42,2.3-.59,3.19-2.29,2.01-4.9,3.5-7.91,4.06-1.37.26-2.01.78-2.4,2.15-1.46,5.06-6.91,8.95-12.14,8.86-1.55-.03-2.74-1.12-2.77-2.55-.03-1.42,1.04-2.54,2.67-2.65,3.02-.2,5.28-1.53,6.83-4.13.57-.97.56-1.39-.73-1.66-3.54-.75-6.49-2.62-9.04-5.15Z"/>
      <path class="cls-1" d="M44.39,117.02c-1.63-1.7-3.81-1.85-5.96-2.05-2.34-.21-3.4-2.16-2.2-4.14.53-.87,1.4-1.07,2.34-1.08,1.89-.03,3.68.51,5.49.94,6.47,2.64,10.55,7.32,12.17,14.12.31,1.32.4,2.66.48,4.01-.72,2.38-2.17,3.13-4.06,2.16-.9-.46-1.09-1.26-1.18-2.1-.1-.89-.07-1.8-.34-2.67-.7-3.49-2.5-6.3-5.26-8.53-.43-.35-.83-.78-1.48-.66Z"/>
      <path class="cls-1" d="M40.43,104.57c-1.96-.78-2.35-1.83-1.53-4.16,1.95-2.85,4.16-5.44,7.05-7.41,3.89-2.65,8.19-3.97,12.87-4.13,1.76-.06,3.01,1,3.06,2.52.05,1.46-1.07,2.6-2.79,2.67-3.94.17-7.53,1.26-10.72,3.63-1.91,1.42-3.5,3.14-4.73,5.17-.74,1.23-1.72,1.94-3.22,1.71Z"/>
      <path class="cls-1" d="M64.51,32.53c-.06,1.37-1.32,2.54-2.67,2.49-1.43-.05-2.63-1.37-2.52-2.76.11-1.38,1.38-2.51,2.73-2.42,1.37.08,2.53,1.35,2.47,2.69Z"/>
      <path class="cls-1" d="M44.39,117.02c.65-.12,1.05.31,1.48.66,2.75,2.23,4.55,5.04,5.26,8.53-2.37-1.16-3.84-3.17-5.12-5.35-.7-1.2-1.25-2.48-1.61-3.83Z"/>
    </g>
  </g>
</svg>