<?xml version="1.0" encoding="UTF-8"?>
<svg id="Capa_1" data-name="Capa 1" xmlns="http://www.w3.org/2000/svg" viewBox="0 0 150 150">
  <defs>
    <style>
      .cls-1 {
        fill: #fdfdfd;
      }

      .cls-1, .cls-2, .cls-3, .cls-4 {
        stroke-width: 0px;
      }

      .cls-2 {
        fill: #f0aabc;
      }

      .cls-3 {
        fill: #020202;
      }

      .cls-4 {
        fill: #96bd0b;
      }
    </style>
  </defs>
  <g id="vFoBGk.tif">
    <g>
      <path class="cls-3" d="M56.85,8.27c1.57,0,3.14,0,4.71,0,.04.07.08.19.13.2,5.62.8,9.84,3.76,12.93,8.42.46.69.67.7,1.11,0,1.93-3.06,4.58-5.33,7.81-6.95,1.59-.8,3.36-1.01,4.99-1.67,1.48,0,2.97,0,4.45,0,.04.07.08.19.13.2,6.56,1.09,11.12,4.85,14.1,10.67.33.65.8.94,1.45,1.14,6.63,2.06,11.2,8.36,11,15.31-.03,1.17.28,1.75,1.27,2.34,7.55,4.43,11.08,14.12,8.17,22.35-.26.75-.16,1.16.41,1.67,2.68,2.39,4.38,5.37,5.33,8.81.2.73.09,1.54.57,2.19v5.24c-.21.04-.26.19-.29.37-.51,2.66-1.36,5.19-2.82,7.49-.3.47-.09.8.15,1.17.85,1.27,1.44,2.66,1.99,4.07.4,1.02.33,2.19.97,3.14v5.24c-.08.09-.22.16-.24.26-.63,3.71-2.24,6.93-4.84,9.64-.39.41-.42.82-.34,1.31.28,1.65.14,3.29-.08,4.94-1.1,8.46-8.81,15.66-17.27,16.02-.79.03-1.24.29-1.66.94-2.74,4.2-6.5,7.08-11.3,8.57-1.26.39-2.54.68-3.82,1.01h-5.24c-.25-.47-.75-.39-1.13-.47-3.89-.81-7.2-2.69-10.08-5.39-1.68-1.58-2.97-3.45-4.23-5.5-.3.46-.49.74-.67,1.03-2.77,4.5-6.62,7.65-11.65,9.33-1.2.4-2.45.67-3.67,1h-5.24c-.25-.47-.76-.36-1.15-.44-5.7-1.18-10.15-4.2-13.36-9.02-.53-.79-1.1-1.02-2-1.07-10.1-.53-18.51-10.76-17.12-20.81.1-.74-.09-1.21-.58-1.72-2.03-2.17-3.39-4.71-4.19-7.57-.19-.68-.15-1.44-.62-2.04v-5.5c.81-1.2.77-2.68,1.37-3.97.57-1.22,1.66-2.32,1.8-3.56.14-1.3-1.13-2.43-1.66-3.7-.64-1.55-.69-3.27-1.51-4.75v-5.5c.28-.07.25-.31.28-.52.75-4.08,2.62-7.54,5.71-10.32.49-.44.57-.79.35-1.45-2.94-8.58.53-17.98,8.37-22.61.83-.49,1.08-.99,1.04-1.94-.27-6.89,4.16-13.36,10.63-15.46,1.01-.33,1.58-.81,2.06-1.72,2.71-5.1,6.76-8.55,12.46-9.94.34-.08.81-.02,1-.47ZM51.07,40.51c.14.16.27.33.42.49,3.38,3.67,5.21,7.99,5.34,12.99.04,1.69-1.01,2.89-2.49,2.97-1.46.07-2.59-1.06-2.73-2.74-.02-.22,0-.44-.03-.65-.38-3.57-1.63-6.73-4.35-9.19-2.42-2.54-5.39-3.87-8.89-3.87-6.86-.01-12.36,6.24-12.88,12.99-.19,2.48.43,4.8,1.55,7.02.88,1.73.59,2.66-.88,3.81-1.17.91-2.4,1.8-3.25,3-2.98,4.15-3.59,8.71-1.55,13.38,2.18,4.98,5.91,8.13,11.55,8.46,2.06.12,3.04,1.56,2.99,2.77-.06,1.5-1.41,2.52-3.23,2.48-3.66-.07-6.87-1.44-9.78-3.52-.74-.53-.88-.31-1.22.29-2.56,4.58-1.65,11.28,2.2,14.78,1.66,1.5,2.14,2.99,1.79,5.25-.74,4.88,1.13,8.93,4.74,12.24,2.82,2.58,6.16,3.46,9.88,3.18,1.18-.09,1.91.46,2.39,1.44.54,1.08,1.19,2.07,1.92,3.02,4.7,6.1,13.65,8.11,20.44,3.44,4.68-3.05,7.15-7.47,7.48-12.95.54-8.94-6.17-16.23-15.12-16.66-1.99-.1-3.21-1.17-3.12-2.76.09-1.6,1.37-2.57,3.37-2.47,5.45.27,10.14,2.3,14.03,6.15.24.24.38.7.9.6v-1.33c0-15.67,0-31.34,0-47.01,0-4.11-1.36-5.7-5.45-6.39-1.45-.24-2.44-1.35-2.39-2.67.05-1.39,1.18-2.47,2.68-2.52.52-.02,1.04.08,1.56.13,1.25.12,2.36.72,3.6,1.13,0-.5,0-.89,0-1.28,0-6.59.11-13.18-.07-19.77-.1-3.79-1.68-7.07-4.59-9.62-6.8-6.64-15.61-3.13-18.93,2.61,1.4.34,2.81.63,4.07,1.33,2.05,1.12,4.23,2.1,5.16,4.51-.07,1.96-.56,2.54-2.62,3.09-1.02-.07-1.71-.75-2.43-1.35-3.26-2.67-6.91-3.27-10.76-1.7-3.75,1.53-5.84,4.49-6.42,8.53-.17,1.16.11,1.47,1.24,1.21.58-.14,1.21-.1,1.82-.08,4.7.16,8.62,2.12,12.03,5.25ZM77.8,106.45c.11.06.21.12.32.18.21-.27.39-.58.63-.82,3.89-3.85,8.58-5.87,14.03-6.13,1.98-.09,3.27.91,3.33,2.51.06,1.58-1.16,2.6-3.17,2.72-.95.06-1.92.15-2.85.37-10.51,2.48-15.49,14.07-10.13,23.52,4.54,8,13.73,10.56,21.58,6,2.68-1.56,4.63-3.81,6.03-6.55.64-1.26,1.61-1.99,3.04-1.75,7.64,1.25,15.65-7.23,14.09-15.62-.36-1.92,0-3.26,1.48-4.63,3.95-3.66,5.03-9.36,2.92-14.3q-.74-1.73-2.26-.68c-2.87,1.97-6.03,3.09-9.53,3.12-1.6.01-2.76-1.07-2.83-2.5-.07-1.42,1.02-2.55,2.62-2.71.22-.02.44-.02.65-.03,2.52-.14,4.78-1.05,6.73-2.57,7.47-5.83,7.69-16.77-.14-22.12-1.66-1.13-1.89-2.22-.98-4.06,2.76-5.57,1.74-10.65-2.02-15.33-4.43-5.51-12.26-6.11-17.55-1.43-3.13,2.77-4.8,6.23-5.05,10.39-.11,1.8-1.19,2.97-2.69,2.92-1.56-.05-2.59-1.32-2.53-3.19.03-.78.12-1.56.23-2.34,1.47-9.94,10.63-17.2,19.79-16.05.67.08.92,0,.88-.77-.31-5.94-5.86-10.53-11.77-9.73-2.44.33-4.4,1.5-6.25,3.03-1.2.99-2.72.82-3.64-.23-.95-1.08-.83-2.65.33-3.74.79-.74,1.65-1.42,2.57-2.01,1.76-1.14,3.73-1.71,5.86-2.27-3.06-4.09-6.79-6.67-11.88-6.04-5.47.67-8.98,4.08-10.98,9.11-.7,1.75-.9,3.61-.89,5.51.04,6.49.01,12.99.01,19.61,1.65-.75,3.24-1.32,4.96-1.33,1.59,0,2.77,1.02,2.87,2.46.09,1.37-.92,2.51-2.44,2.75-3.96.62-5.39,2.3-5.39,6.31,0,15.71,0,31.42,0,47.13v1.29Z"/>
      <path class="cls-1" d="M59.21,142.35c1.22-.33,2.47-.6,3.67-1,5.02-1.67,8.88-4.82,11.65-9.33.18-.29.37-.57.67-1.03,1.25,2.06,2.55,3.93,4.23,5.5,2.88,2.71,6.19,4.58,10.08,5.39.38.08.89,0,1.13.47h-31.42Z"/>
      <path class="cls-1" d="M88.54,8.27c-1.63.66-3.4.87-4.99,1.67-3.23,1.62-5.88,3.88-7.81,6.95-.44.7-.65.7-1.11,0-3.09-4.66-7.31-7.62-12.93-8.42-.05,0-.09-.13-.13-.2,8.99,0,17.98,0,26.97,0Z"/>
      <path class="cls-1" d="M14.95,78.19c.82,1.48.87,3.2,1.51,4.75.53,1.28,1.8,2.4,1.66,3.7-.14,1.23-1.23,2.33-1.8,3.56-.6,1.29-.56,2.77-1.37,3.97v-15.97Z"/>
      <path class="cls-1" d="M135.41,94.42c-.63-.95-.56-2.11-.97-3.14-.56-1.41-1.15-2.8-1.99-4.07-.25-.37-.45-.7-.15-1.17,1.46-2.3,2.31-4.83,2.82-7.49.03-.18.08-.33.29-.37v16.24Z"/>
      <path class="cls-4" d="M77.8,106.45v-1.29c0-15.71,0-31.42,0-47.13,0-4.02,1.44-5.7,5.39-6.31,1.52-.24,2.54-1.38,2.44-2.75-.1-1.44-1.28-2.46-2.87-2.46-1.72,0-3.31.58-4.96,1.33,0-6.62.02-13.11-.01-19.61-.01-1.9.19-3.76.89-5.51,1.99-5.02,5.5-8.44,10.98-9.11,5.09-.62,8.82,1.96,11.88,6.04-2.13.56-4.1,1.13-5.86,2.27-.92.6-1.77,1.27-2.57,2.01-1.16,1.09-1.27,2.66-.33,3.74.91,1.04,2.43,1.22,3.64.23,1.85-1.52,3.81-2.7,6.25-3.03,5.91-.8,11.47,3.79,11.77,9.73.04.77-.21.85-.88.77-9.15-1.16-18.31,6.11-19.79,16.05-.11.77-.21,1.56-.23,2.34-.06,1.87.96,3.14,2.53,3.19,1.51.05,2.58-1.12,2.69-2.92.25-4.16,1.91-7.62,5.05-10.39,5.28-4.68,13.12-4.08,17.55,1.43,3.76,4.68,4.78,9.76,2.02,15.33-.91,1.84-.68,2.92.98,4.06,7.83,5.35,7.61,16.29.14,22.12-1.96,1.53-4.21,2.43-6.73,2.57-.22.01-.44,0-.65.03-1.6.17-2.69,1.3-2.62,2.71.07,1.43,1.23,2.51,2.83,2.5,3.5-.03,6.66-1.16,9.53-3.12q1.53-1.05,2.26.68c2.11,4.94,1.03,10.64-2.92,14.3-1.47,1.36-1.84,2.7-1.48,4.63,1.56,8.39-6.45,16.87-14.09,15.62-1.43-.23-2.4.49-3.04,1.75-1.4,2.74-3.35,4.99-6.03,6.55-7.85,4.56-17.04,2-21.58-6-5.36-9.46-.38-21.04,10.13-23.52.93-.22,1.89-.31,2.85-.37,2.01-.13,3.23-1.14,3.17-2.72-.06-1.6-1.35-2.61-3.33-2.51-5.45.26-10.15,2.27-14.03,6.13-.24.24-.42.55-.63.82-.11-.06-.21-.12-.32-.18ZM114.45,55.16c0-.26.02-.52,0-.78-.11-1.5-1.2-2.6-2.58-2.62-1.33-.02-2.42.99-2.62,2.44-.05.34-.03.7-.05,1.04-.46,7.34-7.3,12.98-14.57,12.08-2.78-.34-5.11-1.56-7.3-3.22-1.32-.99-2.84-.75-3.72.39-.89,1.17-.7,2.66.56,3.71,2.37,1.99,5.02,3.48,8.1,3.97,1.17.19,1.69.72,1.93,1.84.17.79.53,1.57.94,2.28,2.49,4.36,6.3,6.61,11.29,6.85,1.41.07,2.47-.85,2.73-2.15.22-1.1-.41-2.32-1.47-2.79-.52-.24-1.1-.25-1.66-.31-2.8-.28-4.89-1.66-6.31-4.09-.56-.95-.6-1.38.71-1.67,7.81-1.72,13.8-9.03,14.03-16.97ZM93.54,128.44c-.08,2.49,1.63,4.03,3.57,3.2,1.25-.53,1.61-1.59,1.66-2.86.13-2.81,1.02-5.38,2.67-7.65,2.55-3.49,5.91-5.56,10.32-5.78,1.96-.1,3.09-1.72,2.51-3.41-.42-1.22-1.42-1.82-3-1.79-9.24.18-17.42,8.61-17.74,18.29ZM108.92,104.97c2.22.07,3.46-2.05,2.38-3.97-.79-1.4-1.74-2.71-2.83-3.91-4.64-5.12-10.45-7.68-17.32-7.89-1.59-.05-2.76,1.04-2.84,2.48-.08,1.41,1,2.56,2.6,2.73.35.04.7.03,1.05.06,2.37.17,4.64.7,6.79,1.74,3.23,1.55,5.79,3.83,7.7,6.87.61.97,1.27,1.91,2.49,1.89ZM90.88,32.6c-.02-1.36-1.23-2.57-2.59-2.58-1.36,0-2.58,1.19-2.61,2.56-.03,1.41,1.25,2.68,2.66,2.64,1.37-.04,2.56-1.26,2.55-2.63Z"/>
      <path class="cls-4" d="M67.91,17.12c2.91,2.55,4.49,5.83,4.59,9.62.17,6.59.06,13.18.07,19.77,0,.39,0,.78,0,1.28-1.24-.41-2.35-1.01-3.6-1.13-.52-.05-1.04-.15-1.56-.13-1.5.05-2.63,1.13-2.68,2.52-.05,1.32.94,2.43,2.39,2.67,4.09.69,5.45,2.29,5.45,6.39,0,15.67,0,31.34,0,47.01v1.33c-.53.09-.66-.37-.9-.6-3.9-3.85-8.58-5.87-14.03-6.15-2-.1-3.28.86-3.37,2.47-.09,1.59,1.13,2.66,3.12,2.76,8.95.43,15.67,7.72,15.12,16.66-.33,5.48-2.8,9.9-7.48,12.95-1.05-1.63-2.53-2.97-3.26-4.82-.1-.25-.33-.41-.63-.34-1.43.35-2.83.06-4.24-.11-.09-1.35-.17-2.7-.48-4.02-1.62-6.82-5.7-11.51-12.17-14.16.24-1.13-.16-1.95-1.02-2.74-1.05-.96-1.91-2.13-2.6-3.4,1.5.23,2.48-.49,3.22-1.72,1.23-2.04,2.82-3.76,4.73-5.18,3.18-2.37,6.78-3.47,10.72-3.64,1.72-.07,2.83-1.22,2.79-2.68-.05-1.53-1.3-2.59-3.06-2.53-4.68.16-8.98,1.49-12.87,4.14-2.9,1.98-5.1,4.58-7.05,7.43-.4-1.21-.56-2.49-.5-3.72.15-3.38,1.23-6.47,3.34-9.15.49-.63.54-1.06.01-1.79-2.91-4.02-3.99-8.51-3.18-13.44.34-2.05,1.37-3.83,2.13-5.72,2.55,2.54,5.5,4.42,9.04,5.17,1.29.27,1.3.7.73,1.67-1.55,2.61-3.81,3.95-6.83,4.14-1.64.11-2.71,1.23-2.67,2.65.03,1.43,1.22,2.53,2.77,2.56,5.23.09,10.67-3.81,12.14-8.88.4-1.37,1.03-1.9,2.4-2.16,3.01-.57,5.62-2.06,7.91-4.07,1.01-.89,1.18-2.12.59-3.2-.57-1.04-1.74-1.57-2.89-1.29-.69.17-1.22.65-1.78,1.07-5.64,4.28-12.96,3.63-17.79-1.57.79-.18,1.29-.45.79-1.41-1.54-2.97-2.13-6.1-1.56-9.43.49-2.92,1.53-5.58,3.49-7.84,2.72,2.47,3.97,5.62,4.35,9.19.02.22.01.44.03.65.14,1.69,1.27,2.82,2.73,2.74,1.48-.08,2.54-1.27,2.49-2.97-.13-5-1.97-9.32-5.34-12.99-.14-.16-.28-.32-.42-.49.79-.36,1.56-.76,2.37-1.08.7-.28.86-.69.72-1.42-.49-2.53-.26-5.02.62-7.45.24-.65.82-1.15.81-1.9,2.06-.56,2.54-1.13,2.62-3.09,2-1.3,4-2.59,6.44-2.93.28-.04.48-.22.57-.48.61-1.83,1.71-3.4,2.69-5.03ZM64.69,32.72c.06-1.35-1.1-2.62-2.47-2.7-1.35-.08-2.62,1.05-2.73,2.43-.11,1.4,1.1,2.72,2.52,2.77,1.35.04,2.61-1.13,2.67-2.5Z"/>
      <path class="cls-3" d="M114.45,55.16c-.23,7.94-6.22,15.25-14.03,16.97-1.31.29-1.27.72-.71,1.67,1.43,2.43,3.52,3.8,6.31,4.09.57.06,1.14.07,1.66.31,1.06.48,1.69,1.69,1.47,2.79-.26,1.3-1.32,2.22-2.73,2.15-4.99-.23-8.8-2.48-11.29-6.85-.41-.71-.77-1.49-.94-2.28-.24-1.12-.76-1.65-1.93-1.84-3.09-.49-5.73-1.99-8.1-3.97-1.26-1.05-1.45-2.54-.56-3.71.87-1.15,2.4-1.39,3.72-.39,2.19,1.65,4.52,2.87,7.3,3.22,7.28.9,14.12-4.74,14.57-12.08.02-.35,0-.7.05-1.04.2-1.44,1.29-2.45,2.62-2.44,1.38.02,2.47,1.12,2.58,2.62.02.26,0,.52,0,.78Z"/>
      <path class="cls-3" d="M93.54,128.44c.32-9.68,8.5-18.11,17.74-18.29,1.58-.03,2.58.57,3,1.79.58,1.69-.55,3.32-2.51,3.41-4.42.22-7.77,2.29-10.32,5.78-1.66,2.27-2.55,4.84-2.67,7.65-.06,1.27-.42,2.32-1.66,2.86-1.95.83-3.65-.71-3.57-3.2Z"/>
      <path class="cls-3" d="M108.92,104.97c-1.22.02-1.88-.92-2.49-1.89-1.9-3.04-4.47-5.31-7.7-6.87-2.15-1.03-4.42-1.57-6.79-1.74-.35-.03-.7-.02-1.05-.06-1.6-.17-2.68-1.32-2.6-2.73.08-1.44,1.26-2.53,2.84-2.48,6.87.21,12.68,2.77,17.32,7.89,1.09,1.2,2.04,2.5,2.83,3.91,1.08,1.91-.16,4.04-2.38,3.97Z"/>
      <path class="cls-3" d="M90.88,32.6c.02,1.36-1.18,2.59-2.55,2.63-1.41.04-2.68-1.23-2.66-2.64.03-1.37,1.25-2.57,2.61-2.56,1.36,0,2.58,1.21,2.59,2.58Z"/>
      <path class="cls-3" d="M40.9,66.96c-3.09-3.43-4.85-7.41-4.98-12.06-.05-1.94.9-3.12,2.48-3.15,1.52-.03,2.66,1.16,2.75,2.99.16,3.17,1.14,5.98,3.37,8.3,4.83,5.21,12.14,5.85,17.79,1.57.55-.42,1.08-.9,1.78-1.07,1.15-.28,2.32.25,2.89,1.29.59,1.08.42,2.31-.59,3.2-2.29,2.02-4.9,3.51-7.91,4.07-1.37.26-2.01.78-2.4,2.16-1.46,5.08-6.91,8.98-12.14,8.88-1.55-.03-2.74-1.13-2.77-2.56-.03-1.42,1.04-2.55,2.67-2.65,3.02-.2,5.28-1.53,6.83-4.14.57-.97.56-1.4-.73-1.67-3.54-.75-6.49-2.63-9.04-5.17Z"/>
      <path class="cls-3" d="M44.57,117.43c-1.63-1.71-3.81-1.86-5.96-2.05-2.34-.21-3.4-2.16-2.2-4.15.53-.87,1.4-1.07,2.34-1.09,1.89-.03,3.68.51,5.49.94,6.47,2.65,10.55,7.34,12.17,14.16.31,1.32.4,2.67.48,4.02-.72,2.39-2.17,3.14-4.06,2.17-.9-.46-1.09-1.27-1.18-2.11-.1-.9-.07-1.81-.34-2.68-.7-3.49-2.5-6.32-5.26-8.55-.43-.35-.83-.79-1.48-.66Z"/>
      <path class="cls-3" d="M40.62,104.95c-1.96-.78-2.35-1.83-1.53-4.17,1.95-2.85,4.16-5.45,7.05-7.43,3.89-2.66,8.19-3.98,12.87-4.14,1.76-.06,3.01,1,3.06,2.53.05,1.46-1.07,2.61-2.79,2.68-3.94.17-7.53,1.27-10.72,3.64-1.91,1.42-3.5,3.14-4.73,5.18-.74,1.23-1.72,1.94-3.22,1.72Z"/>
      <path class="cls-3" d="M64.69,32.72c-.06,1.37-1.32,2.54-2.67,2.5-1.43-.05-2.63-1.37-2.52-2.77.11-1.38,1.38-2.51,2.73-2.43,1.37.08,2.53,1.35,2.47,2.7Z"/>
      <path class="cls-2" d="M44.57,117.43c.65-.12,1.05.31,1.48.66,2.75,2.23,4.55,5.05,5.26,8.55-2.37-1.16-3.84-3.18-5.12-5.37-.7-1.2-1.25-2.49-1.61-3.84Z"/>
    </g>
  </g>
</svg>