<?xml version="1.0" encoding="UTF-8"?>
<svg id="Capa_1" data-name="Capa 1" xmlns="http://www.w3.org/2000/svg" viewBox="0 0 150 150">
  <defs>
    <style>
      .cls-1 {
        fill: #96bd0b;
        stroke-width: 0px;
      }
    </style>
  </defs>
  <path class="cls-1" d="M78.46,102.42c-2.9-6.48-5.99-12.91-8.97-19.29-2.05-4.39-4.16-8.98-7.12-12.84-1.09-1.43-2.16-2.79-3.14-4.18l-12.15,12.15c-2.96-1.5-6.24-2.29-9.62-2.29-11.77,0-21.34,9.58-21.34,21.34,0,10.75,7.99,19.67,18.52,21.13,1.37,10.46,10.34,18.55,21.16,18.55,11.77,0,21.34-9.58,21.34-21.34,0-3.38-.78-6.66-2.28-9.63l3.6-3.6Z"/>
  <path class="cls-1" d="M87.83,90.44c-3.09-3.82-6.06-7.74-9.15-11.56.36.79.72,1.58,1.08,2.37,2.04,4.55,4.17,9.07,6.26,13.61l2.97-2.97c-.39-.49-.78-.98-1.16-1.45Z"/>
  <path class="cls-1" d="M120.99,32.17c-1.37-10.45-10.35-18.55-21.17-18.55-11.77,0-21.34,9.58-21.34,21.34,0,3.38.78,6.66,2.28,9.62l-10.28,10.28c4.05,3.97,7.98,8.07,11.68,12.38,3.86,4.49,7.45,9.2,11.12,13.84.9,1.14,1.84,2.41,2.82,3.7l12.43-12.43c2.96,1.5,6.25,2.28,9.63,2.28,11.77,0,21.34-9.57,21.34-21.34,0-10.75-7.98-19.66-18.51-21.13Z"/>
</svg>