<?xml version="1.0" encoding="UTF-8"?>
<svg id="Capa_1" data-name="Capa 1" xmlns="http://www.w3.org/2000/svg" viewBox="0 0 150 150">
  <defs>
    <style>
      .cls-1 {
        fill: #96bd0b;
        stroke-width: 0px;
      }
    </style>
  </defs>
  <g id="_30BO0r" data-name="30BO0r">
    <g>
      <path class="cls-1" d="M109.59,19.35c5.7.13,11.05,1.34,15.94,4.34,4.07,2.5,7.22,5.93,9.8,9.92,2.85,4.4,4.29,9.27,4.81,14.43.18,1.8.37,3.62.36,5.43,0,1.97-.21,3.93-.39,5.9-.39,4.4-1.11,8.74-2.61,12.9-2.53,7-6.72,12.76-13.01,16.85-4.32,2.81-9.12,3.94-14.25,3.79-2.4-.07-4.78-.35-7.02-1.24-6.43-2.54-10.62-7.07-11.73-14.01-.75-4.68.87-8.71,4.1-12.11.64-.68,1.3-1.31,2.29-1.42,1.19-.13,2.31.47,2.84,1.5.55,1.08.37,2.32-.43,3.24-.66.75-1.4,1.47-1.94,2.31-2.04,3.21-1.74,6.44.1,9.62,2.1,3.62,5.31,5.64,9.4,6.23,6.02.88,11.46-.49,16.09-4.53,4.47-3.89,7.5-8.73,8.93-14.48.69-2.79,1.09-5.67,1.52-8.52.59-3.98.52-7.97,0-11.97-1-7.62-4.59-13.72-10.73-18.28-3.21-2.39-6.95-3.57-10.93-3.95-3.38-.32-6.77-.31-10.03.73-6.03,1.92-9.56,6.08-10.55,12.34-.38,2.4-.44,4.8.38,7.14.14.41.33.81.48,1.22.52,1.42-.13,2.98-1.49,3.58-1.4.62-3.02.06-3.68-1.33-1.36-2.86-1.74-5.89-1.54-9.03.26-4.1,1.28-7.96,3.66-11.35,3.29-4.68,7.81-7.53,13.44-8.54,2.04-.37,4.12-.48,6.19-.71Z"/>
      <path class="cls-1" d="M9.31,53.31c.27-5.91.84-10.98,3.04-15.69,3.02-6.49,7.47-11.72,13.94-15.03,4.69-2.4,9.73-3.21,14.96-3.08,3.09.08,6.14.43,9.01,1.61,5.02,2.08,9.07,5.31,11.27,10.41,2.35,5.45,2.91,11.05.8,16.75-.47,1.27-1.23,2.19-2.67,2.26-2.18.11-3.66-1.99-2.72-3.99,2.04-4.34,1.03-12.57-3.4-16.79-2.79-2.65-6.09-4.06-9.87-4.44-4.23-.43-8.41-.17-12.44,1.3-4.95,1.8-8.61,5.15-11.54,9.44-2.77,4.05-4.01,8.57-4.42,13.38-.14,1.59-.28,3.19-.29,4.79,0,1.26.21,2.51.32,3.77.12,1.39.13,2.8.39,4.17.47,2.4.97,4.81,1.67,7.15,1.63,5.46,4.67,10.04,9.09,13.62,5.33,4.3,11.44,5.45,17.93,3.49,4.62-1.4,7.55-4.7,8.4-9.54.54-3.08-.75-5.61-2.92-7.72-.92-.89-1.31-1.91-.88-3.15.62-1.78,2.91-2.61,4.45-1.24,4.35,3.87,6.15,9.39,4.53,14.93-2.12,7.26-8.47,12.32-16,13.06-10.18,1-18.13-2.87-24.32-10.81-4-5.12-6.17-10.99-7.22-17.33-.66-4-1-8.04-1.09-11.31Z"/>
      <path class="cls-1" d="M49.6,57.1c-.16.57-.27,1.06-.42,1.54-.94,2.94-2.87,5.18-5.2,7.11-3.22,2.67-6.92,4.39-10.92,5.53-1.21.34-2.25-.14-2.56-1.16-.33-1.08.27-2.08,1.39-2.44,1.37-.44,2.72-.95,4.08-1.44.14-.05.26-.14.45-.42-2.15-.83-4.29-1.7-6.47-2.49-1.03-.37-1.67-1.01-1.64-1.94.04-1.26,1.14-2.04,2.45-1.76,2.1.46,3.99,1.41,5.92,2.3,1.13.53,2.26,1.05,3.41,1.55.18.08.5.1.64,0,1.89-1.36,3.52-2.96,4.52-5.11,1.24-2.66.72-5.19-.77-7.56-1.15-1.83-2.44-3.58-3.63-5.39-.93-1.42-1.62-2.95-1.99-4.62-.27-1.21.29-2.22,1.36-2.46,1.08-.25,2.01.39,2.3,1.59.33,1.38.95,2.61,1.8,3.9.39-.56.76-1.01,1.06-1.51.9-1.5,1.78-3.02,2.67-4.53.64-1.07,1.71-1.4,2.68-.84.94.54,1.19,1.69.56,2.74-1.17,1.95-2.35,3.9-3.53,5.84-.08.13-.18.25-.28.36-.31.36-.82.69-.87,1.08-.04.35.45.75.68,1.15.43.74.87,1.47,1.23,2.25.21.46.53.67.97.87,2.45,1.06,4.94,2.04,7.3,3.28,3.98,2.09,7.38,4.92,9.85,8.74,2.31,3.58,3.57,7.53,4.1,11.74.77,6.15.04,12.19-1.38,18.18-1.07,4.47-2.25,8.91-3.3,13.38-1.54,6.54-2.07,13.14-.75,19.8.1.51.19,1.03.3,1.54.33,1.51-.53,2.92-2,3.27-1.49.35-2.9-.49-3.25-2.01-1.19-5.14-1.46-10.35-.95-15.6.62-6.31,2.4-12.36,3.92-18.48,1.07-4.29,2.04-8.61,2.25-13.05.2-4.15-.15-8.23-1.63-12.15-1.45-3.86-3.99-6.85-7.36-9.17-2.15-1.48-4.48-2.6-6.97-3.62Z"/>
      <path class="cls-1" d="M103.33,46.83c-1.62-1.35-2.48-3.25-3.54-5-.42-.69-.82-1.4-1.23-2.1-.63-1.07-.41-2.18.54-2.76.95-.57,2.05-.24,2.68.82.96,1.62,1.91,3.25,2.88,4.86.23.39.53.74.86,1.17.85-1.24,1.48-2.47,1.78-3.86.18-.84.63-1.45,1.51-1.62,1.35-.27,2.49.88,2.21,2.24-.44,2.16-1.46,4.06-2.69,5.87-1.07,1.57-2.21,3.11-3.17,4.75-1.96,3.35-1.64,6.57.95,9.51.86.98,1.91,1.79,2.86,2.7.27.25.5.24.82.09,1.7-.81,3.39-1.64,5.13-2.36,1.43-.59,2.9-1.12,4.39-1.52,1.33-.35,2.48.91,2.16,2.26-.19.77-.74,1.16-1.48,1.43-2.19.8-4.36,1.66-6.54,2.49,0,.1.01.2.02.29.86.34,1.7.7,2.57,1.02.59.22,1.21.38,1.82.55,1.2.35,1.79,1.28,1.51,2.37-.28,1.05-1.3,1.58-2.51,1.26-2.62-.69-5.08-1.75-7.44-3.09-2.64-1.5-4.94-3.37-6.78-5.79-1.18-1.56-1.98-3.29-2.36-5.27-.5.16-1,.25-1.43.47-1.74.9-3.53,1.72-5.16,2.79-5.42,3.56-8.34,8.69-9.16,15.08-.51,3.97-.43,7.94.37,11.84.96,4.74,2.15,9.43,3.27,14.13,1.02,4.26,2.02,8.51,2.38,12.89.42,4.99.09,9.93-1.02,14.82-.34,1.48-1.77,2.37-3.18,2.05-1.5-.34-2.43-1.74-2.1-3.21,1.45-6.43,1.4-12.88,0-19.29-1.04-4.74-2.27-9.44-3.42-14.16-1.2-4.93-2.08-9.9-2.01-15,.07-4.98.93-9.8,3.25-14.28,1.88-3.62,4.52-6.58,7.9-8.81,3.27-2.16,6.73-4,10.48-5.23.46-.15.69-.42.91-.84.62-1.18,1.3-2.32,1.99-3.55Z"/>
    </g>
  </g>
</svg>